<svg height="512" viewBox="0 0 58 54" width="512" xmlns="http://www.w3.org/2000/svg"><g id="Page-1" fill="none" fill-rule="evenodd"><g id="003---Heart-Present" fill-rule="nonzero"><path id="Shape" d="m43.5 0c-5.1898999.03772324-10.1515059 2.13894-13.79 5.84-.1864103.19183364-.4425137.30007247-.71.30007247s-.5235897-.10823883-.71-.30007247c-3.6340486-3.70759104-8.598503-5.81001405-13.79-5.84-8.58 0-14.5 8.58-14.5 18.46 0 11.981 7.743 25.234 23.31 32.31 3.6167507 1.6368711 7.7632493 1.6368711 11.38 0 15.767-7.158 23.31-20.577 23.31-32.31 0-9.88-5.92-18.46-14.5-18.46z" fill="#ff5364"/><path id="Shape" d="m33 3.16v48.24c-2.6066452.8001432-5.3933548.8001432-8 0v-48.25c1.1946966.76959575 2.2983958 1.6720124 3.29 2.69.1864103.19183364.4425137.30007247.71.30007247s.5235897-.10823883.71-.30007247c.9936746-1.01280973 2.0971554-1.91169372 3.29-2.68z" fill="#f3d55b"/><path id="Shape" d="m57.88 21c-.2528224 2.7369508-.8716751 5.4276148-1.84 8h-54.09c-.96477107-2.5729031-1.58025313-5.2635351-1.83-8z" fill="#f3d55b"/><path id="Shape" d="m6 10.98c-.34746188-.0005246-.66974537-.1813742-.85123468-.4776708-.1814893-.2962966-.19616613-.66556313-.03876532-.9753292 2.109-4.148 5.535-6.527 9.397-6.527.6957965-.00123172 1.3908266.04621745 2.08.142.3620731.03971089.673917.27315142.8140311.60936844.1401142.33621702.0863347.72202643-.1403849 1.00710906-.2267195.28508263-.5905157.42434302-.9496462.3635225-.5978142-.08208471-1.2005773-.12284807-1.804-.122-4.221 0-6.583 3.4-7.616 5.434-.17071964.3350473-.51496555.5459994-.891.546z" fill="#fb7b76"/><path id="Shape" d="m52 10.98c-.3763942.0003757-.7211171-.2106318-.892-.546-1.032-2.034-3.394-5.434-7.615-5.434-.6020879-.00066437-1.2035082.04009855-1.8.122-.5376676.05896947-1.0247717-.32026806-1.0994467-.85598016s.2901487-1.0337032.8234467-1.12401984c.6878513-.09559659 1.3815383-.14304532 2.076-.142 3.862 0 7.288 2.379 9.4 6.527.1576427.31024214.1426634.6801288-.0395498.9766077-.1822132.296479-.5054543.4769108-.8534502.4763923z" fill="#fb7b76"/><path id="Shape" d="m12.707 50.293c-.3904999-.3903819-1.0235001-.3903819-1.414 0l-.293.293-.293-.293c-.3923789-.3789722-1.01608478-.3735524-1.40181858.0121814-.38573379.3857338-.39115363 1.0094397-.01218142 1.4018186l.293.293-.293.293c-.25995658.2510745-.3642126.6228779-.27269716.9725073.09151544.3496295.3645604.6226744.71418984.7141899.34962942.0915154.72143282-.0127406.97250732-.2726972l.293-.293.293.293c.3923789.3789722 1.0160848.3735524 1.4018186-.0121814s.3911536-1.0094397.0121814-1.4018186l-.293-.293.293-.293c.3903819-.3904999.3903819-1.0235001 0-1.414z" fill="#f0c419"/><path id="Shape" d="m55.414 44 .293-.293c.3789722-.3923789.3735524-1.0160848-.0121814-1.4018186s-1.0094397-.3911536-1.4018186-.0121814l-.293.293-.293-.293c-.3923789-.3789722-1.0160848-.3735524-1.4018186.0121814s-.3911536 1.0094397-.0121814 1.4018186l.293.293-.293.293c-.2599566.2510745-.3642126.6228779-.2726972.9725073.0915155.3496295.3645604.6226744.7141899.7141899.3496294.0915154.7214328-.0127406.9725073-.2726972l.293-.293.293.293c.3923789.3789722 1.0160848.3735524 1.4018186-.0121814s.3911536-1.0094397.0121814-1.4018186z" fill="#f0c419"/><path id="Shape" d="m50.707 48.293c-.3904999-.3903819-1.0235001-.3903819-1.414 0l-.793.793-.793-.793c-.3923789-.3789722-1.0160848-.3735524-1.4018186.0121814s-.3911536 1.0094397-.0121814 1.4018186l.793.793-.793.793c-.2599566.2510745-.3642126.6228779-.2726972.9725073.0915155.3496295.3645604.6226744.7141899.7141899.3496294.0915154.7214328-.0127406.9725073-.2726972l.793-.793.793.793c.3923789.3789722 1.0160848.3735524 1.4018186-.0121814s.3911536-1.0094397.0121814-1.4018186l-.793-.793.793-.793c.3903819-.3904999.3903819-1.0235001 0-1.414z" fill="#955ba5"/><path id="Shape" d="m6.707 43.293c-.39049985-.3903819-1.02350015-.3903819-1.414 0l-.793.793-.793-.793c-.39237889-.3789722-1.01608478-.3735524-1.40181858.0121814-.38573379.3857338-.39115363 1.0094397-.01218142 1.4018186l.793.793-.793.793c-.25995658.2510745-.3642126.6228779-.27269716.9725073.09151544.3496295.3645604.6226744.71418984.7141899.34962943.0915154.72143285-.0127406.97250732-.2726972l.793-.793.793.793c.25107447.2599566.62287789.3642126.97250732.2726972.34962944-.0915155.6226744-.3645604.71418984-.7141899.09151544-.3496294-.01274058-.7214328-.27269716-.9725073l-.793-.793.793-.793c.39038194-.3904999.39038194-1.0235001 0-1.414z" fill="#955ba5"/><path id="Shape" d="m28 31c-1.0770223.1829573-2.1009679.5993618-3 1.22-3.69 2.53-5 7.78-5 7.78l-2-5-5 2c.4240709-3.2798739 2.2714392-6.2063979 5.05-8 .485-.3.235-.239 5.939-2.036z" fill="#f29c1f"/><path id="Shape" d="m30 31c1.0770223.1829573 2.1009679.5993618 3 1.22 3.69 2.53 5 7.78 5 7.78l2-5 5 2c-.4240709-3.2798739-2.2714392-6.2063979-5.05-8-.485-.3-.235-.239-5.939-2.036z" fill="#f29c1f"/><path id="Shape" d="m29 23.031s-1.921-11.415-11.379-12.007c-.5388624-.0269748-1.0744862.09775-1.546.36-1.636.886-5.415 3.336-6.865 7.69-.39212532 1.1611184-.23189626 2.437794.435 3.466 2 3.071 7.222 8.712 14.355 5.5z" fill="#f0c419"/><path id="Shape" d="m24.27 25.59c-4.311-2.619-5.746-7.894-6.14-9.843-.0345128-.1735199.0252421-.35236.1571323-.4702806.1318903-.1179205.3162776-.1573633.4848677-.1037194 4.648 1.309 6.653 6.9 7.118 8.437z" fill="#f29c1f"/><path id="Shape" d="m34 28.04c1.7850328.8518892 3.7867654 1.1413383 5.74.83 4.17-.7 7.2-4.17 8.61-6.34.6731449-1.0272136.8354596-2.3072861.44-3.47-1.45-4.36-5.23-6.81-6.87-7.69-.4673123-.2674341-1.0025599-.3925569-1.54-.36-6.93.43-9.82 6.68-10.86 9.99-.2160257.6540766-.3864344 1.3223461-.51 2-.0057054.0051905-.0092708.0123214-.01.02z" fill="#f0c419"/><path id="Shape" d="m32.11 23.61c.465-1.537 2.47-7.128 7.118-8.437.1685901-.0536439.3529774-.0142011.4848677.1037194.1318902.1179206.1916451.2967607.1571323.4702806-.394 1.949-1.829 7.224-6.14 9.843z" fill="#f29c1f"/><path id="Shape" d="m34 27v2c-.0032948 1.1032019-.8967981 1.9967052-2 2h-6c-1.1032019-.0032948-1.9967052-.8967981-2-2v-2c0-2.209139 1.790861-4 4-4h2c2.209139 0 4 1.790861 4 4z" fill="#f3d55b"/></g></g></svg>