<svg height="512" viewBox="0 0 58 52" width="512" xmlns="http://www.w3.org/2000/svg"><g id="Page-1" fill="none" fill-rule="evenodd"><g id="004---Present" fill-rule="nonzero"><rect id="Rectangle-path" fill="#2980ba" height="52" rx="4" width="58"/><path id="Shape" d="m28 33.22v18.78h-8v-18.78-17.58-15.64h8v15.63z" fill="#f3d55b"/><path id="Shape" d="m43.03 24h14.97v8h-20.73-26.54-10.73v-8h4.96z" fill="#f3d55b"/><g fill="#3b97d3"><path id="Shape" d="m54 49h-2c-.5522847 0-1-.4477153-1-1s.4477153-1 1-1h2c.5522847 0 1 .4477153 1 1s-.4477153 1-1 1z"/><path id="Shape" d="m48 49h-16c-.5522847 0-1-.4477153-1-1s.4477153-1 1-1h16c.5522847 0 1 .4477153 1 1s-.4477153 1-1 1z"/><path id="Shape" d="m54 5h-2c-.5522847 0-1-.44771525-1-1s.4477153-1 1-1h2c.5522847 0 1 .44771525 1 1s-.4477153 1-1 1z"/><path id="Shape" d="m48 5h-16c-.5522847 0-1-.44771525-1-1s.4477153-1 1-1h16c.5522847 0 1 .44771525 1 1s-.4477153 1-1 1z"/></g><path id="Shape" d="m31.994 29.089c2.646.167 7.074 2.4 8.006 8.911l-5-2-2 5s-2-8-8-9v-4z" fill="#f29c1f"/><path id="Shape" d="m16.006 29.089c-2.646.167-7.074 2.4-8.006 8.911l5-2 2 5s2-8 8-9v-4z" fill="#f29c1f"/><path id="Shape" d="m24 24s-1.921-11.387-11.378-11.979c-.5388817-.0271906-1.0745642.0975479-1.546.36-1.637.886-5.416 3.336-6.866 7.69-.39165 1.160835-.23143898 2.4369987.435 3.465 2 3.072 7.222 8.713 14.355 5.5z" fill="#f0c419"/><path id="Shape" d="m19.27 26.587c-4.311-2.619-5.745-7.894-6.14-9.844-.0345128-.1735199.0252421-.35236.1571323-.4702806.1318903-.1179205.3162776-.1573633.4848677-.1037194 4.648 1.31 6.653 6.9 7.118 8.438z" fill="#f29c1f"/><path id="Shape" d="m29 29.037c1.322806.6152479 2.7612203.9424701 4.22.96.5095548.0027058 1.0183051-.0408057 1.52-.13 4.17-.7 7.2-4.17 8.61-6.34.3050304-.462307.5094521-.9835822.6-1.53.1013818-.6502006.0465369-1.3151947-.16-1.94-1.45-4.36-5.23-6.81-6.87-7.69-.4673123-.2674341-1.0025599-.3925569-1.54-.36-6.93.43-9.82 6.68-10.86 9.99-.21686.655603-.3905648 1.3247006-.52 2.003z" fill="#f0c419"/><path id="Shape" d="m27.11 24.607c.465-1.538 2.471-7.128 7.119-8.438.1685901-.0536439.3529774-.0142011.4848677.1037194.1318902.1179206.1916451.2967607.1571323.4702806-.4 1.95-1.829 7.225-6.141 9.844z" fill="#f29c1f"/><path id="Shape" d="m29 28v2c-.0032948 1.1032019-.8967981 1.9967052-2 2h-6c-1.1032019-.0032948-1.9967052-.8967981-2-2v-2c0-2.209139 1.790861-4 4-4h2c2.209139 0 4 1.790861 4 4z" fill="#f3d55b"/></g></g></svg>