<svg height="512" viewBox="0 0 60 60" width="512" xmlns="http://www.w3.org/2000/svg"><g id="Page-1" fill="none" fill-rule="evenodd"><g id="005---Flowers" fill-rule="nonzero" transform="translate(-1)"><path id="Shape" d="m35.67 47c-.67 3.05-1.12 9.15.33 12.05h-10c1.45-2.9 1-9 .33-12.05l-6.82-14.6c-2.18-4.33-3.27-8.73-3.6-9.2 3.9304074-4.138648 9.385987-6.4845375 15.0935677-6.4902073 5.7075806-.0056698 11.1678102 2.3293762 15.1064323 6.4602073-.3.29-1.39 4.8-3.62 9.23z" fill="#2fa8cc"/><path id="Shape" d="m25.363 18.383c.3963895 1.1582159.2559873 2.4328334-.383 3.477-1.2790964 2.1163616-4.0126595 2.826378-6.16 1.6-.0468548-.0151533-.0977673.0060602-.12.05-.2493289 1.0579568-.8748636 1.9891505-1.76 2.62-1.046448.7589433-2.3655556 1.038754-3.63.77-1.1516672-.2393422-2.1574955-.9344764-2.7885209-1.9271641-.6310254-.9926878-.83355268-2.1984592-.5614791-3.3428359.01-.04-.04-.09-.09-.09-1.17096367.1317382-2.34559443-.214113-3.25834189-.9593666-.91274747-.7452536-1.48653949-1.8269806-1.59165811-3.0006334-.19273368-2.4596081 1.62370409-4.6188539 4.08-4.85.02311988-.0028014.04395796-.0153016.05731332-.0343807.01335535-.0190791.017968-.0429371.01268668-.0656193-.98582828-2.2836974.06630256-4.93417172 2.35-5.92 2.2836974-.98582828 4.9341717.06630256 5.92 2.35.01.04.09.05.12.03 1.8575782-1.64626715 4.6973661-1.47758902 6.347.377z" fill="#df4d60"/><circle id="Oval" cx="15.501" cy="16.501" fill="#f0c419" r="2.5"/><path id="Shape" d="m37.784 9.9c.7244405-1.0598625 1.8702854-1.75634128 3.1446757-1.91142784s2.5538333.24624751 3.5113243 1.10142784c.03.02.11.01.12-.03.9858283-2.28369736 3.6363026-3.33582813 5.9199999-2.34999988 2.2836974.98582826 3.3358283 3.63630248 2.3500001 5.91999988-.0052813.0226822-.0006687.0465402.0126867.0656193.0133553.0190791.0341934.0315793.0573133.0343807 2.4562959.2311461 4.2727337 2.3903919 4.08 4.85-.1051186 1.1736528-.6789106 2.2553798-1.5916581 3.0006334s-2.0873782 1.0911048-3.2583419.9593666c-.05 0-.1.05-.09.09.2720736 1.1443767.0695463 2.3501481-.5614791 3.3428359-.6310254.9926877-1.6368537 1.6878219-2.7885209 1.9271641-1.2644444.268754-2.583552-.0110567-3.63-.77-.8851364-.6308495-1.5106711-1.5620432-1.76-2.62-.0222327-.0439398-.0731452-.0651533-.12-.05-2.1473405 1.226378-4.8809036.5163616-6.16-1.6-.6596344-1.1357963-.8158326-2.4951917-.431-3.751z" fill="#df4d60"/><circle id="Oval" cx="46.501" cy="16.499" fill="#f0c419" r="2.5"/><path id="Shape" d="m22.49 41.539c-.974 1.154-5.354 3.751-6.49 9.461l4.54-1.81c.254048-.1035675.5440997.0169155.65.27l1.81 4.54s1.42-6.41 5.47-9.01v-2.657z" fill="#f29c1f"/><path id="Shape" d="m39.351 41.324c.512 1.018 5.431 3.576 6.649 9.676l-4.54-1.81c-.254048-.1035675-.5440997.0169155-.65.27l-1.81 4.54s-1.42-6.41-5.47-9.01v-2.49z" fill="#f29c1f"/><path id="Shape" d="m32 55v4.05h-2v-4.05c0-.5522847.4477153-1 1-1s1 .4477153 1 1z" fill="#2980ba"/><path id="Shape" d="m25.983 34.974c-.4467678-.0004531-.8390326-.2972028-.961-.727l-1.984-6.974c-.0996635-.3443718-.0073556-.7157459.2419413-.9733809s.6174344-.3621065.9648976-.2738223c.3474632.0882841.6210817.3558143.7171611.7012032l1.984 6.973c.086004.30187.0252822.6266056-.1639893.8770022s-.4851285.3973966-.7990107.3969978z" fill="#2980ba"/><path id="Shape" d="m35.893 35.408c-.3137063.0000848-.6092714-.1470467-.7983117-.3973973s-.2496438-.574902-.1636883-.8766027l2.107-7.407c.0960794-.3453889.3696979-.6129191.7171611-.7012032.3474632-.0882842.7156007.0161873.9648976.2738223s.3416048.6290091.2419413.9733809l-2.108 7.408c-.1219674.4297972-.5142322.7265469-.961.727z" fill="#2980ba"/><path id="Shape" d="m31 30c-.5522847 0-1-.4477153-1-1v-4c0-.5522847.4477153-1 1-1s1 .4477153 1 1v4c0 .5522847-.4477153 1-1 1z" fill="#2980ba"/><g fill="#f0c419"><path id="Shape" d="m11.707 30.293c-.3904999-.3903819-1.0235001-.3903819-1.414 0l-.293.293-.293-.293c-.25107447-.2599566-.62287789-.3642126-.97250732-.2726972-.34962944.0915155-.6226744.3645604-.71418984.7141899-.09151544.3496294.01274058.7214328.27269716.9725073l.293.293-.293.293c-.25995658.2510745-.3642126.6228779-.27269716.9725073.09151544.3496295.3645604.6226744.71418984.7141899.34962943.0915154.72143285-.0127406.97250732-.2726972l.293-.293.293.293c.3923789.3789722 1.0160848.3735524 1.4018186-.0121814s.3911536-1.0094397.0121814-1.4018186l-.293-.293.293-.293c.3903819-.3904999.3903819-1.0235001 0-1.414z"/><path id="Shape" d="m60.414 28 .293-.293c.3789722-.3923789.3735524-1.0160848-.0121814-1.4018186s-1.0094397-.3911536-1.4018186-.0121814l-.293.293-.293-.293c-.3923789-.3789722-1.0160848-.3735524-1.4018186.0121814s-.3911536 1.0094397-.0121814 1.4018186l.293.293-.293.293c-.2599566.2510745-.3642126.6228779-.2726972.9725073.0915155.3496295.3645604.6226744.7141899.7141899.3496294.0915154.7214328-.0127406.9725073-.2726972l.293-.293.293.293c.3923789.3789722 1.0160848.3735524 1.4018186-.0121814s.3911536-1.0094397.0121814-1.4018186z"/><path id="Shape" d="m53 35c.4043959-.0000863.7689341-.2437275.923678-.6173454.1547439-.373618.0692299-.8036603-.216678-1.0896546l-.293-.293.293-.293c.3789722-.3923789.3735524-1.0160848-.0121814-1.4018186s-1.0094397-.3911536-1.4018186-.0121814l-.293.293-.293-.293c-.3923789-.3789722-1.0160848-.3735524-1.4018186.0121814s-.3911536 1.0094397-.0121814 1.4018186l.293.293-.293.293c-.2599566.2510745-.3642126.6228779-.2726972.9725073.0915155.3496295.3645604.6226744.7141899.7141899.3496294.0915154.7214328-.0127406.9725073-.2726972l.293-.293.293.293c.1874927.1875494.4418052.2929434.707.293z"/><path id="Shape" d="m56.707 38.293c-.3904999-.3903819-1.0235001-.3903819-1.414 0l-.293.293-.293-.293c-.3923789-.3789722-1.0160848-.3735524-1.4018186.0121814s-.3911536 1.0094397-.0121814 1.4018186l.293.293-.293.293c-.2599566.2510745-.3642126.6228779-.2726972.9725073.0915155.3496295.3645604.6226744.7141899.7141899.3496294.0915154.7214328-.0127406.9725073-.2726972l.293-.293.293.293c.3923789.3789722 1.0160848.3735524 1.4018186-.0121814s.3911536-1.0094397.0121814-1.4018186l-.293-.293.293-.293c.3903819-.3904999.3903819-1.0235001 0-1.414z"/><path id="Shape" d="m8.707 37.293c-.39049985-.3903819-1.02350015-.3903819-1.414 0l-.293.293-.293-.293c-.39237889-.3789722-1.01608478-.3735524-1.40181858.0121814-.38573379.3857338-.39115363 1.0094397-.01218142 1.4018186l.293.293-.293.293c-.25995658.2510745-.3642126.6228779-.27269716.9725073.09151544.3496295.3645604.6226744.71418984.7141899.34962943.0915154.72143285-.0127406.97250732-.2726972l.293-.293.293.293c.25107447.2599566.62287789.3642126.97250732.2726972.34962944-.0915155.6226744-.3645604.71418984-.7141899.09151544-.3496294-.01274058-.7214328-.27269716-.9725073l-.293-.293.293-.293c.39038194-.3904999.39038194-1.0235001 0-1.414z"/><path id="Shape" d="m4.707 26.293-.293-.293.293-.293c.37897221-.3923789.37355237-1.0160848-.01218142-1.4018186-.3857338-.3857338-1.00943969-.3911536-1.40181858-.0121814l-.293.293-.293-.293c-.25107447-.2599566-.62287789-.3642126-.97250732-.2726972-.34962944.0915155-.6226744.3645604-.71418984.7141899-.09151544.3496294.01274058.7214328.27269716.9725073l.293.293-.293.293c-.25995658.2510745-.3642126.6228779-.27269716.9725073.09151544.3496295.3645604.6226744.71418984.7141899.34962943.0915154.72143285-.0127406.97250732-.2726972l.293-.293.293.293c.25107447.2599566.62287789.3642126.97250732.2726972.34962944-.0915155.6226744-.3645604.71418984-.7141899.09151544-.3496294-.01274058-.7214328-.27269716-.9725073z"/><path id="Shape" d="m35 43.38c4.138 1.711 8.01-.351 10.52-4.05.5061674-.7394887.6252762-1.6774709.32-2.52-.9556113-2.424109-2.7863703-4.401186-5.13-5.54-.3487925-.1995005-.7493087-.290052-1.15-.26-4.085.26-6.692 3.108-8.04 6.99z"/></g><path id="Shape" d="m34.993 41.8c-.493761.0000955-.9136821-.3602044-.9886119-.8482469-.0749297-.4880425.2175639-.9577203.6886119-1.1057531 2.1035473-.5839278 3.8838204-1.9894065 4.94-3.9-.3329331-.1272854-.5729477-.4221605-.63-.774-.0854068-.5479241.2860553-1.0625307.833-1.154.682368-.1020706 1.3750822.1012816 1.894.556.2362887.2998253.3143927.6948083.21 1.062-1.0897221 2.9955866-3.5652653 5.2761435-6.64 6.117-.0992385.0316558-.2028361.047516-.307.047z" fill="#f29c1f"/><path id="Shape" d="m30.48 38c-.66-1.9-2.13-4.93-5.14-6.29-.9160166-.4078592-1.898791-.6450806-2.9-.7-1.259-.126-5.1 2.357-6.28 5.8-.3051074.8425479-.1860086 1.780451.32 2.52 2.488 3.655 6.352 5.77 10.52 4.05z" fill="#f0c419"/><path id="Shape" d="m27.007 41.8c-.1018611-.0006272-.2030284-.0168139-.3-.048-3.0746273-.8388255-5.5509712-3.117569-6.642-6.112-.1043876-.3668713-.0262695-.7615538.21-1.061.518985-.4545962 1.2116415-.6579315 1.894-.556.4440818.0737121.7841728.4350591.83086.8827894.0466872.4477302-.211539.8714669-.63086 1.0352106 1.055925 1.9142724 2.8389715 3.3220356 4.946 3.905.471048.1480328.7635416.6177106.6886119 1.1057531-.0749298.4880425-.4948509.8483424-.9886119.8482469z" fill="#f29c1f"/><path id="Shape" d="m35 41v2.5c-.0309618.8545225-.7452586 1.5241757-1.6 1.5h-4.8c-.8547414.0241757-1.5690382-.6454775-1.6-1.5v-2.5c.026098-.822316.3780103-1.6005305.9782224-2.1632294.6002122-.5626989 1.3994892-.8637243 2.2217776-.8367706h1.6c.8222884-.0269537 1.6215654.2740717 2.2217776.8367706.6002121.5626989.9521244 1.3409134.9782224 2.1632294z" fill="#f3d55b"/><path id="Shape" d="m40.678 7.747c-.9290514-2.28622351-3.5191998-3.40575851-5.821-2.516-.0454761.00759334-.0891032-.02120055-.1-.066-.1380712-2.48334834-2.2631517-4.38457109-4.7465-4.2464999-2.4833483.13807118-4.3845711 2.26315156-4.2465 4.7464999-.0027275.02361658-.0148942.04512487-.0337307.05962896-.0188365.0145041-.04274.02076987-.0662693.01737104-2.3857201-.63121715-4.8370533.76642986-5.509 3.141-.3023371 1.1390409-.1344544 2.3517884.4659421 3.3658624s1.5829775 1.7444681 2.7270579 2.0271376c.0437628.0191927.0638539.0700902.045.114-.6487643.9810468-.8730305 2.1828326-.6217566 3.3318363.2512739 1.1490036.9567109 2.147474 1.9557566 2.7681637 2.090585 1.3185924 4.8509743.7329075 6.226-1.321.0329525-.0356789.08827-.0387767.125-.007 1.5926892 1.8904492 4.4011017 2.1688962 6.334.628.9241113-.7267922 1.5151149-1.7963381 1.6386606-2.9655024.1235457-1.1691642-.2308632-2.3386119-.9826606-3.2424976-.0118505-.0199506-.0151359-.0438435-.0091101-.0662523.0060259-.0224087.0208517-.0414314.0411101-.0527477 1.1067112-.4072212 2.0032885-1.2422015 2.4881194-2.3171795s.5172188-2.29972051.0898806-3.3988205z" fill="#ff5364"/><circle id="Oval" cx="30.5" cy="11.491" fill="#f0c419" r="2.5"/></g></g></svg>