<svg height="512" viewBox="0 0 60 58" width="512" xmlns="http://www.w3.org/2000/svg"><g id="Page-1" fill="none" fill-rule="evenodd"><g id="007---Diamond-In-Box" fill-rule="nonzero"><path id="Shape" d="m59.781 18.375c-.1657145-.2072013-.4069781-.3400545-.670678-.3693128-.2636998-.0292583-.5282179.0474769-.735322.2133128l-10.975 8.781h-34.8l-10.975-8.781c-.43133439-.345178-1.06082203-.2753344-1.406.156s-.27533439 1.060822.156 1.406l10.625 8.499v27.72c0 1.1045695.8954305 2 2 2h34c1.1045695 0 2-.8954305 2-2v-27.719l10.625-8.5c.2072013-.1657145.3400545-.4069781.3693128-.670678.0292583-.2636998-.0474769-.5282179-.2133128-.735322z" fill="#e64c3c"/><path id="Rectangle-path" d="m26 35h8v23h-8z" fill="#f29c1f"/><path id="Shape" d="m37 27v16l-7-6-7 6v-16z" fill="#f0c419"/><path id="Shape" d="m15 55c-.5522847 0-1-.4477153-1-1v-2c0-.5522847.4477153-1 1-1s1 .4477153 1 1v2c0 .5522847-.4477153 1-1 1z" fill="#c03a2b"/><path id="Shape" d="m15 49c-.5522847 0-1-.4477153-1-1v-16c0-.5522847.4477153-1 1-1s1 .4477153 1 1v16c0 .5522847-.4477153 1-1 1z" fill="#c03a2b"/><path id="Shape" d="m45 55c-.5522847 0-1-.4477153-1-1v-2c0-.5522847.4477153-1 1-1s1 .4477153 1 1v2c0 .5522847-.4477153 1-1 1z" fill="#c03a2b"/><path id="Shape" d="m45 49c-.5522847 0-1-.4477153-1-1v-16c0-.5522847.4477153-1 1-1s1 .4477153 1 1v16c0 .5522847-.4477153 1-1 1z" fill="#c03a2b"/><path id="Shape" d="m46.78 8.36-5.61-7.9c-.1396838-.19568926-.3400455-.3398091-.57-.41-.0968392-.03197275-.1980258-.04883717-.3-.05h-20.6c-.1019742.00116283-.2031608.01802725-.3.05-.2299545.0701909-.4303162.21431074-.57.41l-5.61 7.9c-.3274874.46019666-.2856774 1.08734766.1 1.5l15.91 16.8c.1974424.2165547.476948.3399573.77.3399573s.5725576-.1234026.77-.3399573l15.91-16.8c.3856774-.41265234.4274874-1.03980334.1-1.5z" fill="#3b97d3"/><path id="Shape" d="m24.69 9h-11.69c.0104125-.23002207.0867834-.45219183.22-.64l5.61-7.9c.1396838-.19568926.3400455-.3398091.57-.41z" fill="#2fa8cc"/><path id="Shape" d="m30 0-5.31 9-5.29-8.95c.0968392-.03197275.1980258-.04883717.3-.05z" fill="#67b9cc"/><path id="Shape" d="m40.6.05-5.29 8.95-5.31-9h10.3c.1019742.00116283.2031608.01802725.3.05z" fill="#67b9cc"/><path id="Shape" d="m47 9h-11.69l5.29-8.95c.2299545.0701909.4303162.21431074.57.41l5.61 7.9c.1332166.18780817.2095875.40997793.22.64z" fill="#2fa8cc"/><path id="Shape" d="m35.31 9h-10.62l5.31-9z" fill="#2fa8cc"/><path id="Shape" d="m35.31 9-5.31 18-5.31-18z" fill="#2980ba"/><g fill="#f0c419"><path id="Shape" d="m44.707 20.293c-.3904999-.3903819-1.0235001-.3903819-1.414 0l-.293.293-.293-.293c-.3923789-.3789722-1.0160848-.3735524-1.4018186.0121814s-.3911536 1.0094397-.0121814 1.4018186l.293.293-.293.293c-.2599566.2510745-.3642126.6228779-.2726972.9725073.0915155.3496295.3645604.6226744.7141899.7141899.3496294.0915154.7214328-.0127406.9725073-.2726972l.293-.293.293.293c.3923789.3789722 1.0160848.3735524 1.4018186-.0121814s.3911536-1.0094397.0121814-1.4018186l-.293-.293.293-.293c.3903819-.3904999.3903819-1.0235001 0-1.414z"/><path id="Shape" d="m55.414 9 .293-.293c.3789722-.39237889.3735524-1.01608478-.0121814-1.40181858-.3857338-.38573379-1.0094397-.39115363-1.4018186-.01218142l-.293.293-.293-.293c-.3923789-.37897221-1.0160848-.37355237-1.4018186.01218142-.3857338.3857338-.3911536 1.00943969-.0121814 1.40181858l.293.293-.293.293c-.2599566.25107447-.3642126.62287789-.2726972.9725073.0915155.3496295.3645604.6226744.7141899.7141899.3496294.0915154.7214328-.0127406.9725073-.2726972l.293-.293.293.293c.3923789.3789722 1.0160848.3735524 1.4018186-.0121814s.3911536-1.00943971.0121814-1.4018186z"/><path id="Shape" d="m52.707 15.293c-.3904999-.3903819-1.0235001-.3903819-1.414 0l-.293.293-.293-.293c-.3923789-.3789722-1.0160848-.3735524-1.4018186.0121814s-.3911536 1.0094397-.0121814 1.4018186l.293.293-.293.293c-.2599566.2510745-.3642126.6228779-.2726972.9725073.0915155.3496295.3645604.6226744.7141899.7141899.3496294.0915154.7214328-.0127406.9725073-.2726972l.293-.293.293.293c.3923789.3789722 1.0160848.3735524 1.4018186-.0121814s.3911536-1.0094397.0121814-1.4018186l-.293-.293.293-.293c.3903819-.3904999.3903819-1.0235001 0-1.414z"/><path id="Shape" d="m18.707 20.293c-.3904999-.3903819-1.0235001-.3903819-1.414 0l-.293.293-.293-.293c-.3923789-.3789722-1.0160848-.3735524-1.4018186.0121814s-.3911536 1.0094397-.0121814 1.4018186l.293.293-.293.293c-.2599566.2510745-.3642126.6228779-.2726972.9725073.0915155.3496295.3645604.6226744.7141899.7141899.3496294.0915154.7214328-.0127406.9725073-.2726972l.293-.293.293.293c.3923789.3789722 1.0160848.3735524 1.4018186-.0121814s.3911536-1.0094397.0121814-1.4018186l-.293-.293.293-.293c.3903819-.3904999.3903819-1.0235001 0-1.414z"/><path id="Shape" d="m7 11c.4043959-.0000863.76893405-.2437275.92367798-.6173454.15474393-.373618.06922994-.80366035-.21667798-1.0896546l-.293-.293.293-.293c.37897221-.39237889.37355237-1.01608478-.01218142-1.40181858-.3857338-.38573379-1.00943969-.39115363-1.40181858-.01218142l-.293.293-.293-.293c-.39237889-.37897221-1.01608478-.37355237-1.40181858.01218142-.38573379.3857338-.39115363 1.00943969-.01218142 1.40181858l.293.293-.293.293c-.25995658.25107447-.3642126.62287789-.27269716.9725073.09151544.3496295.3645604.6226744.71418984.7141899.34962943.0915154.72143285-.0127406.97250732-.2726972l.293-.293.293.293c.18749273.1875494.44180519.2929434.707.293z"/><path id="Shape" d="m10.707 15.293c-.3904999-.3903819-1.02350015-.3903819-1.414 0l-.293.293-.293-.293c-.25107447-.2599566-.62287789-.3642126-.97250732-.2726972-.34962944.0915155-.6226744.3645604-.71418984.7141899-.09151544.3496294.01274058.7214328.27269716.9725073l.293.293-.293.293c-.25995658.2510745-.3642126.6228779-.27269716.9725073.09151544.3496295.3645604.6226744.71418984.7141899.34962943.0915154.72143285-.0127406.97250732-.2726972l.293-.293.293.293c.39237889.3789722 1.0160848.3735524 1.4018186-.0121814s.3911536-1.0094397.0121814-1.4018186l-.293-.293.293-.293c.3903819-.3904999.3903819-1.0235001 0-1.414z"/></g></g></g></svg>