<svg height="512" viewBox="0 0 58 60" width="512" xmlns="http://www.w3.org/2000/svg"><g id="Page-1" fill="none" fill-rule="evenodd"><g id="008---Circular-Box" fill-rule="nonzero" transform="translate(-1)"><circle id="Oval" cx="30" cy="30" fill="#3b97d3" r="29"/><path id="Shape" d="m34 1.28v57.44c-2.6535996.373339-5.3464004.373339-8 0v-57.44c2.6535996-.37333896 5.3464004-.37333896 8 0z" fill="#f3d55b"/><path id="Shape" d="m59 30c.0038673 2.3593062-.2815964 4.7101838-.85 7h-56.3c-.56840359-2.2898162-.8538673-4.6406938-.85-7 0-.34.01-.67.03-1h57.94c.02.33.03.66.03 1z" fill="#f3d55b"/><path id="Shape" d="m5.5 26c-.06717731.0002341-.13419929-.0064681-.2-.02-.54049282-.1112956-.88866962-.6393787-.778-1.18 1.87079997-9.0649823 8.4027746-16.46106342 17.167-19.438.3407085-.12361033.7216315-.053193.9956323.18405236.2740009.23724536.3981844.60417772.3245831.95906455-.0736013.35488684-.333465.64217021-.6792154.75088309-8.0904683 2.7487594-14.12058675 9.575969-15.849 17.944-.09512857.4660347-.50535578.8005727-.981.8z" fill="#9fc9d3"/><path id="Shape" d="m38.027 54.679c-.4907586.0018407-.9103269-.3527164-.9903627-.8369082s.2031168-.9549071.6683627-1.1110918c6.0357282-2.0748846 11.0095888-6.4465064 13.842-12.166.2441099-.4970563.8449437-.7021099 1.342-.458s.7021099.8449437.458 1.342c-3.0695047 6.1950308-8.4583655 10.929553-14.997 13.176-.1040469.0353133-.2131247.0535492-.323.054z" fill="#9fc9d3"/><g fill="#ff5364"><path id="Shape" d="m4.707 7.293c-.39049985-.39038194-1.02350015-.39038194-1.414 0l-.293.293-.293-.293c-.25107447-.25995658-.62287789-.3642126-.97250732-.27269716-.34962944.09151544-.6226744.3645604-.71418984.71418984-.09151544.34962943.01274058.72143285.27269716.97250732l.293.293-.293.293c-.25995658.25107447-.3642126.62287789-.27269716.9725073.09151544.3496295.3645604.6226744.71418984.7141899.34962943.0915154.72143285-.0127406.97250732-.2726972l.293-.293.293.293c.25107447.2599566.62287789.3642126.97250732.2726972.34962944-.0915155.6226744-.3645604.71418984-.7141899.09151544-.34962941-.01274058-.72143283-.27269716-.9725073l-.293-.293.293-.293c.39038194-.39049985.39038194-1.02350015 0-1.414z"/><path id="Shape" d="m7.293 3.707c.39237889.37897221 1.01608478.37355237 1.40181858-.01218142.38573379-.3857338.39115363-1.00943969.01218142-1.40181858l-.293-.293.293-.293c.37897221-.39237889.37355237-1.01608478-.01218142-1.40181857-.3857338-.3857338-1.00943969-.39115364-1.40181858-.01218143l-.293.293-.293-.293c-.39237889-.37897221-1.01608478-.37355237-1.40181858.01218143-.38573379.38573379-.39115363 1.00943968-.01218142 1.40181857l.293.293-.293.293c-.25995658.25107447-.3642126.62287789-.27269716.97250732.09151544.34962944.3645604.6226744.71418984.71418984.34962943.09151544.72143285-.01274058.97250732-.27269716l.293-.293z"/><path id="Shape" d="m4.707 50.293c-.39049985-.3903819-1.02350015-.3903819-1.414 0l-.293.293-.293-.293c-.39237889-.3789722-1.01608478-.3735524-1.40181858.0121814-.38573379.3857338-.39115363 1.0094397-.01218142 1.4018186l.293.293-.293.293c-.25995658.2510745-.3642126.6228779-.27269716.9725073.09151544.3496295.3645604.6226744.71418984.7141899.34962943.0915154.72143285-.0127406.97250732-.2726972l.293-.293.293.293c.25107447.2599566.62287789.3642126.97250732.2726972.34962944-.0915155.6226744-.3645604.71418984-.7141899.09151544-.3496294-.01274058-.7214328-.27269716-.9725073l-.293-.293.293-.293c.39038194-.3904999.39038194-1.0235001 0-1.414z"/><path id="Shape" d="m10.707 56.293c-.3904999-.3903819-1.02350015-.3903819-1.414 0l-.293.293-.293-.293c-.25107447-.2599566-.62287789-.3642126-.97250732-.2726972-.34962944.0915155-.6226744.3645604-.71418984.7141899-.09151544.3496294.01274058.7214328.27269716.9725073l.293.293-.293.293c-.25995658.2510745-.3642126.6228779-.27269716.9725073.09151544.3496295.3645604.6226744.71418984.7141899.34962943.0915154.72143285-.0127406.97250732-.2726972l.293-.293.293.293c.39237889.3789722 1.0160848.3735524 1.4018186-.0121814s.3911536-1.0094397.0121814-1.4018186l-.293-.293.293-.293c.3903819-.3904999.3903819-1.0235001 0-1.414z"/><path id="Shape" d="m58.707 50.293c-.3904999-.3903819-1.0235001-.3903819-1.414 0l-.293.293-.293-.293c-.3923789-.3789722-1.0160848-.3735524-1.4018186.0121814s-.3911536 1.0094397-.0121814 1.4018186l.293.293-.293.293c-.2599566.2510745-.3642126.6228779-.2726972.9725073.0915155.3496295.3645604.6226744.7141899.7141899.3496294.0915154.7214328-.0127406.9725073-.2726972l.293-.293.293.293c.3923789.3789722 1.0160848.3735524 1.4018186-.0121814s.3911536-1.0094397.0121814-1.4018186l-.293-.293.293-.293c.3903819-.3904999.3903819-1.0235001 0-1.414z"/><path id="Shape" d="m52.707 56.293c-.3904999-.3903819-1.0235001-.3903819-1.414 0l-.293.293-.293-.293c-.3923789-.3789722-1.0160848-.3735524-1.4018186.0121814s-.3911536 1.0094397-.0121814 1.4018186l.293.293-.293.293c-.2599566.2510745-.3642126.6228779-.2726972.9725073.0915155.3496295.3645604.6226744.7141899.7141899.3496294.0915154.7214328-.0127406.9725073-.2726972l.293-.293.293.293c.3923789.3789722 1.0160848.3735524 1.4018186-.0121814s.3911536-1.0094397.0121814-1.4018186l-.293-.293.293-.293c.3903819-.3904999.3903819-1.0235001 0-1.414z"/><path id="Shape" d="m58.414 9 .293-.293c.2599566-.25107447.3642126-.62287789.2726972-.97250732-.0915155-.34962944-.3645604-.6226744-.7141899-.71418984-.3496294-.09151544-.7214328.01274058-.9725073.27269716l-.293.293-.293-.293c-.2510745-.25995658-.6228779-.3642126-.9725073-.27269716-.3496295.09151544-.6226744.3645604-.7141899.71418984-.0915154.34962943.0127406.72143285.2726972.97250732l.293.293-.293.293c-.2599566.25107447-.3642126.62287789-.2726972.9725073.0915155.3496295.3645604.6226744.7141899.7141899.3496294.0915154.7214328-.0127406.9725073-.2726972l.293-.293.293.293c.3923789.3789722 1.0160848.3735524 1.4018186-.0121814s.3911536-1.00943971.0121814-1.4018186z"/><path id="Shape" d="m54.707 2.293-.293-.293.293-.293c.3789722-.39237889.3735524-1.01608478-.0121814-1.40181857-.3857338-.3857338-1.0094397-.39115364-1.4018186-.01218143l-.293.293-.293-.293c-.3923789-.37897221-1.0160848-.37355237-1.4018186.01218143-.3857338.38573379-.3911536 1.00943968-.0121814 1.40181857l.293.293-.293.293c-.2599566.25107447-.3642126.62287789-.2726972.97250732.0915155.34962944.3645604.6226744.7141899.71418984.3496294.09151544.7214328-.01274058.9725073-.27269716l.293-.293.293.293c.3923789.37897221 1.0160848.37355237 1.4018186-.01218142.3857338-.3857338.3911536-1.00943969.0121814-1.40181858z"/></g><path id="Shape" d="m31 37c6 1 8 9 8 9l2-5 5 2c-.5286673-4.0408815-3.2004238-7.4803137-6.985-8.992-1.83-.708-5.015-1.708-5.015-1.708z" fill="#f29c1f"/><path id="Shape" d="m29 37c-6 1-8 9-8 9l-2-5-5 2c.5286673-4.0408815 3.2004238-7.4803137 6.985-8.992 1.83-.708 5.015-1.708 5.015-1.708z" fill="#f29c1f"/><path id="Shape" d="m30 29s-1.921-11.387-11.378-11.979c-.5388817-.0271906-1.0745642.0975479-1.546.36-1.637.886-5.416 3.336-6.866 7.69-.39165 1.160835-.23143898 2.4369987.435 3.465 2 3.072 7.222 8.713 14.355 5.5z" fill="#f0c419"/><path id="Shape" d="m25.27 31.587c-4.311-2.619-5.745-7.894-6.14-9.844-.0345128-.1735199.0252421-.35236.1571323-.4702806.1318903-.1179205.3162776-.1573633.4848677-.1037194 4.648 1.31 6.653 6.9 7.118 8.438" fill="#f29c1f"/><path id="Shape" d="m35 34.037c1.7852176.8512795 3.7867608 1.1407012 5.74.83 4.17-.7 7.2-4.17 8.61-6.34.6735794-1.0270534.8359204-2.3073328.44-3.47-1.45-4.36-5.23-6.81-6.87-7.69-.4673123-.2674341-1.0025599-.3925569-1.54-.36-6.93.43-9.82 6.68-10.86 9.99-.21686.655603-.3905648 1.3247006-.52 2.003z" fill="#f0c419"/><path id="Shape" d="m33.11 29.607c.465-1.538 2.471-7.128 7.119-8.438.1685901-.0536439.3529774-.0142011.4848677.1037194.1318902.1179206.1916451.2967607.1571323.4702806-.4 1.95-1.829 7.225-6.141 9.844" fill="#f29c1f"/><path id="Shape" d="m35 33v2c-.0032948 1.1032019-.8967981 1.9967052-2 2h-6c-1.1032019-.0032948-1.9967052-.8967981-2-2v-2c0-2.209139 1.790861-4 4-4h2c2.209139 0 4 1.790861 4 4z" fill="#f3d55b"/></g></g></svg>