<svg height="512" viewBox="0 0 60 59" width="512" xmlns="http://www.w3.org/2000/svg"><g id="Page-1" fill="none" fill-rule="evenodd"><g id="009---Gift-Bag" fill-rule="nonzero" transform="translate(-1)"><path id="Shape" d="m46 18c2 0 7-1 12-9l-5 1v-5s-3.78 5.046-7.1 5.21l-11.9.975v9.815z" fill="#c03a2b"/><path id="Shape" d="m16 18c-2 0-7-1-12-9l5 1v-5s3.78 5.046 7.105 5.21l11.9.975v9.815z" fill="#c03a2b"/><path id="Shape" d="m12 18h38c.5522847 0 1 .4477153 1 1v3h-40v-3c0-.5522847.4477153-1 1-1z" fill="#f29c1f"/><path id="Shape" d="m51 22 4.963 32.464c.1546593 1.1437647-.1922674 2.2985873-.9516448 3.1677611-.7593773.8691738-1.8571814 1.3679719-3.0113552 1.3682389h-42c-1.15434824.0000215-2.25242537-.4986522-3.0120262-1.3678625-.75960083-.8692102-1.10665646-2.0241999-.9519738-3.1681375l4.964-32.464z" fill="#f0c419"/><path id="Shape" d="m31 42c-4.9682782-.0055111-8.9944889-4.0317218-9-9v-6h2v6c.0000001 3.8659932 3.1340068 6.9999999 7 6.9999999s6.9999999-3.1340067 7-6.9999999v-6h2v6c-.0055111 4.9682782-4.0317218 8.9944889-9 9z" fill="#f3d55b"/><path id="Shape" d="m24 28h-3c-.5522847 0-1-.4477153-1-1s.4477153-1 1-1h3c.5522847 0 1 .4477153 1 1s-.4477153 1-1 1z" fill="#f29c1f"/><path id="Shape" d="m41 28h-3c-.5522847 0-1-.4477153-1-1s.4477153-1 1-1h3c.5522847 0 1 .4477153 1 1s-.4477153 1-1 1z" fill="#f29c1f"/><path id="Shape" d="m13 56h-3c-.55228475 0-1-.4477153-1-1s.44771525-1 1-1h3c.5522847 0 1 .4477153 1 1s-.4477153 1-1 1z" fill="#f29c1f"/><path id="Shape" d="m45 56h-28c-.5522847 0-1-.4477153-1-1s.4477153-1 1-1h28c.5522847 0 1 .4477153 1 1s-.4477153 1-1 1z" fill="#f29c1f"/><path id="Shape" d="m52 56h-3c-.5522847 0-1-.4477153-1-1s.4477153-1 1-1h3c.5522847 0 1 .4477153 1 1s-.4477153 1-1 1z" fill="#f29c1f"/><g fill="#f3d55b"><path id="Shape" d="m60.707 14.293c-.3904999-.3903819-1.0235001-.3903819-1.414 0l-.293.293-.293-.293c-.3923789-.3789722-1.0160848-.3735524-1.4018186.0121814s-.3911536 1.0094397-.0121814 1.4018186l.293.293-.293.293c-.2599566.2510745-.3642126.6228779-.2726972.9725073.0915155.3496295.3645604.6226744.7141899.7141899.3496294.0915154.7214328-.0127406.9725073-.2726972l.293-.293.293.293c.3923789.3789722 1.0160848.3735524 1.4018186-.0121814s.3911536-1.0094397.0121814-1.4018186l-.293-.293.293-.293c.3903819-.3904999.3903819-1.0235001 0-1.414z"/><path id="Shape" d="m57.707 21.293c-.3904999-.3903819-1.0235001-.3903819-1.414 0l-.293.293-.293-.293c-.3923789-.3789722-1.0160848-.3735524-1.4018186.0121814s-.3911536 1.0094397-.0121814 1.4018186l.293.293-.293.293c-.2599566.2510745-.3642126.6228779-.2726972.9725073.0915155.3496295.3645604.6226744.7141899.7141899.3496294.0915154.7214328-.0127406.9725073-.2726972l.293-.293.293.293c.3923789.3789722 1.0160848.3735524 1.4018186-.0121814s.3911536-1.0094397.0121814-1.4018186l-.293-.293.293-.293c.3903819-.3904999.3903819-1.0235001 0-1.414z"/><path id="Shape" d="m60.414 2 .293-.293c.3789722-.39237889.3735524-1.01608478-.0121814-1.40181857-.3857338-.3857338-1.0094397-.39115364-1.4018186-.01218143l-.293.293-.293-.293c-.3923789-.37897221-1.0160848-.37355237-1.4018186.01218143-.3857338.38573379-.3911536 1.00943968-.0121814 1.40181857l.293.293-.293.293c-.2599566.25107447-.3642126.62287789-.2726972.97250732.0915155.34962944.3645604.6226744.7141899.71418984.3496294.09151544.7214328-.01274058.9725073-.27269716l.293-.293.293.293c.3923789.37897221 1.0160848.37355237 1.4018186-.01218142.3857338-.3857338.3911536-1.00943969.0121814-1.40181858z"/><path id="Shape" d="m4 18c.4043959-.0000863.76893405-.2437275.92367798-.6173454.15474393-.373618.06922994-.8036603-.21667798-1.0896546l-.293-.293.293-.293c.37897221-.3923789.37355237-1.0160848-.01218142-1.4018186-.3857338-.3857338-1.00943969-.3911536-1.40181858-.0121814l-.293.293-.293-.293c-.25107447-.2599566-.62287789-.3642126-.97250732-.2726972-.34962944.0915155-.6226744.3645604-.71418984.7141899-.09151544.3496294.01274058.7214328.27269716.9725073l.293.293-.293.293c-.25995658.2510745-.3642126.6228779-.27269716.9725073.09151544.3496295.3645604.6226744.71418984.7141899.34962943.0915154.72143285-.0127406.97250732-.2726972l.293-.293.293.293c.18749273.1875494.44180519.2929434.707.293z"/><path id="Shape" d="m7.707 21.293c-.39049985-.3903819-1.02350015-.3903819-1.414 0l-.293.293-.293-.293c-.39237889-.3789722-1.01608478-.3735524-1.40181858.0121814-.38573379.3857338-.39115363 1.0094397-.01218142 1.4018186l.293.293-.293.293c-.25995658.2510745-.3642126.6228779-.27269716.9725073.09151544.3496295.3645604.6226744.71418984.7141899.34962943.0915154.72143285-.0127406.97250732-.2726972l.293-.293.293.293c.25107447.2599566.62287789.3642126.97250732.2726972.34962944-.0915155.6226744-.3645604.71418984-.7141899.09151544-.3496294-.01274058-.7214328-.27269716-.9725073l-.293-.293.293-.293c.39038194-.3904999.39038194-1.0235001 0-1.414z"/><path id="Shape" d="m1.293 3.707c.39049985.39038194 1.02350015.39038194 1.414 0l.293-.293.293.293c.39237889.37897221 1.01608478.37355237 1.40181858-.01218142.38573379-.3857338.39115363-1.00943969.01218142-1.40181858l-.293-.293.293-.293c.37897221-.39237889.37355237-1.01608478-.01218142-1.40181857-.3857338-.3857338-1.00943969-.39115364-1.40181858-.01218143l-.293.293-.293-.293c-.39237889-.37897221-1.01608478-.37355237-1.40181858.01218143-.38573379.38573379-.39115363 1.00943968-.01218142 1.40181857l.293.293-.293.293c-.39038194.39049985-.39038194 1.02350015 0 1.414z"/></g><path id="Shape" d="m29 18c-5.528 0-12.764-1.81-15.42-6.1-.5952414-.9828381-.7373945-2.17473745-.39-3.27 1.1017291-3.09749054 3.3003354-5.6838769 6.18-7.27.4203076-.246349.9034356-.3645242 1.39-.34 5.96.39 8.59 5.78 9.64 8.98z" fill="#e64c3c"/><path id="Shape" d="m26 15.24c-3.47-2.74-4.65-7.74-4.99-9.64-.0406677-.16106835.0055788-.33168658.1220197-.45017029s.2862291-.16769023.4479803-.12982971c2.86.92 4.6 3.94 5.53 6.22z" fill="#c03a2b"/><path id="Shape" d="m31.6 10c1.05-3.2 3.68-8.59 9.64-8.98.4865644-.0245242.9696924.093651 1.39.34 2.8796646 1.5861231 5.0782709 4.17250946 6.18 7.27.3469953 1.09530024.2048622 2.2870314-.39 3.27-2.65 4.281-10.028 6.1-15.42 6.1z" fill="#e64c3c"/><path id="Shape" d="m34.89 11.24c.93-2.28 2.67-5.3 5.53-6.22.1617512-.03786052.3315394.011346.4479803.12982971s.1626874.28910194.1220197.45017029c-.34 1.9-1.52 6.9-4.99 9.64z" fill="#c03a2b"/><path id="Shape" d="m36 14v2c-.0181881 1.0969474-.9030526 1.9818119-2 2-6.411 0-6.149.018-6.4-.04-.9283731-.194987-1.5948207-1.0113854-1.6-1.96v-2c0-2.209139 1.790861-4 4-4h2c2.209139 0 4 1.790861 4 4z" fill="#fb7b76"/></g></g></svg>