<svg height="512" viewBox="0 0 58 56" width="512" xmlns="http://www.w3.org/2000/svg"><g id="Page-1" fill="none" fill-rule="evenodd"><g id="010---Star-Shaped-Box" fill-rule="nonzero" transform="translate(-1 -1)"><path id="Shape" d="m30.712 51.405 15.188 5.469c.6501458.2300336 1.3717975.126191 1.9307068-.2778206s.8838302-1.0566914.8692932-1.7461794l-.445-16.388c-.0128485-.4755686.137092-.9412659.425-1.32l9.889-13.017c.4152698-.5464246.5356493-1.2619688.3220341-1.9141938-.2136151-.6522249-.733971-1.157917-1.3920341-1.3528062l-15.509-4.632c-.4636477-.1383872-.8652833-.4326374-1.137-.833l-9.115-13.472c-.3907905-.57621829-1.0417639-.92129054-1.738-.92129054s-1.3472095.34507225-1.738.92129054l-9.115 13.472c-.2717167.4003626-.6733523.6946128-1.137.833l-15.51 4.632c-.65806308.1948892-1.17841898.7005813-1.39203413 1.3528062-.21361514.652225-.09323565 1.3677692.32203413 1.9141938l9.889 13.017c.287908.3787341.4378485.8444314.425 1.32l-.444 16.388c-.014537.689488.3103839 1.3421678.8692932 1.7461794s1.280561.5078542 1.9307068.2778206l15.185-5.469c.4610846-.1665678.9659154-.1665678 1.427 0z" fill="#e64c3c"/><path id="Shape" d="m54.1 30-4.55 6h-39.1l-4.55-6z" fill="#f3d55b"/><path id="Shape" d="m33 3.78v48.45l-2.29-.82c-.4580754-.1699656-.9619246-.1699656-1.42 0l-2.29.82v-48.45l1.26-1.86c.3905181-.57792777 1.042501-.92424492 1.74-.92424492s1.3494819.34631715 1.74.92424492z" fill="#f3d55b"/><path id="Shape" d="m16.707 8.293c-.3904999-.39038194-1.0235001-.39038194-1.414 0l-.293.293-.293-.293c-.3923789-.37897221-1.0160848-.37355237-1.4018186.01218142-.3857338.3857338-.3911536 1.00943969-.0121814 1.40181858l.293.293-.293.293c-.2599566.2510745-.3642126.6228779-.2726972.9725073.0915155.3496295.3645604.6226744.7141899.7141899.3496294.0915154.7214328-.0127406.9725073-.2726972l.293-.293.293.293c.3923789.3789722 1.0160848.3735524 1.4018186-.0121814s.3911536-1.0094397.0121814-1.4018186l-.293-.293.293-.293c.3903819-.39049985.3903819-1.02350015 0-1.414z" fill="#f0c419"/><path id="Shape" d="m4 40c.4043959-.0000863.76893405-.2437275.92367798-.6173454.15474393-.373618.06922994-.8036603-.21667798-1.0896546l-.293-.293.293-.293c.37897221-.3923789.37355237-1.0160848-.01218142-1.4018186-.3857338-.3857338-1.00943969-.3911536-1.40181858-.0121814l-.293.293-.293-.293c-.39237889-.3789722-1.01608478-.3735524-1.40181858.0121814-.38573379.3857338-.39115363 1.0094397-.01218142 1.4018186l.293.293-.293.293c-.25995658.2510745-.3642126.6228779-.27269716.9725073.09151544.3496295.3645604.6226744.71418984.7141899.34962943.0915154.72143285-.0127406.97250732-.2726972l.293-.293.293.293c.18749273.1875494.44180519.2929434.707.293z" fill="#f0c419"/><path id="Shape" d="m7.707 44.293c-.39049985-.3903819-1.02350015-.3903819-1.414 0l-.293.293-.293-.293c-.39237889-.3789722-1.01608478-.3735524-1.40181858.0121814-.38573379.3857338-.39115363 1.0094397-.01218142 1.4018186l.293.293-.293.293c-.25995658.2510745-.3642126.6228779-.27269716.9725073.09151544.3496295.3645604.6226744.71418984.7141899.34962943.0915154.72143285-.0127406.97250732-.2726972l.293-.293.293.293c.25107447.2599566.62287789.3642126.97250732.2726972.34962944-.0915155.6226744-.3645604.71418984-.7141899.09151544-.3496294-.01274058-.7214328-.27269716-.9725073l-.293-.293.293-.293c.39038194-.3904999.39038194-1.0235001 0-1.414z" fill="#955ba5"/><path id="Shape" d="m58.414 38 .293-.293c.3789722-.3923789.3735524-1.0160848-.0121814-1.4018186s-1.0094397-.3911536-1.4018186-.0121814l-.293.293-.293-.293c-.3923789-.3789722-1.0160848-.3735524-1.4018186.0121814s-.3911536 1.0094397-.0121814 1.4018186l.293.293-.293.293c-.2599566.2510745-.3642126.6228779-.2726972.9725073.0915155.3496295.3645604.6226744.7141899.7141899.3496294.0915154.7214328-.0127406.9725073-.2726972l.293-.293.293.293c.3923789.3789722 1.0160848.3735524 1.4018186-.0121814s.3911536-1.0094397.0121814-1.4018186z" fill="#f0c419"/><path id="Shape" d="m55.707 44.293c-.3904999-.3903819-1.0235001-.3903819-1.414 0l-.293.293-.293-.293c-.3923789-.3789722-1.0160848-.3735524-1.4018186.0121814s-.3911536 1.0094397-.0121814 1.4018186l.293.293-.293.293c-.2599566.2510745-.3642126.6228779-.2726972.9725073.0915155.3496295.3645604.6226744.7141899.7141899.3496294.0915154.7214328-.0127406.9725073-.2726972l.293-.293.293.293c.3923789.3789722 1.0160848.3735524 1.4018186-.0121814s.3911536-1.0094397.0121814-1.4018186l-.293-.293.293-.293c.3903819-.3904999.3903819-1.0235001 0-1.414z" fill="#955ba5"/><path id="Shape" d="m9.707 4.293c-.39049985-.39038194-1.02350015-.39038194-1.414 0l-.293.293-.293-.293c-.39237889-.37897221-1.01608478-.37355237-1.40181858.01218142-.38573379.3857338-.39115363 1.00943969-.01218142 1.40181858l.293.293-.293.293c-.25995658.25107447-.3642126.62287789-.27269716.97250732.09151544.34962944.3645604.6226744.71418984.71418984.34962943.09151544.72143285-.01274058.97250732-.27269716l.293-.293.293.293c.39237889.37897221 1.01608478.37355237 1.40181858-.01218142.38573382-.3857338.39115362-1.00943969.01218142-1.40181858l-.293-.293.293-.293c.3903819-.39049985.3903819-1.02350015 0-1.414z" fill="#955ba5"/><path id="Shape" d="m7.707 12.293c-.39049985-.3903819-1.02350015-.3903819-1.414 0l-.293.293-.293-.293c-.39237889-.3789722-1.01608478-.3735524-1.40181858.0121814-.38573379.3857338-.39115363 1.0094397-.01218142 1.4018186l.293.293-.293.293c-.25995658.2510745-.3642126.6228779-.27269716.9725073.09151544.3496295.3645604.6226744.71418984.7141899.34962943.0915154.72143285-.0127406.97250732-.2726972l.293-.293.293.293c.25107447.2599566.62287789.3642126.97250732.2726972.34962944-.0915155.6226744-.3645604.71418984-.7141899.09151544-.3496294-.01274058-.7214328-.27269716-.9725073l-.293-.293.293-.293c.39038194-.3904999.39038194-1.0235001 0-1.414z" fill="#f0c419"/><path id="Shape" d="m46.707 8.293c-.3904999-.39038194-1.0235001-.39038194-1.414 0l-.293.293-.293-.293c-.3923789-.37897221-1.0160848-.37355237-1.4018186.01218142-.3857338.3857338-.3911536 1.00943969-.0121814 1.40181858l.293.293-.293.293c-.2599566.2510745-.3642126.6228779-.2726972.9725073.0915155.3496295.3645604.6226744.7141899.7141899.3496294.0915154.7214328-.0127406.9725073-.2726972l.293-.293.293.293c.3923789.3789722 1.0160848.3735524 1.4018186-.0121814s.3911536-1.0094397.0121814-1.4018186l-.293-.293.293-.293c.3903819-.39049985.3903819-1.02350015 0-1.414z" fill="#f0c419"/><path id="Shape" d="m52.293 7.707c.3923789.37897221 1.0160848.37355237 1.4018186-.01218142.3857338-.3857338.3911536-1.00943969.0121814-1.40181858l-.293-.293.293-.293c.2599566-.25107447.3642126-.62287789.2726972-.97250732-.0915155-.34962944-.3645604-.6226744-.7141899-.71418984-.3496294-.09151544-.7214328.01274058-.9725073.27269716l-.293.293-.293-.293c-.3923789-.37897221-1.0160848-.37355237-1.4018186.01218142-.3857338.3857338-.3911536 1.00943969-.0121814 1.40181858l.293.293-.293.293c-.2599566.25107447-.3642126.62287789-.2726972.97250732.0915155.34962944.3645604.6226744.7141899.71418984.3496294.09151544.7214328-.01274058.9725073-.27269716l.293-.293z" fill="#955ba5"/><path id="Shape" d="m53.707 12.293c-.3923789-.3789722-1.0160848-.3735524-1.4018186.0121814s-.3911536 1.0094397-.0121814 1.4018186l.293.293-.293.293c-.2599566.2510745-.3642126.6228779-.2726972.9725073.0915155.3496295.3645604.6226744.7141899.7141899.3496294.0915154.7214328-.0127406.9725073-.2726972l.293-.293.293.293c.3923789.3789722 1.0160848.3735524 1.4018186-.0121814s.3911536-1.0094397.0121814-1.4018186l-.293-.293.293-.293c.3789722-.3923789.3735524-1.0160848-.0121814-1.4018186s-1.0094397-.3911536-1.4018186-.0121814l-.293.293z" fill="#f0c419"/><path id="Shape" d="m30 36c-6 1-7 9-7 9l-2-4.83-5 1.83c.5768054-3.8337373 3.0464353-7.1188075 6.569-8.738 2.4431769-.4847998 4.9304117-.7123746 7.421-.679z" fill="#f29c1f"/><path id="Shape" d="m30 36c6 1 7 9 7 9l2-4.83 5 1.83c-.5768054-3.8337373-3.0464353-7.1188075-6.569-8.738-2.4431769-.4847998-4.9304117-.7123746-7.421-.679z" fill="#f29c1f"/><path id="Shape" d="m30 30.021s-1.633-9.521-9.672-10.021c-.4572733-.0229586-.9120003.0808604-1.314.3-2.6663288 1.3501209-4.7433644 3.633223-5.836 6.415-.3319635.9688711-.1952659 2.0369593.37 2.891 1.724 2.6 6.261 7.4 12.453 4.477z" fill="#f0c419"/><path id="Shape" d="m26.01 32.82c-4.19-2.3-5.6-6.67-6-8.31-.08-.32.29-.58.66-.49 4.42 1.04 5.67 5.24 6.21 6.91z" fill="#f29c1f"/><path id="Shape" d="m30 30.021s1.633-9.521 9.672-10.021c.4572733-.0229586.9120003.0808604 1.314.3 2.6663288 1.3501209 4.7433644 3.633223 5.836 6.415.3319635.9688711.1952659 2.0369593-.37 2.891-1.724 2.6-6.261 7.4-12.452 4.477z" fill="#f0c419"/><path id="Shape" d="m33.12 30.93c.54-1.67 1.79-5.87 6.21-6.91.37-.09.74.17.66.49-.4 1.64-1.81 6.01-6 8.31z" fill="#f29c1f"/><path id="Shape" d="m34 33v1.5c-.0314975.8542787-.7454673 1.5236254-1.6 1.5h-4.8c-.8545327.0236254-1.5685025-.6457213-1.6-1.5v-1.5c.026098-.822316.3780103-1.6005305.9782224-2.1632294.6002122-.5626989 1.3994892-.8637243 2.2217776-.8367706h1.6c.8222884-.0269537 1.6215654.2740717 2.2217776.8367706.6002121.5626989.9521244 1.3409134.9782224 2.1632294z" fill="#f3d55b"/></g></g></svg>