<svg height="512" viewBox="0 0 58 59" width="512" xmlns="http://www.w3.org/2000/svg"><g id="Page-1" fill="none" fill-rule="evenodd"><g id="011---Laptop-Gift" fill-rule="nonzero"><path id="Shape" d="m56 17v34h-54v-34c0-2.209139 1.790861-4 4-4h46c2.209139 0 4 1.790861 4 4z" fill="#84b5cb"/><path id="Shape" d="m15.64 51h-13.64v-34c0-2.209139 1.790861-4 4-4h32c1.33 9.58 1.21 30.25-22.36 38z" fill="#9fc9d3"/><path id="Shape" d="m15 17h28v20c0 1.1045695-.8954305 2-2 2h-24c-1.1045695 0-2-.8954305-2-2z" fill="#e64c3c"/><g fill="#ecf0f1"><path id="Shape" d="m6 20c-.55228475 0-1-.4477153-1-1v-2c0-.5522847.44771525-1 1-1s1 .4477153 1 1v2c0 .5522847-.44771525 1-1 1z"/><path id="Shape" d="m6 46c-.55228475 0-1-.4477153-1-1v-22c0-.5522847.44771525-1 1-1s1 .4477153 1 1v22c0 .5522847-.44771525 1-1 1z"/><path id="Shape" d="m52 20c-.5522847 0-1-.4477153-1-1v-2c0-.5522847.4477153-1 1-1s1 .4477153 1 1v2c0 .5522847-.4477153 1-1 1z"/><path id="Shape" d="m52 46c-.5522847 0-1-.4477153-1-1v-22c0-.5522847.4477153-1 1-1s1 .4477153 1 1v22c0 .5522847-.4477153 1-1 1z"/></g><path id="Shape" d="m9.707.293c-.39049985-.39038194-1.02350015-.39038194-1.414 0l-.293.293-.293-.293c-.39237889-.37897221-1.01608478-.37355237-1.40181858.01218143-.38573379.38573379-.39115363 1.00943968-.01218142 1.40181857l.293.293-.293.293c-.25995658.25107447-.3642126.62287789-.27269716.97250732.09151544.34962944.3645604.6226744.71418984.71418984.34962943.09151544.72143285-.01274058.97250732-.27269716l.293-.293.293.293c.39237889.37897221 1.01608478.37355237 1.40181858-.01218142.38573382-.3857338.39115362-1.00943969.01218142-1.40181858l-.293-.293.293-.293c.3903819-.39049985.3903819-1.02350015 0-1.414z" fill="#955ba5"/><path id="Shape" d="m5.707 6.293c-.39049985-.39038194-1.02350015-.39038194-1.414 0l-.293.293-.293-.293c-.39237889-.37897221-1.01608478-.37355237-1.40181858.01218142-.38573379.3857338-.39115363 1.00943969-.01218142 1.40181858l.293.293-.293.293c-.25995658.25107447-.3642126.62287789-.27269716.97250732.09151544.34962944.3645604.6226744.71418984.71418984.34962943.09151544.72143285-.01274058.97250732-.27269716l.293-.293.293.293c.25107447.25995658.62287789.3642126.97250732.27269716.34962944-.09151544.6226744-.3645604.71418984-.71418984.09151544-.34962943-.01274058-.72143285-.27269716-.97250732l-.293-.293.293-.293c.39038194-.39049985.39038194-1.02350015 0-1.414z" fill="#f0c419"/><path id="Shape" d="m51.707 2.293-.293-.293.293-.293c.3789722-.39237889.3735524-1.01608478-.0121814-1.40181857-.3857338-.3857338-1.0094397-.39115364-1.4018186-.01218143l-.293.293-.293-.293c-.3923789-.37897221-1.0160848-.37355237-1.4018186.01218143-.3857338.38573379-.3911536 1.00943968-.0121814 1.40181857l.293.293-.293.293c-.2599566.25107447-.3642126.62287789-.2726972.97250732.0915155.34962944.3645604.6226744.7141899.71418984.3496294.09151544.7214328-.01274058.9725073-.27269716l.293-.293.293.293c.3923789.37897221 1.0160848.37355237 1.4018186-.01218142.3857338-.3857338.3911536-1.00943969.0121814-1.40181858z" fill="#955ba5"/><path id="Shape" d="m55.414 8 .293-.293c.2599566-.25107447.3642126-.62287789.2726972-.97250732-.0915155-.34962944-.3645604-.6226744-.7141899-.71418984-.3496294-.09151544-.7214328.01274058-.9725073.27269716l-.293.293-.293-.293c-.3923789-.37897221-1.0160848-.37355237-1.4018186.01218142-.3857338.3857338-.3911536 1.00943969-.0121814 1.40181858l.293.293-.293.293c-.2599566.25107447-.3642126.62287789-.2726972.97250732.0915155.34962944.3645604.6226744.7141899.71418984.3496294.09151544.7214328-.01274058.9725073-.27269716l.293-.293.293.293c.3923789.3789722 1.0160848.3735524 1.4018186-.01218142.3857338-.3857338.3911536-1.00943969.0121814-1.40181858z" fill="#f0c419"/><path id="Shape" d="m52 59h-46c-3.3137085 0-6-2.6862915-6-6v-3c0-.5522847.44771525-1 1-1h56c.5522847 0 1 .4477153 1 1v3c0 3.3137085-2.6862915 6-6 6z" fill="#3b97d3"/><path id="Shape" d="m19 49h20v2c0 1.6568542-1.3431458 3-3 3h-14c-1.6568542 0-3-1.3431458-3-3z" fill="#2980ba"/><path id="Shape" d="m14 54h-3c-.5522847 0-1-.4477153-1-1s.4477153-1 1-1h3c.5522847 0 1 .4477153 1 1s-.4477153 1-1 1z" fill="#2980ba"/><circle id="Oval" cx="5" cy="53" fill="#f0c419" r="1"/><circle id="Oval" cx="8" cy="53" fill="#65ddb9" r="1"/><path id="Shape" d="m15 12h28c1.1045695 0 2 .8954305 2 2v4c0 .5522847-.4477153 1-1 1h-30c-.5522847 0-1-.4477153-1-1v-4c0-1.1045695.8954305-2 2-2z" fill="#e64c3c"/><path id="Shape" d="m39 12c2 0 8-1 9-6h-3l-2-3c-.8754219 1.64142559-2.363151 2.87113786-4.14 3.422l-8.37.578v5z" fill="#f29c1f"/><path id="Shape" d="m19 12c-2 0-8-1-9-6h3l2-3c.8754219 1.64142559 2.363151 2.87113786 4.14 3.422l8.37.578v5z" fill="#f29c1f"/><path id="Rectangle-path" d="m25 12h8v7h-8z" fill="#f0c419"/><path id="Shape" d="m29 7s-1.706-4.453-5.907-5.893c-.6758114-.23131085-1.4237482-.08286829-1.96.389-1.5331413 1.49396709-2.76036 3.27246616-3.613 5.236-.3666641.79180958-.1776622 1.72993907.467 2.318 2.5907859 1.9618916 5.7635919 3.0003668 9.013 2.95z" fill="#f0c419"/><path id="Shape" d="m29 7s1.706-4.453 5.907-5.893c.6758114-.23131085 1.4237482-.08286829 1.96.389 1.5331413 1.49396709 2.76036 3.27246616 3.613 5.236.3666641.79180958.1776622 1.72993907-.467 2.318-2.5907859 1.9618916-5.7635919 3.0003668-9.013 2.95z" fill="#f0c419"/><path id="Shape" d="m25.956 8.5-2.51-1.669c-.4600532-.30596576-.5849657-.9269468-.279-1.38699999.3059658-.46005319.9269468-.58496575 1.387-.27900001l2.51 1.67c.4564596.30723971.5789569.92551757.274126 1.38358927s-.9224549.58382436-1.382126.28141073z" fill="#f29c1f"/><path id="Shape" d="m30.658 8.224c-.1471325-.22077183-.2005034-.49096317-.1483641-.75109712.0521394-.26013395.2055148-.4888866.4263641-.63590288l2.51-1.67c.4600532-.30596572 1.0810342-.18105316 1.387.27900002.3059657.46005319.1810532 1.08103422-.279 1.38699998l-2.51 1.667c-.4590308.30610387-1.0792474.18259755-1.386-.276z" fill="#f29c1f"/><path id="Shape" d="m28 7h2c1.1045695 0 2 .8954305 2 2v2c0 .5522847-.4477153 1-1 1h-4c-.5522847 0-1-.4477153-1-1v-2c0-1.1045695.8954305-2 2-2z" fill="#f3d55b"/><path id="Rectangle-path" d="m15 19h28v3h-28z" fill="#c03a2b"/><path id="Rectangle-path" d="m26 19h6v20h-6z" fill="#f29c1f"/></g></g></svg>