<svg height="512" viewBox="0 0 59 60" width="512" xmlns="http://www.w3.org/2000/svg"><g id="Page-1" fill="none" fill-rule="evenodd"><g id="012---Gift-Box" fill-rule="nonzero" transform="translate(-1)"><path id="Shape" d="m5.077 47c-1.07414378.0206811-2.11145338-.3915986-2.87833582-1.1439973-.76688243-.7523988-1.19886325-1.7816599-1.19866418-2.8560027v-38c0-2.209139 1.790861-4 4-4h40c2.209139 0 4 1.790861 4 4v7.46z" fill="#c03a2b"/><g fill="#e64c3c"><path id="Shape" d="m5 8c-.55228475 0-1-.44771525-1-1v-2c0-.55228475.44771525-1 1-1s1 .44771525 1 1v2c0 .55228475-.44771525 1-1 1z"/><path id="Shape" d="m5 27c-.55228475 0-1-.4477153-1-1v-15c0-.5522847.44771525-1 1-1s1 .4477153 1 1v15c0 .5522847-.44771525 1-1 1z"/><rect id="Rectangle-path" height="46" rx="4" transform="matrix(.985 .175 -.175 .985 6.236 -5.093)" width="48" x="7.981" y="9.791"/></g><path id="Shape" d="m31.892 56.136 2.763-15.536 3.08-17.319 2.212-12.435-7.876-1.4-2.214 12.444-3.078 17.309-2.764 15.536z" fill="#f3d55b"/><path id="Shape" d="m55.961 35.024-4.894-.87-37.481-6.667-4.884-.868-1.401 7.876 10.565 1.879 26.129 4.648 10.565 1.879z" fill="#f3d55b"/><path id="Shape" d="m55.707 6.293c-.3904999-.39038194-1.0235001-.39038194-1.414 0l-.293.293-.293-.293c-.3923789-.37897221-1.0160848-.37355237-1.4018186.01218142-.3857338.3857338-.3911536 1.00943969-.0121814 1.40181858l.293.293-.293.293c-.2599566.25107447-.3642126.62287789-.2726972.97250732.0915155.34962944.3645604.6226744.7141899.71418984.3496294.09151544.7214328-.01274058.9725073-.27269716l.293-.293.293.293c.3923789.3789722 1.0160848.3735524 1.4018186-.01218142.3857338-.3857338.3911536-1.00943969.0121814-1.40181858l-.293-.293.293-.293c.3903819-.39049985.3903819-1.02350015 0-1.414z" fill="#f0c419"/><path id="Shape" d="m11.707 56.293c-.3904999-.3903819-1.0235001-.3903819-1.414 0l-.293.293-.293-.293c-.39237889-.3789722-1.01608478-.3735524-1.40181858.0121814-.38573379.3857338-.39115363 1.0094397-.01218142 1.4018186l.293.293-.293.293c-.25995658.2510745-.3642126.6228779-.27269716.9725073.09151544.3496295.3645604.6226744.71418984.7141899.34962943.0915154.72143285-.0127406.97250732-.2726972l.293-.293.293.293c.3923789.3789722 1.0160848.3735524 1.4018186-.0121814s.3911536-1.0094397.0121814-1.4018186l-.293-.293.293-.293c.3903819-.3904999.3903819-1.0235001 0-1.414z" fill="#955ba5"/><path id="Shape" d="m4.707 53.293c-.39049985-.3903819-1.02350015-.3903819-1.414 0l-.293.293-.293-.293c-.39237889-.3789722-1.01608478-.3735524-1.40181858.0121814-.38573379.3857338-.39115363 1.0094397-.01218142 1.4018186l.293.293-.293.293c-.25995658.2510745-.3642126.6228779-.27269716.9725073.09151544.3496295.3645604.6226744.71418984.7141899.34962943.0915154.72143285-.0127406.97250732-.2726972l.293-.293.293.293c.25107447.2599566.62287789.3642126.97250732.2726972.34962944-.0915155.6226744-.3645604.71418984-.7141899.09151544-.3496294-.01274058-.7214328-.27269716-.9725073l-.293-.293.293-.293c.39038194-.3904999.39038194-1.0235001 0-1.414z" fill="#f0c419"/><path id="Shape" d="m59.414 2 .293-.293c.3789722-.39237889.3735524-1.01608478-.0121814-1.40181857-.3857338-.3857338-1.0094397-.39115364-1.4018186-.01218143l-.293.293-.293-.293c-.3923789-.37897221-1.0160848-.37355237-1.4018186.01218143-.3857338.38573379-.3911536 1.00943968-.0121814 1.40181857l.293.293-.293.293c-.2599566.25107447-.3642126.62287789-.2726972.97250732.0915155.34962944.3645604.6226744.7141899.71418984.3496294.09151544.7214328-.01274058.9725073-.27269716l.293-.293.293.293c.3923789.37897221 1.0160848.37355237 1.4018186-.01218142.3857338-.3857338.3911536-1.00943969.0121814-1.40181858z" fill="#955ba5"/><path id="Shape" d="m29.946 38.523c-6.082-.066-9.452 7.46-9.452 7.46l-1.094-5.273-5.273 1.09c1.1858843-3.6640322 4.1383362-6.4837685 7.853-7.5 1.761-.527 6.094.029 8.353.455z" fill="#f29c1f"/><path id="Shape" d="m31.915 38.873c5.732 2.035 6.3 10.262 6.3 10.262l2.845-4.573 4.573 2.845c.1735748-3.7387233-1.5209146-7.3195594-4.522-9.556-2.8797921-1.3961414-6.0054532-2.2139095-9.2-2.407z" fill="#f29c1f"/><path id="Shape" d="m32.331 30.822s.1-11.548-9.1-13.787c-.5260618-.121531-1.0757186-.0924193-1.586.084-1.766.586-5.915 2.336-8.106 6.369-.5886887 1.0745304-.6542442 2.3591239-.178 3.488 1.432 3.374 5.585 9.842 13.169 7.933z" fill="#f0c419"/><path id="Shape" d="m27.222 32.54c-3.786-3.333-4.275-8.778-4.322-10.767-.0034167-.1768763.0868878-.3423913.2374694-.4352465.1505816-.0928553.3390213-.0992262.4955306-.0167535 4.347 2.1 5.342 7.958 5.531 9.553z" fill="#f29c1f"/><path id="Shape" d="m36.373 36.656c1.1942589.8375639 2.5529747 1.4115923 3.986 1.684.5011112.0918928 1.0095329.1380825 1.519.138 4.229.041 7.819-2.844 9.588-4.734.3809567-.4013774.6732781-.8783587.858-1.4.2138258-.6223466.2765521-1.2866286.183-1.938-.6638434-3.4920986-2.5930992-6.6163679-5.418-8.774-.4131096-.3454257-.9181247-.5626551-1.453-.625-6.9-.79-10.838 4.858-12.441 7.934-.3286104.6078819-.6172229 1.2365496-.864 1.882z" fill="#f0c419"/><path id="Shape" d="m35.287 31.964c.728-1.433 3.681-6.586 8.486-7.061.1755644-.0235493.3504844.0475502.4598324.1869073.1093481.1393571.1368006.3261685.0721676.4910927-.73 1.85-3.066 6.792-7.769 8.616z" fill="#f29c1f"/><path id="Shape" d="m36.555 35.632-.355 1.968c-.1958732 1.0858018-1.2322104 1.8093163-2.319 1.619l-5.907-1.051c-1.0858018-.1958732-1.8093163-1.2322104-1.619-2.319l.35-1.969c.1857075-1.0445944.7788127-1.9726165 1.6488147-2.5798738.8700019-.6072572 1.9456197-.8439958 2.9901853-.6581262l1.969.351c1.0453295.1847767 1.9743412.7774915 2.5824241 1.6476015.6080829.8701101.8453614 1.9462478.6595759 2.9913985z" fill="#f3d55b"/></g></g></svg>