<svg height="512" viewBox="0 0 58 58" width="512" xmlns="http://www.w3.org/2000/svg"><g id="Page-1" fill="none" fill-rule="evenodd"><g id="015---Two-Boxes" fill-rule="nonzero"><path id="Shape" d="m14 7s0-4.7-6.378-6.808c-.44659387-.1466126-.93119538-.12636166-1.364.057-1.335.567-4.025 2.3-4.244 7.114-.01984533.45475089.12422623.90151468.406 1.259.888 1.124 3.325 3.378 8.58 3.378z" fill="#f0c419"/><path id="Shape" d="m11.551 8.63c-.3734194.00022397-.7158537-.20762744-.888-.539-.5394532-.92672551-1.30230508-1.70367244-2.219-2.26-.30383422-.19571801-.4784196-.54014998-.4566519-.90090882s.2365008-.68169985.56166372-.83946502.71015074-.12780158 1.00698818.07837384c1.1971878.74199554 2.1880413 1.77377642 2.881 3 .1224845.23536359.1464115.50975598.0665132.76276733-.0798983.25301134-.2570715.46389844-.4925132.58623267-.1420044.07402466-.2998604.11245917-.46.112z" fill="#f29c1f"/><path id="Shape" d="m14 7s0-4.7 6.378-6.808c.4465939-.1466126.9311954-.12636166 1.364.057 1.335.567 4.025 2.3 4.244 7.114.0198453.45475089-.1242262.90151468-.406 1.259-.888 1.124-3.325 3.378-8.58 3.378z" fill="#f0c419"/><path id="Shape" d="m16.449 8.63c-.1602229.00015058-.3180836-.03862825-.46-.113-.2354417-.12233423-.4126149-.33322133-.4925132-.58623267-.0798983-.25301135-.0559713-.52740374.0665132-.76276733.6929587-1.22622358 1.6838122-2.25800446 2.881-3 .2968374-.20617542.6818253-.23613901 1.0069882-.07837384s.539896.47870618.5616637.83946502-.1528177.70519081-.4566519.90090882c-.9166949.55632756-1.6795468 1.33327449-2.219 2.26-.1718735.33176022-.514362.5400303-.888.54z" fill="#f29c1f"/><path id="Shape" d="m2 16h24v41c0 .5522847-.4477153 1-1 1h-22c-.55228475 0-1-.4477153-1-1z" fill="#2980ba"/><path id="Shape" d="m2 12h24c1.1045695 0 2 .8954305 2 2v3c0 .5522847-.4477153 1-1 1h-26c-.55228475 0-1-.4477153-1-1v-3c0-1.1045695.8954305-2 2-2z" fill="#3b97d3"/><path id="Shape" d="m32 37h24v20c0 .5522847-.4477153 1-1 1h-22c-.5522847 0-1-.4477153-1-1z" fill="#df4d60"/><path id="Shape" d="m32 32h24c1.1045695 0 2 .8954305 2 2v3c0 .5522847-.4477153 1-1 1h-26c-.5522847 0-1-.4477153-1-1v-3c0-1.1045695.8954305-2 2-2z" fill="#ff5364"/><path id="Shape" d="m13 7h2c1.1045695 0 2 .8954305 2 2v3h-6v-3c0-1.1045695.8954305-2 2-2z" fill="#f3d55b"/><path id="Shape" d="m44 27s0-4.7-6.378-6.808c-.4465939-.1466126-.9311954-.1263617-1.364.057-1.335.567-4.025 2.3-4.244 7.114-.0198453.4547509.1242262.9015147.406 1.259.888 1.124 3.325 3.378 8.58 3.378z" fill="#f0c419"/><path id="Shape" d="m41.551 28.63c-.3734194.000224-.7158537-.2076274-.888-.539-.5394532-.9267255-1.3023051-1.7036724-2.219-2.26-.3038342-.195718-.4784196-.54015-.4566519-.9009088.0217677-.3607589.2365008-.6816999.5616637-.839465.3251629-.1577652.7101508-.1278016 1.0069882.0783738 1.1971878.7419955 2.1880413 1.7737764 2.881 3 .1224845.2353636.1464115.509756.0665132.7627673-.0798983.2530114-.2570715.4638985-.4925132.5862327-.1420044.0740247-.2998604.1124592-.46.112z" fill="#f29c1f"/><path id="Shape" d="m44 27s0-4.7 6.378-6.808c.4465939-.1466126.9311954-.1263617 1.364.057 1.335.567 4.025 2.3 4.244 7.114.0198453.4547509-.1242262.9015147-.406 1.259-.888 1.124-3.325 3.378-8.58 3.378z" fill="#f0c419"/><path id="Shape" d="m46.449 28.63c-.1602229.0001506-.3180836-.0386282-.46-.113-.2354417-.1223342-.4126149-.3332213-.4925132-.5862327-.0798983-.2530113-.0559713-.5274037.0665132-.7627673.6933064-1.2259648 1.6840849-2.2576675 2.881-3 .2968374-.2061754.6818253-.236139 1.0069882-.0783738.3251629.1577651.539896.4787061.5616637.839465.0217677.3607588-.1528177.7051908-.4566519.9009088-.9166949.5563276-1.6795468 1.3332745-2.219 2.26-.1718735.3317602-.514362.5400303-.888.54z" fill="#f29c1f"/><path id="Rectangle-path" d="m10 12h8v6h-8z" fill="#f0c419"/><path id="Rectangle-path" d="m40 32h8v6h-8z" fill="#f0c419"/><path id="Rectangle-path" d="m11 18h6v40h-6z" fill="#f29c1f"/><path id="Rectangle-path" d="m2 30h9v6h-9z" fill="#e57e25"/><path id="Rectangle-path" d="m17 30h9v6h-9z" fill="#e57e25"/><path id="Rectangle-path" d="m41 38h6v20h-6z" fill="#f29c1f"/><path id="Shape" d="m36.707 12.293c-.3904999-.3903819-1.0235001-.3903819-1.414 0l-.293.293-.293-.293c-.3923789-.3789722-1.0160848-.3735524-1.4018186.0121814s-.3911536 1.0094397-.0121814 1.4018186l.293.293-.293.293c-.2599566.2510745-.3642126.6228779-.2726972.9725073.0915155.3496295.3645604.6226744.7141899.7141899.3496294.0915154.7214328-.0127406.9725073-.2726972l.293-.293.293.293c.3923789.3789722 1.0160848.3735524 1.4018186-.0121814s.3911536-1.0094397.0121814-1.4018186l-.293-.293.293-.293c.3903819-.3904999.3903819-1.0235001 0-1.414z" fill="#955ba5"/><path id="Shape" d="m46.414 17 .293-.293c.3789722-.3923789.3735524-1.0160848-.0121814-1.4018186s-1.0094397-.3911536-1.4018186-.0121814l-.293.293-.293-.293c-.3923789-.3789722-1.0160848-.3735524-1.4018186.0121814s-.3911536 1.0094397-.0121814 1.4018186l.293.293-.293.293c-.2599566.2510745-.3642126.6228779-.2726972.9725073.0915155.3496295.3645604.6226744.7141899.7141899.3496294.0915154.7214328-.0127406.9725073-.2726972l.293-.293.293.293c.3923789.3789722 1.0160848.3735524 1.4018186-.0121814s.3911536-1.0094397.0121814-1.4018186z" fill="#f0c419"/><path id="Shape" d="m43.293 10.707c.3923789.3789722 1.0160848.3735524 1.4018186-.0121814s.3911536-1.00943971.0121814-1.4018186l-.293-.293.293-.293c.3789722-.39237889.3735524-1.01608478-.0121814-1.40181858-.3857338-.38573379-1.0094397-.39115363-1.4018186-.01218142l-.293.293-.293-.293c-.3923789-.37897221-1.0160848-.37355237-1.4018186.01218142-.3857338.3857338-.3911536 1.00943969-.0121814 1.40181858l.293.293-.293.293c-.2599566.25107447-.3642126.62287789-.2726972.9725073.0915155.3496295.3645604.6226744.7141899.7141899.3496294.0915154.7214328-.0127406.9725073-.2726972l.293-.293z" fill="#955ba5"/><path id="Shape" d="m33.293 7.707c.3923789.37897221 1.0160848.37355237 1.4018186-.01218142.3857338-.3857338.3911536-1.00943969.0121814-1.40181858l-.293-.293.293-.293c.2599566-.25107447.3642126-.62287789.2726972-.97250732-.0915155-.34962944-.3645604-.6226744-.7141899-.71418984-.3496294-.09151544-.7214328.01274058-.9725073.27269716l-.293.293-.293-.293c-.3923789-.37897221-1.0160848-.37355237-1.4018186.01218142-.3857338.3857338-.3911536 1.00943969-.0121814 1.40181858l.293.293-.293.293c-.2599566.25107447-.3642126.62287789-.2726972.97250732.0915155.34962944.3645604.6226744.7141899.71418984.3496294.09151544.7214328-.01274058.9725073-.27269716l.293-.293z" fill="#f0c419"/><path id="Shape" d="m43 27h2c1.1045695 0 2 .8954305 2 2v3h-6v-3c0-1.1045695.8954305-2 2-2z" fill="#f3d55b"/></g></g></svg>