<svg height="512" viewBox="0 0 58 54" width="512" xmlns="http://www.w3.org/2000/svg"><g id="Page-1" fill="none" fill-rule="evenodd"><g id="016---Heart-Present" fill-rule="nonzero"><path id="Shape" d="m43.5 0c-5.1898999.03772324-10.1515059 2.13894-13.79 5.84-.1864103.19183364-.4425137.30007247-.71.30007247s-.5235897-.10823883-.71-.30007247c-3.6340486-3.70759104-8.598503-5.81001405-13.79-5.84-8.58 0-14.5 8.582-14.5 18.462 0 12.213 7.89 25.3 23.31 32.31 3.6167507 1.6368711 7.7632493 1.6368711 11.38 0 15.767-7.158 23.31-20.572 23.31-32.31 0-9.88-5.92-18.462-14.5-18.462z" fill="#ff5364"/><path id="Shape" d="m57.22 12.41-7.5 5.14-14.83 10.17-22.96 15.74c-1.5121022-1.3554097-2.91634796-2.8265243-4.2-4.4l24.41-16.73 14.77-10.13 7.92-5.43c1.0824853 1.74563754 1.888668 3.6480936 2.39 5.64z" fill="#84b5cb"/><path id="Shape" d="m5.086 13.031c-.32408673-.0002044-.6279782-.1574542-.81533355-.4218974-.18735535-.2644433-.23493924-.6032844-.12766645-.9091026 2.011-5.7 6.1-8.949 10.912-8.68.5514388.02958377.974509.50055715.945 1.052-.0400039.54690884-.5060267.96385336-1.054.943-3.856-.21-7.214 2.529-8.914 7.348-.14119864.401179-.52069974.6691565-.946.668z" fill="#fb7b76"/><path id="Shape" d="m51 20c-.0025793-1.5758396-1.2273744-2.8793716-2.8-2.98 1.0460965-1.1820755.9914647-2.9741475-.1246939-4.0903061s-2.9082306-1.1707904-4.0903061-.1246939c-.091498-1.5788375-1.3985135-2.81230084-2.98-2.81230084s-2.888502 1.23346334-2.98 2.81230084c-1.1820755-1.0460965-2.9741475-.9914647-4.0903061.1246939s-1.1707904 2.9082306-.1246939 4.0903061c-1.5788375.091498-2.8123008 1.3985135-2.8123008 2.98s1.2334633 2.888502 2.8123008 2.98c-1.0475204 1.1808316-.9950243 2.9729856.1198189 4.0904769s2.9068676 1.174239 4.0901811.1295231c.091498 1.5788375 1.3985135 2.8123008 2.98 2.8123008s2.888502-1.2334633 2.98-2.8123008c1.1768703 1.0935359 3.0080065 1.0599417 4.1439741-.0760259s1.1695618-2.9671038.0760259-4.1439741c1.5726256-.1006284 2.7974207-1.4041604 2.8-2.98z" fill="#9fc9d3"/><path id="Shape" d="m12.707 50.293c-.3904999-.3903819-1.0235001-.3903819-1.414 0l-.293.293-.293-.293c-.3923789-.3789722-1.01608478-.3735524-1.40181858.0121814-.38573379.3857338-.39115363 1.0094397-.01218142 1.4018186l.293.293-.293.293c-.25995658.2510745-.3642126.6228779-.27269716.9725073.09151544.3496295.3645604.6226744.71418984.7141899.34962942.0915154.72143282-.0127406.97250732-.2726972l.293-.293.293.293c.3923789.3789722 1.0160848.3735524 1.4018186-.0121814s.3911536-1.0094397.0121814-1.4018186l-.293-.293.293-.293c.3903819-.3904999.3903819-1.0235001 0-1.414z" fill="#f0c419"/><path id="Shape" d="m55.414 44 .293-.293c.3789722-.3923789.3735524-1.0160848-.0121814-1.4018186s-1.0094397-.3911536-1.4018186-.0121814l-.293.293-.293-.293c-.3923789-.3789722-1.0160848-.3735524-1.4018186.0121814s-.3911536 1.0094397-.0121814 1.4018186l.293.293-.293.293c-.2599566.2510745-.3642126.6228779-.2726972.9725073.0915155.3496295.3645604.6226744.7141899.7141899.3496294.0915154.7214328-.0127406.9725073-.2726972l.293-.293.293.293c.3923789.3789722 1.0160848.3735524 1.4018186-.0121814s.3911536-1.0094397.0121814-1.4018186z" fill="#955ba5"/><path id="Shape" d="m50.707 48.293c-.3904999-.3903819-1.0235001-.3903819-1.414 0l-.793.793-.793-.793c-.3923789-.3789722-1.0160848-.3735524-1.4018186.0121814s-.3911536 1.0094397-.0121814 1.4018186l.793.793-.793.793c-.2599566.2510745-.3642126.6228779-.2726972.9725073.0915155.3496295.3645604.6226744.7141899.7141899.3496294.0915154.7214328-.0127406.9725073-.2726972l.793-.793.793.793c.3923789.3789722 1.0160848.3735524 1.4018186-.0121814s.3911536-1.0094397.0121814-1.4018186l-.793-.793.793-.793c.3903819-.3904999.3903819-1.0235001 0-1.414z" fill="#f0c419"/><path id="Shape" d="m6.707 43.293c-.39049985-.3903819-1.02350015-.3903819-1.414 0l-.793.793-.793-.793c-.39237889-.3789722-1.01608478-.3735524-1.40181858.0121814-.38573379.3857338-.39115363 1.0094397-.01218142 1.4018186l.793.793-.793.793c-.25995658.2510745-.3642126.6228779-.27269716.9725073.09151544.3496295.3645604.6226744.71418984.7141899.34962943.0915154.72143285-.0127406.97250732-.2726972l.793-.793.793.793c.25107447.2599566.62287789.3642126.97250732.2726972.34962944-.0915155.6226744-.3645604.71418984-.7141899.09151544-.3496294-.01274058-.7214328-.27269716-.9725073l-.793-.793.793-.793c.39038194-.3904999.39038194-1.0235001 0-1.414z" fill="#955ba5"/><g fill="#2980ba"><path id="Shape" d="m41 19c-.5522847 0-1-.4477153-1-1v-2c0-.5522847.4477153-1 1-1s1 .4477153 1 1v2c0 .5522847-.4477153 1-1 1z"/><path id="Shape" d="m45 21h-2c-.5522847 0-1-.4477153-1-1s.4477153-1 1-1h2c.5522847 0 1 .4477153 1 1s-.4477153 1-1 1z"/><path id="Shape" d="m41 25c-.5522847 0-1-.4477153-1-1v-2c0-.5522847.4477153-1 1-1s1 .4477153 1 1v2c0 .5522847-.4477153 1-1 1z"/><path id="Shape" d="m39 21h-2c-.5522847 0-1-.4477153-1-1s.4477153-1 1-1h2c.5522847 0 1 .4477153 1 1s-.4477153 1-1 1z"/></g><circle id="Oval" cx="41" cy="20" fill="#3b97d3" r="3"/></g></g></svg>