<svg height="512" viewBox="0 0 58 58" width="512" xmlns="http://www.w3.org/2000/svg"><g id="Page-1" fill="none" fill-rule="evenodd"><g id="017---Spotted-Present" fill-rule="nonzero" transform="translate(0 -1)"><path id="Shape" d="m48.64 8.64 4.36-3.64v5h5s-4 9-11 9l-18 2-18-2c-7 0-11-9-11-9h5v-5l4.37 3.64 19.63 6.36z" fill="#f29c1f"/><path id="Shape" d="m30.013 19-1.013-6s-1.921-11.385-11.379-11.976c-.5387285-.02684994-1.0742298.09749997-1.546.359-1.636.884-5.415 3.328-6.865 7.671-.39220299 1.1577984-.23188379 2.4315068.435 3.456 1.653 2.531 5.5 7.334 10.815 7.123z" fill="#f0c419"/><path id="Shape" d="m24.27 15.59c-4.311-2.619-5.746-7.894-6.14-9.843-.0345128-.17351992.0252421-.35235999.1571323-.47028056.1318903-.11792056.3162776-.15736338.4848677-.10371944 4.648 1.309 6.653 6.9 7.118 8.437z" fill="#f29c1f"/><path id="Shape" d="m27.987 19 1.013-6.006s1.921-11.394 11.379-11.994c.5388624-.02697482 1.0744862.09775 1.546.36 1.636.89 5.415 3.34 6.865 7.683.3918377 1.1591601.2315734 2.4339061-.435 3.46-1.6 2.461-5.284 7.067-10.36 7.137z" fill="#f0c419"/><path id="Shape" d="m32.11 13.61c.465-1.537 2.47-7.128 7.118-8.437.1685901-.05364394.3529774-.01420112.4848677.10371944.1318902.11792057.1916451.29676064.1571323.47028056-.394 1.949-1.829 7.224-6.14 9.843z" fill="#f29c1f"/><rect id="Rectangle-path" fill="#955ba5" height="40" rx="4" width="48" x="5" y="19"/><path id="Rectangle-path" d="m25 19h8v40h-8z" fill="#f0c419"/><g fill="#cc66a1"><circle id="Oval" cx="19" cy="21" r="2"/><circle id="Oval" cx="11" cy="27" r="2"/><circle id="Oval" cx="19" cy="33" r="2"/><circle id="Oval" cx="11" cy="39" r="2"/><circle id="Oval" cx="19" cy="45" r="2"/><circle id="Oval" cx="11" cy="51" r="2"/><circle id="Oval" cx="19" cy="57" r="2"/><circle id="Oval" cx="39" cy="21" r="2"/><circle id="Oval" cx="47" cy="27" r="2"/><circle id="Oval" cx="39" cy="33" r="2"/><circle id="Oval" cx="47" cy="39" r="2"/><circle id="Oval" cx="39" cy="45" r="2"/><circle id="Oval" cx="47" cy="51" r="2"/><circle id="Oval" cx="39" cy="57" r="2"/></g><path id="Shape" d="m28 13h2c2.209139 0 4 1.790861 4 4v2h-10v-2c0-2.209139 1.790861-4 4-4z" fill="#f3d55b"/></g></g></svg>