<svg height="512" viewBox="0 0 54 58" width="512" xmlns="http://www.w3.org/2000/svg"><g id="Page-1" fill="none" fill-rule="evenodd"><g id="018---Open-Present" fill-rule="nonzero" transform="translate(0 -1)"><path id="Shape" d="m51.581 39.186-7-5c-.1695664-.1210014-.3726875-.1860281-.581-.186h-34c-.20831248-.0000281-.41143364.0649986-.581.186l-7 5c-.44955978.3208774-.55387742.9454402-.23299999 1.395.32087744.4495598.9454402.5538774 1.39499999.233l6.419-4.585v20.771c0 1.1045695.8954305 2 2 2h30c1.1045695 0 2-.8954305 2-2v-20.771l6.419 4.585c.4495598.3208774 1.0741226.2165598 1.395-.233s.2165598-1.0741226-.233-1.395z" fill="#e64c3c"/><path id="Shape" d="m40.969 5.493 5.031-3.493v5h5s-5 7.993-12 8l-12 2-12-2c-7 .007-12-8-12-8l5 .007v-5.007l4.829 3.522 14.171 4.478z" fill="#f29c1f"/><path id="Shape" d="m27 8.99s-1.448-7.533-8.541-7.99c-.4054142-.02076731-.8081129.07686716-1.159.281-2.3876832 1.29527671-4.2175176 3.42112942-5.143 5.975-.2931912.90123197-.1727501 1.88599319.329 2.69 1.612 2.556 6 8.089 11.955 4.2z" fill="#f0c419"/><path id="Shape" d="m22.36 11.36c-2.1989648-1.327787-3.767805-3.48809798-4.35-5.99-.06-.23.21-.43.49-.36 3.02.69 4.6 3.31 5.24 4.69z" fill="#f29c1f"/><path id="Shape" d="m27 9s1.434-7.53 8.527-8c.4053833-.02112033.8082268.07542321 1.16.278 2.389235 1.28909807 4.2232046 3.40910296 5.155 5.959.294721.89950404.1760901 1.88333474-.324 2.687-1.647 2.62-6.209 8.372-12.4 3.9z" fill="#f0c419"/><path id="Shape" d="m30.26 9.71v-.01c.9475212-2.2753284 2.8739484-3.99955421 5.24-4.69.28-.06.55.13.49.36-.5819485 2.50438041-2.1457449 4.6699142-4.34 6.01z" fill="#f29c1f"/><path id="Shape" d="m44 23c.5522847 0 1-.4477153 1-1v-3c0-2.209139-1.790861-4-4-4h-28c-2.209139 0-4 1.790861-4 4v3c0 .5522847.44771525 1 1 1z" fill="#e64c3c"/><path id="Shape" d="m33 15h-12v15l6-5 6 5z" fill="#f0c419"/><path id="Rectangle-path" d="m23 40h8v19h-8z" fill="#f29c1f"/><g fill="#c03a2b"><path id="Shape" d="m14 56c-.5522847 0-1-.4477153-1-1v-2c0-.5522847.4477153-1 1-1s1 .4477153 1 1v2c0 .5522847-.4477153 1-1 1z"/><path id="Shape" d="m14 50c-.5522847 0-1-.4477153-1-1v-10c0-.5522847.4477153-1 1-1s1 .4477153 1 1v10c0 .5522847-.4477153 1-1 1z"/><path id="Shape" d="m40 56c-.5522847 0-1-.4477153-1-1v-2c0-.5522847.4477153-1 1-1s1 .4477153 1 1v2c0 .5522847-.4477153 1-1 1z"/><path id="Shape" d="m40 50c-.5522847 0-1-.4477153-1-1v-10c0-.5522847.4477153-1 1-1s1 .4477153 1 1v10c0 .5522847-.4477153 1-1 1z"/></g><path id="Shape" d="m8 32h-7c-.55228475 0-1-.4477153-1-1s.44771525-1 1-1h7c.55228475 0 1 .4477153 1 1s-.44771525 1-1 1z" fill="#3b97d3"/><path id="Shape" d="m8 28c-.18116336.000064-.35889938-.049384-.514-.143l-5-3c-.46220531-.2892402-.60751133-.8954316-.32666366-1.3627839.28084766-.4673523.88431668-.6235797 1.35666366-.3512161l5 3c.38516227.2315989.56850305.6916998.44817959 1.1247244-.12032347.4330245-.51474893.732583-.96417959.7322756z" fill="#3b97d3"/><path id="Shape" d="m53 32h-7c-.5522847 0-1-.4477153-1-1s.4477153-1 1-1h7c.5522847 0 1 .4477153 1 1s-.4477153 1-1 1z" fill="#3b97d3"/><path id="Shape" d="m46 28c-.4494307.0003074-.8438561-.2992511-.9641796-.7322756-.1203235-.4330246.0630173-.8931255.4481796-1.1247244l5-3c.472347-.2723636 1.075816-.1161362 1.3566637.3512161.2808476.4673523.1355416 1.0735437-.3266637 1.3627839l-5 3c-.1551006.093616-.3328366.143064-.514.143z" fill="#3b97d3"/><path id="Shape" d="m26 9h2c2.209139 0 4 1.790861 4 4v2h-10v-2c0-2.209139 1.790861-4 4-4z" fill="#f3d55b"/><path id="Shape" d="m33 47-6-5-6 5v-13h12z" fill="#f0c419"/></g></g></svg>