<svg height="512" viewBox="0 0 58 58" width="512" xmlns="http://www.w3.org/2000/svg"><g id="Page-1" fill="none" fill-rule="evenodd"><g id="019---Starry-Gift-Box" fill-rule="nonzero"><path id="Shape" d="m2 23h54v33c0 1.1045695-.8954305 2-2 2h-50c-1.1045695 0-2-.8954305-2-2z" fill="#894b9d"/><path id="Shape" d="m46.9 8.007c1.5479136-1.13666915 2.9281207-2.48556907 4.1-4.007v5l5-1c-5 8-10 9-12 9l-15 2-15-2c-2 0-7-1-12-9l5 1v-5c1.17166405 1.52249216 2.55188112 2.87241178 4.1 4.01l17.9 1.99z" fill="#f29c1f"/><path id="Shape" d="m27 17c-5.426 0-12.8-1.866-15.42-6.1-.5953679-.98279451-.7375277-2.17475004-.39-3.27 1.1017291-3.09749054 3.3003354-5.6838769 6.18-7.27.4203076-.246349.9034356-.3645242 1.39-.34 5.96.39 8.59 5.78 9.64 8.98z" fill="#f0c419"/><path id="Shape" d="m24 14.237c-3.47-2.737-4.65-7.737-4.99-9.637-.0406677-.16106835.0055788-.33168658.1220197-.45017029s.2862291-.16769023.4479803-.12982971c2.86.92 4.6 3.94 5.53 6.22z" fill="#f29c1f"/><path id="Shape" d="m29.6 9c1.05-3.2 3.68-8.59 9.64-8.98.4865644-.0245242.9696924.093651 1.39.34 2.8796646 1.5861231 5.0782709 4.17250946 6.18 7.27.3471283 1.09528769.2049885 2.28707487-.39 3.27-2.65 4.278-10.028 6.1-15.42 6.1z" fill="#f0c419"/><path id="Shape" d="m32.89 10.237c.93-2.28 2.67-5.3 5.53-6.22.1617512-.03786052.3315394.011346.4479803.12982971s.1626874.28910194.1220197.45017029c-.34 1.9-1.52 6.9-4.99 9.64z" fill="#f29c1f"/><path id="Shape" d="m2 17h54c1.1045695 0 2 .8954305 2 2v5c0 .5522847-.4477153 1-1 1h-56c-.55228475 0-1-.4477153-1-1v-5c0-1.1045695.8954305-2 2-2z" fill="#955ba5"/><g fill="#f0c419"><path id="Rectangle-path" d="m23 17h12v8h-12z"/><path id="Shape" d="m29.349 44.226 1.242 2.639c.0538555.1183574.1635513.2017563.292.222l2.785.425c.1477886.0267938.2686123.1331763.3139017.2763832.0452895.1432069.0076062.2997176-.0979017.4066168l-2.022 2.068c-.0905776.0935337-.1310737.2246816-.109.353l.476 2.914c.0285313.1476989-.0299753.2986976-.150574.388614-.1205988.0899164-.2820154.1028887-.415426.033386l-2.48-1.369c-.1138665-.0630011-.2521335-.0630011-.366 0l-2.48 1.369c-.1334106.0695027-.2948272.0565304-.415426-.033386-.1205987-.0899164-.1791053-.2409151-.150574-.388614l.476-2.914c.0220737-.1283184-.0184224-.2594663-.109-.353l-2.022-2.063c-.1055079-.1068992-.1431912-.2634099-.0979017-.4066168.0452894-.1432069.1661131-.2495894.3139017-.2763832l2.785-.425c.1284487-.0202437.2381445-.1036426.292-.222l1.242-2.639c.060995-.1375728.1969022-.2266768.3473864-.2277547.1504842-.001078.287654.0860699.3506136.2227547z"/><path id="Shape" d="m20.349 29.226 1.242 2.639c.0538555.1183574.1635513.2017563.292.222l2.785.425c.1477886.0267938.2686123.1331763.3139017.2763832.0452895.1432069.0076062.2997176-.0979017.4066168l-2.022 2.068c-.0905776.0935337-.1310737.2246816-.109.353l.476 2.914c.0285313.1476989-.0299753.2986976-.150574.388614-.1205988.0899164-.2820154.1028887-.415426.033386l-2.48-1.369c-.1138665-.0630011-.2521335-.0630011-.366 0l-2.48 1.369c-.1334106.0695027-.2948272.0565304-.415426-.033386-.1205987-.0899164-.1791053-.2409151-.150574-.388614l.476-2.914c.0220737-.1283184-.0184224-.2594663-.109-.353l-2.022-2.063c-.1055079-.1068992-.1431912-.2634099-.0979017-.4066168.0452894-.1432069.1661131-.2495894.3139017-.2763832l2.785-.425c.1284487-.0202437.2381445-.1036426.292-.222l1.242-2.639c.060995-.1375728.1969022-.2266768.3473864-.2277547.1504842-.001078.287654.0860699.3506136.2227547z"/><path id="Shape" d="m11.349 41.226 1.242 2.639c.0538555.1183574.1635513.2017563.292.222l2.785.425c.1477886.0267938.2686123.1331763.3139017.2763832.0452895.1432069.0076062.2997176-.0979017.4066168l-2.022 2.068c-.0905776.0935337-.1310737.2246816-.109.353l.476 2.914c.0285313.1476989-.0299753.2986976-.150574.388614-.1205988.0899164-.2820154.1028887-.415426.033386l-2.48-1.369c-.1138665-.0630011-.2521335-.0630011-.366 0l-2.48 1.369c-.13341058.0695027-.29482723.0565304-.41542597-.033386-.12059875-.0899164-.17910533-.2409151-.15057403-.388614l.476-2.914c.02207367-.1283184-.01842242-.2594663-.109-.353l-2.022-2.063c-.10550789-.1068992-.14319118-.2634099-.09790173-.4066168.04528946-.1432069.16611318-.2495894.31390173-.2763832l2.785-.425c.12844869-.0202437.23814453-.1036426.292-.222l1.242-2.639c.060995-.1375728.1969022-.2266768.3473864-.2277547.1504842-.001078.287654.0860699.3506136.2227547z"/><path id="Shape" d="m37.651 29.226-1.242 2.639c-.0538555.1183574-.1635513.2017563-.292.222l-2.785.425c-.1477886.0267938-.2686123.1331763-.3139017.2763832-.0452895.1432069-.0076062.2997176.0979017.4066168l2.022 2.068c.0905776.0935337.1310737.2246816.109.353l-.476 2.914c-.0285313.1476989.0299753.2986976.150574.388614.1205988.0899164.2820154.1028887.415426.033386l2.48-1.369c.1138665-.0630011.2521335-.0630011.366 0l2.48 1.369c.1334106.0695027.2948272.0565304.415426-.033386.1205987-.0899164.1791053-.2409151.150574-.388614l-.476-2.914c-.0220737-.1283184.0184224-.2594663.109-.353l2.022-2.063c.1055079-.1068992.1431912-.2634099.0979017-.4066168-.0452894-.1432069-.1661131-.2495894-.3139017-.2763832l-2.785-.425c-.1284487-.0202437-.2381445-.1036426-.292-.222l-1.242-2.639c-.060995-.1375728-.1969022-.2266768-.3473864-.2277547-.1504842-.001078-.287654.0860699-.3506136.2227547z"/><path id="Shape" d="m46.651 41.226-1.242 2.639c-.0538555.1183574-.1635513.2017563-.292.222l-2.785.425c-.1477886.0267938-.2686123.1331763-.3139017.2763832-.0452895.1432069-.0076062.2997176.0979017.4066168l2.022 2.068c.0905776.0935337.1310737.2246816.109.353l-.476 2.914c-.0285313.1476989.0299753.2986976.150574.388614.1205988.0899164.2820154.1028887.415426.033386l2.48-1.369c.1138665-.0630011.2521335-.0630011.366 0l2.48 1.369c.1334106.0695027.2948272.0565304.415426-.033386.1205987-.0899164.1791053-.2409151.150574-.388614l-.476-2.914c-.0220737-.1283184.0184224-.2594663.109-.353l2.022-2.063c.1055079-.1068992.1431912-.2634099.0979017-.4066168-.0452894-.1432069-.1661131-.2495894-.3139017-.2763832l-2.785-.425c-.1284487-.0202437-.2381445-.1036426-.292-.222l-1.242-2.639c-.060995-.1375728-.1969022-.2266768-.3473864-.2277547-.1504842-.001078-.287654.0860699-.3506136.2227547z"/></g><path id="Shape" d="m34 13v2c-.0181881 1.0969474-.9030526 1.9818119-2 2-6.411 0-6.149.018-6.4-.04-.9283731-.194987-1.5948207-1.0113854-1.6-1.96v-2c0-2.209139 1.790861-4 4-4h2c2.209139 0 4 1.790861 4 4z" fill="#f3d55b"/></g></g></svg>