<svg height="512" viewBox="0 0 60 58" width="512" xmlns="http://www.w3.org/2000/svg"><g id="Page-1" fill="none" fill-rule="evenodd"><g id="020---Balloons-In-Box" fill-rule="nonzero" transform="translate(-1 -1)"><path id="Rectangle-path" d="m30 27h2v8h-2z" fill="#3f5c6c"/><path id="Rectangle-path" d="m19 27h2v8h-2z" fill="#3f5c6c"/><path id="Rectangle-path" d="m41 27h2v8h-2z" fill="#3f5c6c"/><path id="Shape" d="m36.5 2.35c1.6918747-.90212022 3.5827109-1.36623456 5.5-1.35 2.9457198-.09584751 5.7996483 1.0322701 7.8836891 3.11631088 2.0840408 2.08404077 3.2121584 4.93796932 3.1163109 7.88368912 0 5.81-3.79 11.43-8.82 12.72l.82 3.28h-6l.82-3.28c-1.1967297-.3116905-2.3233638-.8478598-3.32-1.58z" fill="#894b9d"/><path id="Shape" d="m25.5 2.35c-1.6918747-.90212022-3.5827109-1.36623456-5.5-1.35-2.9457198-.09584751-5.7996483 1.0322701-7.8836891 3.11631088-2.0840408 2.08404077-3.21215841 4.93796932-3.1163109 7.88368912 0 5.81 3.79 11.43 8.82 12.72l-.82 3.28h6l-.82-3.28c1.1967297-.3116905 2.3233638-.8478598 3.32-1.58z" fill="#894b9d"/><path id="Shape" d="m28 8.5c0 6.9-4.92 12.5-11 12.5-2.2780713-.0085192-4.4855488-.7913627-6.26-2.22-1.12815921-2.0827465-1.7257724-4.4113772-1.74-6.78-.09584751-2.9457198 1.0322701-5.79964835 3.1163109-7.88368912 2.0840408-2.08404078 4.9379693-3.21215839 7.8836891-3.11631088 2.5414702-.03299452 5.0192707.79528869 7.03 2.35.6436186 1.64059398.9726806 3.38767588.97 5.15z" fill="#955ba5"/><path id="Shape" d="m50 8.5c0 6.9-4.92 12.5-11 12.5-2.2780713-.0085192-4.4855488-.7913627-6.26-2.22-1.1281592-2.0827465-1.7257724-4.4113772-1.74-6.78-.0958475-2.9457198 1.0322701-5.79964835 3.1163109-7.88368912 2.0840408-2.08404078 4.9379693-3.21215839 7.8836891-3.11631088 2.5414702-.03299452 5.0192707.79528869 7.03 2.35.6436186 1.64059398.9726806 3.38767588.97 5.15z" fill="#955ba5"/><path id="Shape" d="m60.781 25.375c-.1657145-.2072013-.4069781-.3400545-.670678-.3693128-.2636998-.0292583-.5282179.0474769-.735322.2133128l-10.975 8.781h-34.8l-10.975-8.781c-.27902442-.223291-.65597796-.2807627-.98886586-.1507659-.3328879.1299967-.57113656.4277123-.62500002.781-.05386346.3532878.08484143.7084749.36386588.9317659l10.625 8.5v21.719c0 1.1045695.8954305 2 2 2h34c1.1045695 0 2-.8954305 2-2v-21.719l10.625-8.5c.2072013-.1657145.3400545-.4069781.3693128-.670678.0292583-.2636998-.0474769-.5282179-.2133128-.735322z" fill="#e64c3c"/><path id="Rectangle-path" d="m27 39h8v20h-8z" fill="#f29c1f"/><path id="Shape" d="m16 56c-.5522847 0-1-.4477153-1-1v-2c0-.5522847.4477153-1 1-1s1 .4477153 1 1v2c0 .5522847-.4477153 1-1 1z" fill="#c03a2b"/><path id="Shape" d="m16 50c-.5522847 0-1-.4477153-1-1v-11c0-.5522847.4477153-1 1-1s1 .4477153 1 1v11c0 .5522847-.4477153 1-1 1z" fill="#c03a2b"/><path id="Shape" d="m46 56c-.5522847 0-1-.4477153-1-1v-2c0-.5522847.4477153-1 1-1s1 .4477153 1 1v2c0 .5522847-.4477153 1-1 1z" fill="#c03a2b"/><path id="Shape" d="m46 50c-.5522847 0-1-.4477153-1-1v-11c0-.5522847.4477153-1 1-1s1 .4477153 1 1v11c0 .5522847-.4477153 1-1 1z" fill="#c03a2b"/><path id="Shape" d="m13 12.021c-.0279807.001471-.0560193.001471-.084 0-.2653922-.0213735-.5113035-.1477002-.6832445-.3509885s-.2557136-.4667517-.2327555-.7320115c.1459958-2.75481118 1.9063874-5.16294212 4.487-6.138.3305817-.14591213.7141667-.10212915 1.0033645.11452556.2891977.2166547.4390171.57247572.3918908.93074057-.0471264.35826486-.283867.66323757-.6192553.79773387-1.8856981.6962143-3.1711306 2.45398311-3.263 4.462-.0437675.5192392-.4789227.9178414-1 .916z" fill="#b49aca"/><g fill="#f0c419"><path id="Shape" d="m6.707 17.293c-.39049985-.3903819-1.02350015-.3903819-1.414 0l-.293.293-.293-.293c-.39237889-.3789722-1.01608478-.3735524-1.40181858.0121814-.38573379.3857338-.39115363 1.0094397-.01218142 1.4018186l.293.293-.293.293c-.25995658.2510745-.3642126.6228779-.27269716.9725073.09151544.3496295.3645604.6226744.71418984.7141899.34962943.0915154.72143285-.0127406.97250732-.2726972l.293-.293.293.293c.25107447.2599566.62287789.3642126.97250732.2726972.34962944-.0915155.6226744-.3645604.71418984-.7141899.09151544-.3496294-.01274058-.7214328-.27269716-.9725073l-.293-.293.293-.293c.39038194-.3904999.39038194-1.0235001 0-1.414z"/><path id="Shape" d="m3.293 12.707c.25107447.2599566.62287789.3642126.97250732.2726972.34962944-.0915155.6226744-.3645604.71418984-.7141899.09151544-.3496294-.01274058-.7214328-.27269716-.9725073l-.293-.293.293-.293c.37897221-.3923789.37355237-1.01608478-.01218142-1.40181858-.3857338-.38573379-1.00943969-.39115363-1.40181858-.01218142l-.293.293-.293-.293c-.25107447-.25995658-.62287789-.3642126-.97250732-.27269716-.34962944.09151544-.6226744.3645604-.71418984.71418984-.09151544.34962942.01274058.72143282.27269716.97250732l.293.293-.293.293c-.25995658.2510745-.3642126.6228779-.27269716.9725073.09151544.3496295.3645604.6226744.71418984.7141899.34962943.0915154.72143285-.0127406.97250732-.2726972l.293-.293z"/><path id="Shape" d="m7.707 1.293c-.39049985-.39038194-1.02350015-.39038194-1.414 0l-.293.293-.293-.293c-.39237889-.37897221-1.01608478-.37355237-1.40181858.01218142-.38573379.3857338-.39115363 1.00943969-.01218142 1.40181858l.293.293-.293.293c-.25995658.25107447-.3642126.62287789-.27269716.97250732.09151544.34962944.3645604.6226744.71418984.71418984.34962943.09151544.72143285-.01274058.97250732-.27269716l.293-.293.293.293c.39237889.37897221 1.01608478.37355237 1.40181858-.01218142.38573379-.3857338.39115363-1.00943969.01218142-1.40181858l-.293-.293.293-.293c.39038194-.39049985.39038194-1.02350015 0-1.414z"/><path id="Shape" d="m58.707 17.293c-.3904999-.3903819-1.0235001-.3903819-1.414 0l-.293.293-.293-.293c-.3923789-.3789722-1.0160848-.3735524-1.4018186.0121814s-.3911536 1.0094397-.0121814 1.4018186l.293.293-.293.293c-.2599566.2510745-.3642126.6228779-.2726972.9725073.0915155.3496295.3645604.6226744.7141899.7141899.3496294.0915154.7214328-.0127406.9725073-.2726972l.293-.293.293.293c.3923789.3789722 1.0160848.3735524 1.4018186-.0121814s.3911536-1.0094397.0121814-1.4018186l-.293-.293.293-.293c.3903819-.3904999.3903819-1.0235001 0-1.414z"/><path id="Shape" d="m60.414 11 .293-.293c.3789722-.3923789.3735524-1.01608478-.0121814-1.40181858-.3857338-.38573379-1.0094397-.39115363-1.4018186-.01218142l-.293.293-.293-.293c-.3923789-.37897221-1.0160848-.37355237-1.4018186.01218142-.3857338.3857338-.3911536 1.00943968-.0121814 1.40181858l.293.293-.293.293c-.2599566.2510745-.3642126.6228779-.2726972.9725073.0915155.3496295.3645604.6226744.7141899.7141899.3496294.0915154.7214328-.0127406.9725073-.2726972l.293-.293.293.293c.3923789.3789722 1.0160848.3735524 1.4018186-.0121814s.3911536-1.0094397.0121814-1.4018186z"/><path id="Shape" d="m55.707 4.707.293-.293.293.293c.3923789.37897221 1.0160848.37355237 1.4018186-.01218142.3857338-.3857338.3911536-1.00943969.0121814-1.40181858l-.293-.293.293-.293c.3789722-.39237889.3735524-1.01608478-.0121814-1.40181858-.3857338-.38573379-1.0094397-.39115363-1.4018186-.01218142l-.293.293-.293-.293c-.3923789-.37897221-1.0160848-.37355237-1.4018186.01218142-.3857338.3857338-.3911536 1.00943969-.0121814 1.40181858l.293.293-.293.293c-.2599566.25107447-.3642126.62287789-.2726972.97250732.0915155.34962944.3645604.6226744.7141899.71418984.3496294.09151544.7214328-.01274058.9725073-.27269716z"/><path id="Shape" d="m38 34v13l-7-6-7 6v-13z"/></g><path id="Shape" d="m33.18 24.72.82 3.28h-6l.82-3.28c-3.0768551-.9213506-5.6379638-3.0700774-7.08-5.94-1.1281592-2.0827465-1.7257724-4.4113772-1.74-6.78-.0958475-2.9457198 1.0322701-5.79964835 3.1163109-7.88368912 2.0840408-2.08404078 4.9379693-3.21215839 7.8836891-3.11631088 2.5414702-.03299452 5.0192707.79528869 7.03 2.35 2.595415 2.10990142 4.0625028 5.30645306 3.97 8.65 0 5.81-3.79 11.43-8.82 12.72z" fill="#2980ba"/><path id="Shape" d="m49 12.021c-.5210773.0018414-.9562325-.3967608-1-.916-.0936984-2.00790697-1.3807016-3.76448713-3.267-4.459-.3297561-.13933358-.5601298-.44400592-.6043415-.79924991-.0442116-.35524399.1044555-.7070896.39-.92300001.2855445-.2159104.6645854-.26308367.9943415-.12375008 2.5806126.97505788 4.3410042 3.38318882 4.487 6.138.0461114.5503503-.3626504 1.0338801-.913 1.08-.0289241.0025782-.057967.0035797-.087.003z" fill="#b49aca"/><path id="Shape" d="m39 8.5c0 6.9-4.92 12.5-11 12.5-2.2780713-.0085192-4.4855488-.7913627-6.26-2.22-1.1281592-2.0827465-1.7257724-4.4113772-1.74-6.78-.0958475-2.9457198 1.0322701-5.79964835 3.1163109-7.88368912 2.0840408-2.08404078 4.9379693-3.21215839 7.8836891-3.11631088 2.5414702-.03299452 5.0192707.79528869 7.03 2.35.6436186 1.64059398.9726806 3.38767588.97 5.15z" fill="#3b97d3"/><path id="Shape" d="m24 11.081c-.0695862.0000517-.1389792-.0073234-.207-.022-.2597058-.0545281-.4870886-.2100467-.6320737-.4323072-.1449852-.2222605-.1956821-.4930349-.1409263-.7526928.98-4.646 5.649-5.874 7.98-5.874.5522847 0 1 .44771525 1 1s-.4477153 1-1 1c-.21 0-5.137.076-6.024 4.287-.097217.461813-.5040668.7927953-.976.794z" fill="#9fc9d3"/></g></g></svg>