<svg height="512" viewBox="0 0 58 57" width="512" xmlns="http://www.w3.org/2000/svg"><g id="Page-1" fill="none" fill-rule="evenodd"><g id="021---Present-Delivery" fill-rule="nonzero"><path id="Shape" d="m36 15c4.0106444-.0863656 7.3820123-3.0363125 8-7l-4 1-1-4s-1.28.64-3.33 1.92l-13.67 3.08-13.67-3.08c-2.05-1.28-3.33-1.92-3.33-1.92l-1 4-4-1c.61798772 3.9636875 3.98935558 6.9136344 8 7l14 2z" fill="#f29c1f"/><path id="Shape" d="m22 9c-.7955136-3.78928751-3.2568514-7.01804839-6.7-8.789-.5382939-.27356911-1.17318-.28132965-1.718-.021-1.396.66-3.982 2.61-5.382 7.121-.14630143.48797145-.09828809 1.01361.134 1.467.83 1.657 3.414 5.446 9.934 6.222z" fill="#f0c419"/><path id="Shape" d="m22 9c.7955136-3.78928751 3.2568514-7.01804839 6.7-8.789.5382939-.27356911 1.17318-.28132965 1.718-.021 1.4.66 3.984 2.61 5.383 7.121.1463014.48797145.0982881 1.01361-.134 1.467-.83 1.657-3.414 5.446-9.934 6.222z" fill="#f0c419"/><path id="Shape" d="m18.921 10.85c-.3519001.0004256-.6781235-.1841431-.859-.486-.9386045-1.42233414-2.1717455-2.62648813-3.616-3.531-.4600532-.30596575-.5849658-.9269468-.279-1.387s.9269468-.58496575 1.387-.279c1.6937127 1.06650767 3.1347845 2.48915229 4.223 4.169.184963.30867463.1898166.6929245.0127094 1.0061725-.1771073.3132481-.5088609.5071836-.8687094.5078275z" fill="#f29c1f"/><path id="Shape" d="m25.079 10.85c-.3598485-.0006439-.6916021-.1945794-.8687094-.5078275-.1771072-.313248-.1722536-.69749787.0127094-1.0061725 1.0882155-1.67984771 2.5292873-3.10249233 4.223-4.169.2976022-.19792515.6781899-.22204662.9983992-.06327809.3202093.15876852.5313929.47630634.554.83300001s-.146797.69835295-.4443992.89627808c-1.4442688.90484108-2.6776729 2.10891904-3.617 3.531-.1806935.3015508-.5064563.4860738-.858.486z" fill="#f29c1f"/><path id="Shape" d="m56 37.24v12.76h-16v-28h6l6 12 2.89 1.45c.6796577.33773 1.1095973 1.031056 1.11 1.79z" fill="#c03a2b"/><path id="Shape" d="m56 39v2h-4c-.5522847 0-1-.4477153-1-1v-1c0-.5522847.4477153-1 1-1s1 .4477153 1 1z" fill="#f0c419"/><path id="Shape" d="m52 25v9h-4c-1.1032019-.0032948-1.9967052-.8967981-2-2v-10h3c1.6568542 0 3 1.3431458 3 3z" fill="#67b9cc"/><path id="Shape" d="m2 50v-33c.0032948-1.1032019.89679813-1.9967052 2-2h36c1.1032019.0032948 1.9967052.8967981 2 2v33z" fill="#e64c3c"/><path id="Shape" d="m53.9 53h2.1c1.1045695 0 2-.8954305 2-2s-.8954305-2-2-2h-54c-1.1045695 0-2 .8954305-2 2s.8954305 2 2 2z" fill="#95a5a5"/><circle id="Oval" cx="11" cy="52" fill="#3f5c6c" r="5"/><circle id="Oval" cx="49" cy="52" fill="#3f5c6c" r="5"/><path id="Shape" d="m26 15v-3c0-1.6568542-1.3431458-3-3-3h-2c-1.6568542 0-3 1.3431458-3 3v3z" fill="#f3d55b"/><path id="Rectangle-path" d="m25 29h17v6h-17z" fill="#f29c1f"/><path id="Rectangle-path" d="m2 29h17v6h-17z" fill="#f29c1f"/><path id="Shape" d="m7 20h-1c-.55228475 0-1-.4477153-1-1s.44771525-1 1-1h1c.55228475 0 1 .4477153 1 1s-.44771525 1-1 1z" fill="#fb7b76"/><path id="Shape" d="m15 20h-4c-.5522847 0-1-.4477153-1-1s.4477153-1 1-1h4c.5522847 0 1 .4477153 1 1s-.4477153 1-1 1z" fill="#fb7b76"/><circle id="Oval" cx="11" cy="52" fill="#547580" r="2"/><circle id="Oval" cx="49" cy="52" fill="#547580" r="2"/><path id="Rectangle-path" d="m19 15h6v34h-6z" fill="#f0c419"/></g></g></svg>