<svg height="512" viewBox="0 0 48 59" width="512" xmlns="http://www.w3.org/2000/svg"><g id="Page-1" fill="none" fill-rule="evenodd"><g id="022---Bottle-Present" fill-rule="nonzero" transform="translate(-1)"><path id="Shape" d="m21 9v-6c0-1.1045695.8954305-2 2-2h4c1.1045695 0 2 .8954305 2 2v6z" fill="#a56a43"/><path id="Shape" d="m29.4 18.2c-.2641118-.6790959-.399747-1.4013532-.4-2.13v-9.07h-8v9.07c.0012903.7362177-.1378631 1.4659243-.41 2.15l-8.59 21.18v17.6c.0032948 1.1032019.8967981 1.9967052 2 2h22c1.1032019-.0032948 1.9967052-.8967981 2-2v-17.6z" fill="#26b99a"/><path id="Shape" d="m38 39.4v13.6h-26v-13.6l2.19-5.4h21.62z" fill="#f0c419"/><path id="Shape" d="m35.2 30.7c1.423.045 6.025 4.945 6.8 10.3l-5-2-2 5s-3-8-9-9h-2c-6 1-9 9-9 9l-2-5-5 2c.783-5.436 5.518-10.406 6.86-10.3z" fill="#c03a2b"/><path id="Shape" d="m29 44h-8c-.5522847 0-1-.4477153-1-1s.4477153-1 1-1h8c.5522847 0 1 .4477153 1 1s-.4477153 1-1 1z" fill="#547580"/><path id="Shape" d="m27 48h-4c-.5522847 0-1-.4477153-1-1s.4477153-1 1-1h4c.5522847 0 1 .4477153 1 1s-.4477153 1-1 1z" fill="#547580"/><g fill="#f0c419"><path id="Shape" d="m16.707 7.293c-.3904999-.39038194-1.0235001-.39038194-1.414 0l-.293.293-.293-.293c-.2510745-.25995658-.6228779-.3642126-.9725073-.27269716-.3496295.09151544-.6226744.3645604-.7141899.71418984-.0915154.34962943.0127406.72143285.2726972.97250732l.293.293-.293.293c-.2599566.25107447-.3642126.62287789-.2726972.9725073.0915155.3496295.3645604.6226744.7141899.7141899.3496294.0915154.7214328-.0127406.9725073-.2726972l.293-.293.293.293c.3923789.3789722 1.0160848.3735524 1.4018186-.0121814s.3911536-1.00943971.0121814-1.4018186l-.293-.293.293-.293c.3903819-.39049985.3903819-1.02350015 0-1.414z"/><path id="Shape" d="m12.707 2.293-.293-.293.293-.293c.3789722-.39237889.3735524-1.01608478-.0121814-1.40181857-.3857338-.3857338-1.0094397-.39115364-1.4018186-.01218143l-.293.293-.293-.293c-.3923789-.37897221-1.01608478-.37355237-1.40181858.01218143-.38573379.38573379-.39115363 1.00943968-.01218142 1.40181857l.293.293-.293.293c-.25995658.25107447-.3642126.62287789-.27269716.97250732.09151544.34962944.3645604.6226744.71418984.71418984.34962942.09151544.72143282-.01274058.97250732-.27269716l.293-.293.293.293c.3923789.37897221 1.0160848.37355237 1.4018186-.01218142.3857338-.3857338.3911536-1.00943969.0121814-1.40181858z"/><path id="Shape" d="m8.707 10.293c-.39049985-.39038194-1.02350015-.39038194-1.414 0l-.293.293-.293-.293c-.39237889-.37897221-1.01608478-.37355237-1.40181858.0121814-.38573379.3857338-.39115363 1.0094397-.01218142 1.4018186l.293.293-.293.293c-.25995658.2510745-.3642126.6228779-.27269716.9725073.09151544.3496295.3645604.6226744.71418984.7141899.34962943.0915154.72143285-.0127406.97250732-.2726972l.293-.293.293.293c.39237889.3789722 1.01608478.3735524 1.40181858-.0121814.38573379-.3857338.39115363-1.0094397.01218142-1.4018186l-.293-.293.293-.293c.39038194-.3904999.39038194-1.0235001 0-1.414z"/><path id="Shape" d="m6.707 32.293c-.39049985-.3903819-1.02350015-.3903819-1.414 0l-.293.293-.293-.293c-.39237889-.3789722-1.01608478-.3735524-1.40181858.0121814-.38573379.3857338-.39115363 1.0094397-.01218142 1.4018186l.293.293-.293.293c-.25995658.2510745-.3642126.6228779-.27269716.9725073.09151544.3496295.3645604.6226744.71418984.7141899.34962943.0915154.72143285-.0127406.97250732-.2726972l.293-.293.293.293c.39237889.3789722 1.01608478.3735524 1.40181858-.0121814.38573379-.3857338.39115363-1.0094397.01218142-1.4018186l-.293-.293.293-.293c.39038194-.3904999.39038194-1.0235001 0-1.414z"/><path id="Shape" d="m4.707 39.293c-.39049985-.3903819-1.02350015-.3903819-1.414 0l-.293.293-.293-.293c-.39237889-.3789722-1.01608478-.3735524-1.40181858.0121814-.38573379.3857338-.39115363 1.0094397-.01218142 1.4018186l.293.293-.293.293c-.25995658.2510745-.3642126.6228779-.27269716.9725073.09151544.3496295.3645604.6226744.71418984.7141899.34962943.0915154.72143285-.0127406.97250732-.2726972l.293-.293.293.293c.39237889.3789722 1.01608478.3735524 1.40181858-.0121814.38573379-.3857338.39115363-1.0094397.01218142-1.4018186l-.293-.293.293-.293c.39038194-.3904999.39038194-1.0235001 0-1.414z"/><path id="Shape" d="m36.707 7.293c-.3904999-.39038194-1.0235001-.39038194-1.414 0l-.293.293-.293-.293c-.2510745-.25995658-.6228779-.3642126-.9725073-.27269716-.3496295.09151544-.6226744.3645604-.7141899.71418984-.0915154.34962943.0127406.72143285.2726972.97250732l.293.293-.293.293c-.2599566.25107447-.3642126.62287789-.2726972.9725073.0915155.3496295.3645604.6226744.7141899.7141899.3496294.0915154.7214328-.0127406.9725073-.2726972l.293-.293.293.293c.3923789.3789722 1.0160848.3735524 1.4018186-.0121814s.3911536-1.00943971.0121814-1.4018186l-.293-.293.293-.293c.3903819-.39049985.3903819-1.02350015 0-1.414z"/><path id="Shape" d="m40.707 2.293-.293-.293.293-.293c.3789722-.39237889.3735524-1.01608478-.0121814-1.40181857-.3857338-.3857338-1.0094397-.39115364-1.4018186-.01218143l-.293.293-.293-.293c-.3923789-.37897221-1.0160848-.37355237-1.4018186.01218143-.3857338.38573379-.3911536 1.00943968-.0121814 1.40181857l.293.293-.293.293c-.2599566.25107447-.3642126.62287789-.2726972.97250732.0915155.34962944.3645604.6226744.7141899.71418984.3496294.09151544.7214328-.01274058.9725073-.27269716l.293-.293.293.293c.3923789.37897221 1.0160848.37355237 1.4018186-.01218142.3857338-.3857338.3911536-1.00943969.0121814-1.40181858z"/><path id="Shape" d="m43.293 13.707c.3923789.3789722 1.0160848.3735524 1.4018186-.0121814s.3911536-1.0094397.0121814-1.4018186l-.293-.293.293-.293c.3789722-.3923789.3735524-1.0160848-.0121814-1.4018186-.3857338-.38573377-1.0094397-.39115361-1.4018186-.0121814l-.293.293-.293-.293c-.3923789-.37897221-1.0160848-.37355237-1.4018186.0121814-.3857338.3857338-.3911536 1.0094397-.0121814 1.4018186l.293.293-.293.293c-.2599566.2510745-.3642126.6228779-.2726972.9725073.0915155.3496295.3645604.6226744.7141899.7141899.3496294.0915154.7214328-.0127406.9725073-.2726972l.293-.293z"/><path id="Shape" d="m45.293 35.707c.3923789.3789722 1.0160848.3735524 1.4018186-.0121814s.3911536-1.0094397.0121814-1.4018186l-.293-.293.293-.293c.3789722-.3923789.3735524-1.0160848-.0121814-1.4018186s-1.0094397-.3911536-1.4018186-.0121814l-.293.293-.293-.293c-.3923789-.3789722-1.0160848-.3735524-1.4018186.0121814s-.3911536 1.0094397-.0121814 1.4018186l.293.293-.293.293c-.2599566.2510745-.3642126.6228779-.2726972.9725073.0915155.3496295.3645604.6226744.7141899.7141899.3496294.0915154.7214328-.0127406.9725073-.2726972l.293-.293z"/><path id="Shape" d="m48.414 41 .293-.293c.3789722-.3923789.3735524-1.0160848-.0121814-1.4018186s-1.0094397-.3911536-1.4018186-.0121814l-.293.293-.293-.293c-.3923789-.3789722-1.0160848-.3735524-1.4018186.0121814s-.3911536 1.0094397-.0121814 1.4018186l.293.293-.293.293c-.2599566.2510745-.3642126.6228779-.2726972.9725073.0915155.3496295.3645604.6226744.7141899.7141899.3496294.0915154.7214328-.0127406.9725073-.2726972l.293-.293.293.293c.3923789.3789722 1.0160848.3735524 1.4018186-.0121814s.3911536-1.0094397.0121814-1.4018186z"/></g><path id="Shape" d="m25 27.031s-1.921-11.415-11.378-12.007c-.5388817-.0271906-1.0745642.0975479-1.546.36-1.637.886-5.416 3.336-6.866 7.69-.39167312 1.1611639-.23146934 2.4376382.435 3.466 2 3.071 7.222 8.712 14.355 5.5z" fill="#e64c3c"/><path id="Shape" d="m30 32.04c1.7850698.8517671 3.7867644 1.1412108 5.74.83 4.17-.7 7.2-4.17 8.61-6.34.6735794-1.0270534.8359204-2.3073328.44-3.47-1.45-4.36-5.23-6.81-6.87-7.69-.4673123-.2674341-1.0025599-.3925569-1.54-.36-6.93.43-9.82 6.68-10.86 9.99-.2160257.6540766-.3864344 1.3223461-.51 2-.0057054.0051905-.0092708.0123214-.01.02z" fill="#e64c3c"/><path id="Shape" d="m20.27 29.59c-4.311-2.619-5.745-7.894-6.14-9.843-.0345128-.1735199.0252421-.35236.1571323-.4702806.1318903-.1179205.3162776-.1573633.4848677-.1037194 4.648 1.309 6.653 6.9 7.118 8.437z" fill="#c03a2b"/><path id="Shape" d="m28.11 27.61c.465-1.537 2.471-7.128 7.119-8.437.1685901-.0536439.3529774-.0142011.4848677.1037194.1318902.1179206.1916451.2967607.1571323.4702806-.4 1.949-1.829 7.224-6.141 9.843z" fill="#c03a2b"/><path id="Shape" d="m30 31v2c-.0032948 1.1032019-.8967981 1.9967052-2 2h-6c-1.1032019-.0032948-1.9967052-.8967981-2-2v-2c0-2.209139 1.790861-4 4-4h2c2.209139 0 4 1.790861 4 4z" fill="#fb7b76"/></g></g></svg>