<svg height="512" viewBox="0 0 58 46" width="512" xmlns="http://www.w3.org/2000/svg"><g id="Page-1" fill="none" fill-rule="evenodd"><g id="024---Gift-Card" fill-rule="nonzero"><path id="Shape" d="m54 0h-50c-2.209139 0-4 1.790861-4 4v38c0 2.209139 1.790861 4 4 4h50c2.209139 0 4-1.790861 4-4v-38c0-2.209139-1.790861-4-4-4z" fill="#ff5364"/><path id="Rectangle-path" d="m0 32h16v8h-16z" fill="#f0c419"/><path id="Rectangle-path" d="m22 32h36v8h-36z" fill="#f0c419"/><path id="Shape" d="m41 12c-1.0212692-.0014378-1.8774065-.7720901-1.9858725-1.7875841-.108466-1.01549397.5655856-1.94958745 1.5635114-2.16669761.9979259-.21711016 1.9991281.35251277 2.3223611 1.32128171.1128959.33940232.398285.59279373.748664.6647242.350379.0719304.712517-.04852815.95-.31600005.2374831-.2674719.3142319-.64132184.201336-.98072415-.4297309-1.28689977-1.4848377-2.26664175-2.8-2.6v-1.135c0-.55228475-.4477153-1-1-1s-1 .44771525-1 1v1.142c-1.9482742.50144572-3.2190002 2.37428054-2.9650329 4.3699561.2539674 1.9956755 1.953264 3.4905487 3.9650329 3.4880439 1.0212692.0014378 1.8774065.7720901 1.9858725 1.7875841s-.5655856 1.9495875-1.5635114 2.1666976c-.9979259.2171102-1.9991281-.3525128-2.3223611-1.3212817-.1128959-.3394023-.398285-.5927937-.748664-.6647242-.350379-.0719304-.712517.0485282-.95.3160001-.2374831.2674719-.3142319.6413218-.201336.9807241.4297309 1.2868998 1.4848377 2.2666417 2.8 2.6v1.135c0 .5522847.4477153 1 1 1s1-.4477153 1-1v-1.142c1.9482742-.5014457 3.2190002-2.3742805 2.9650329-4.3699561-.2539674-1.9956755-1.953264-3.4905487-3.9650329-3.4880439z" fill="#ecf0f1"/><path id="Shape" d="m55 16c0-2.209139-1.790861-4-4-4-1.0212692-.0014378-1.8774065-.7720901-1.9858725-1.7875841-.108466-1.01549397.5655856-1.94958745 1.5635114-2.16669761.9979259-.21711016 1.9991281.35251277 2.3223611 1.32128171.1128959.33940232.398285.59279373.748664.6647242.350379.0719304.712517-.04852815.95-.31600005.2374831-.2674719.3142319-.64132184.201336-.98072415-.4297309-1.28689977-1.4848377-2.26664175-2.8-2.6v-1.135c0-.55228475-.4477153-1-1-1s-1 .44771525-1 1v1.142c-1.9482742.50144572-3.2190002 2.37428054-2.9650329 4.3699561.2539674 1.9956755 1.953264 3.4905487 3.9650329 3.4880439 1.0212692.0014378 1.8774065.7720901 1.9858725 1.7875841s-.5655856 1.9495875-1.5635114 2.1666976c-.9979259.2171102-1.9991281-.3525128-2.3223611-1.3212817-.1128959-.3394023-.398285-.5927937-.748664-.6647242-.350379-.0719304-.712517.0485282-.95.3160001-.2374831.2674719-.3142319.6413218-.201336.9807241.4297309 1.2868998 1.4848377 2.2666417 2.8 2.6v1.135c0 .5522847.4477153 1 1 1s1-.4477153 1-1v-1.142c1.7606851-.4545933 2.9931852-2.0395884 3-3.858z" fill="#ecf0f1"/><path id="Shape" d="m16 46v-24.63-13.7-7.67h6v7.67 13.7 24.63z" fill="#f3d55b"/><path id="Shape" d="m25.982 16.015c1.477 1.311 5.018 3.933 6.018 8.985l-4.54-1.81c-.254048-.1035675-.5440997.0169155-.65.27l-1.81 4.54s-1.42-6.4-5.46-9c0-.0026522-.0010536-.0051957-.0029289-.0070711-.0018754-.0018753-.0044189-.0029289-.0070711-.0029289h-1.06c-.0026522 0-.0051957.0010536-.0070711.0029289-.0018753.0018754-.0029289.0044189-.0029289.0070711-4.04 2.6-5.46 9-5.46 9l-1.81-4.54c-.1059003-.2530845-.395952-.3735675-.65-.27l-4.54 1.81c.94-4.727 4.115-7.334 5.7-8.744z" fill="#f29c1f"/><path id="Shape" d="m19.52 12c.84-2.43 3.01-6.7 8.04-6.99.4006913-.03005199.8012075.06049951 1.15.26 2.3369012 1.14786757 4.1648455 3.12190489 5.13 5.54.3051074.8425479.1860086 1.780451-.32 2.52-1.029625 1.5336493-2.3982488 2.8098909-4 3.73-2.0021985 1.125645-4.417197 1.2441725-6.52.32z" fill="#f0c419"/><path id="Shape" d="m22.94 15.451c-.4781994.0014557-.8905059-.3358504-.9838203-.8048591-.0933145-.4690088.1584816-.9384454.6008203-1.1201409 1.7402046-.6730679 3.186419-1.9397009 4.083-3.576-.3359813-.12920449-.5765939-.42901545-.63-.785-.0794706-.5488175.2979776-1.05922015.846-1.144.6743925-.09251531 1.3561339.10803969 1.873.551.2340023.29058857.3187204.67385496.229 1.036-.948401 2.6512852-3.0062066 4.7569298-5.635 5.766-.1213628.0505969-.2515126.0767628-.383.077z" fill="#f29c1f"/><path id="Shape" d="m18.48 12c-.84-2.43-3.01-6.7-8.04-6.99-.4006913-.03005199-.80120755.06049951-1.15.26-2.3369012 1.14786757-4.1648455 3.12190489-5.13 5.54-.30510741.8425479-.1860086 1.780451.32 2.52 1.10881692 1.6663674 2.62742346 3.0196834 4.41 3.93 1.9181254.9439808 4.1562886.9879382 6.11.12z" fill="#f0c419"/><path id="Shape" d="m15.06 15.451c-.1314874-.0002372-.2616372-.0264031-.383-.077-2.6190124-1.0038758-4.672028-3.0970393-5.625-5.735-.10244237-.36132129-.02830549-.74979853.2-1.048.51420878-.45961195 1.2053612-.66827555 1.888-.57.4469276.06806131.7926072.42750646.8431735.87674989.0505662.44924342-.206559.87653945-.6271735 1.04225011.8954611 1.6409865 2.3435062 2.9115248 4.087 3.586.4423387.1816955.6941348.6511321.6008203 1.1201409-.0933144.4690087-.5056209.8063148-.9838203.8048591zm-4.116-6.461.006.018z" fill="#f29c1f"/><path id="Shape" d="m23 15v2.5c-.0293468.8552563-.7446304 1.5258347-1.6 1.5h-4.8c-.8553696.0258347-1.5706532-.6447437-1.6-1.5-.0755954-1.0163013-.0555071-2.0374581.06-3.05.3296522-1.4602317 1.6434373-2.4853188 3.14-2.45h1.6c1.7105294-.0511147 3.1407665 1.2897325 3.2 3z" fill="#f3d55b"/></g></g></svg>