<svg height="512" viewBox="0 0 60 58" width="512" xmlns="http://www.w3.org/2000/svg"><g id="Page-1" fill="none" fill-rule="evenodd"><g id="025---Car-Present" fill-rule="nonzero" transform="translate(-1)"><path id="Shape" d="m6 51h10v5c0 1.1045695-.8954305 2-2 2h-6c-1.1045695 0-2-.8954305-2-2z" fill="#3f5c6c"/><path id="Shape" d="m46 51h10v5c0 1.1045695-.8954305 2-2 2h-6c-1.1045695 0-2-.8954305-2-2z" fill="#3f5c6c"/><path id="Shape" d="m45 5.4c1.4192149-1.02823416 2.7565572-2.16497512 4-3.4l1 5 5-1c-1.7150109 4.643103-6.0543689 7.7989997-11 8l-13 2.5-13-2.5c-4.9456311-.2010003-9.28498907-3.356897-11-8l5 1 1-5c1.2434428 1.23502488 2.5807851 2.37176584 4 3.4l14 4z" fill="#f29c1f"/><path id="Shape" d="m52 30-21-7-21 7-4.561 3.8c-.91190331.7600514-1.43909899 1.8858834-1.439 3.073v12.127h54v-12.127c.000099-1.1871166-.5270967-2.3129486-1.439-3.073z" fill="#e64c3c"/><path id="Shape" d="m52 30h-42l2.39-12.74c.3521633-1.8923663 2.0051477-3.2635441 3.93-3.26h29.36c1.9248523-.0035441 3.5778367 1.3676337 3.93 3.26z" fill="#2fa8cc"/><rect id="Rectangle-path" fill="#95a5a5" height="4" rx="2" width="58" x="2" y="48"/><path id="Shape" d="m38.81 14c.07 5.21-1.72 12.01-10.21 16h-18.6l2.39-12.74c.3521633-1.8923663 2.0051477-3.2635441 3.93-3.26z" fill="#67b9cc"/><g fill="#f0c419"><path id="Shape" d="m8.707 14.293c-.39049985-.3903819-1.02350015-.3903819-1.414 0l-.293.293-.293-.293c-.39237889-.3789722-1.01608478-.3735524-1.40181858.0121814-.38573379.3857338-.39115363 1.0094397-.01218142 1.4018186l.293.293-.293.293c-.25995658.2510745-.3642126.6228779-.27269716.9725073.09151544.3496295.3645604.6226744.71418984.7141899.34962943.0915154.72143285-.0127406.97250732-.2726972l.293-.293.293.293c.25107447.2599566.62287789.3642126.97250732.2726972.34962944-.0915155.6226744-.3645604.71418984-.7141899.09151544-.3496294-.01274058-.7214328-.27269716-.9725073l-.293-.293.293-.293c.39038194-.3904999.39038194-1.0235001 0-1.414z"/><path id="Shape" d="m6.707 21.293c-.39049985-.3903819-1.02350015-.3903819-1.414 0l-.293.293-.293-.293c-.39237889-.3789722-1.01608478-.3735524-1.40181858.0121814-.38573379.3857338-.39115363 1.0094397-.01218142 1.4018186l.293.293-.293.293c-.25995658.2510745-.3642126.6228779-.27269716.9725073.09151544.3496295.3645604.6226744.71418984.7141899.34962943.0915154.72143285-.0127406.97250732-.2726972l.293-.293.293.293c.25107447.2599566.62287789.3642126.97250732.2726972.34962944-.0915155.6226744-.3645604.71418984-.7141899.09151544-.3496294-.01274058-.7214328-.27269716-.9725073l-.293-.293.293-.293c.39038194-.3904999.39038194-1.0235001 0-1.414z"/><path id="Shape" d="m3.293 11.707c.25107447.2599566.62287789.3642126.97250732.2726972.34962944-.0915155.6226744-.3645604.71418984-.7141899.09151544-.3496294-.01274058-.7214328-.27269716-.9725073l-.293-.293.293-.293c.37897221-.39237889.37355237-1.01608478-.01218142-1.40181858-.3857338-.38573379-1.00943969-.39115363-1.40181858-.01218142l-.293.293-.293-.293c-.25107447-.25995658-.62287789-.3642126-.97250732-.27269716-.34962944.09151544-.6226744.3645604-.71418984.71418984-.09151544.34962943.01274058.72143285.27269716.97250732l.293.293-.293.293c-.25995658.2510745-.3642126.6228779-.27269716.9725073.09151544.3496295.3645604.6226744.71418984.7141899.34962943.0915154.72143285-.0127406.97250732-.2726972l.293-.293z"/><path id="Shape" d="m60.414 10 .293-.293c.3789722-.39237889.3735524-1.01608478-.0121814-1.40181858-.3857338-.38573379-1.0094397-.39115363-1.4018186-.01218142l-.293.293-.293-.293c-.3923789-.37897221-1.0160848-.37355237-1.4018186.01218142-.3857338.3857338-.3911536 1.00943969-.0121814 1.40181858l.293.293-.293.293c-.2599566.2510745-.3642126.6228779-.2726972.9725073.0915155.3496295.3645604.6226744.7141899.7141899.3496294.0915154.7214328-.0127406.9725073-.2726972l.293-.293.293.293c.3923789.3789722 1.0160848.3735524 1.4018186-.0121814s.3911536-1.0094397.0121814-1.4018186z"/><path id="Shape" d="m31 14v-5s0-6.66-7.424-8.844c-.4169217-.11915536-.8614778-.09771827-1.265.061-1.365.525-4.425 2.2-6.054 6.964-.1898904.58032439-.0981795 1.21601437.248 1.719.995 1.487 3.633 4.367 9.495 5.1z"/><path id="Shape" d="m31 14v-5s0-6.66 7.424-8.844c.4169217-.11915536.8614778-.09771827 1.265.061 1.365.525 4.425 2.2 6.054 6.964.1913402.57955602.1014863 1.21518908-.243 1.719-1 1.487-3.638 4.367-9.5 5.1z"/></g><path id="Shape" d="m28.691 10.5c-.3313553.000511-.6414471-.1631485-.828-.437-.9245852-1.28396202-2.0848532-2.38043054-3.419-3.231-.297245-.19863967-.4659376-.54076859-.4425331-.89751012s.2353505-.67389814.556-.832c.3206494-.15810187.7012881-.13312955.9985331.06551012 1.5472166.99442041 2.8913892 2.27377679 3.961 3.77.2080361.30618174.2299155.70223845.0568713 1.02947227-.1730443.32723383-.5127009.53210693-.8828713.53252773z" fill="#f29c1f"/><path id="Shape" d="m33.309 10.5c-.3701704-.0004208-.709827-.2052939-.8828713-.53252773-.1730442-.32723382-.1511648-.72329053.0568713-1.02947227 1.0696108-1.49622321 2.4137834-2.77557959 3.961-3.77.4595009-.30707032 1.0809297-.18350091 1.388.276s.1835009 1.08092968-.276 1.388c-1.3341468.85056946-2.4944148 1.94703798-3.419 3.231-.1865529.2738515-.4966447.437511-.828.437z" fill="#f29c1f"/><path id="Shape" d="m5 36h10c.5522847 0 1 .4477153 1 1v2c0 1.1045695-.8954305 2-2 2h-8c-1.1045695 0-2-.8954305-2-2v-2c0-.5522847.44771525-1 1-1z" fill="#f0c419"/><path id="Shape" d="m47 36h10c.5522847 0 1 .4477153 1 1v2c0 1.1045695-.8954305 2-2 2h-8c-1.1045695 0-2-.8954305-2-2v-2c0-.5522847.4477153-1 1-1z" fill="#f0c419"/><path id="Shape" d="m23 44h16c.5522847 0 1 .4477153 1 1v3h-18v-3c0-.5522847.4477153-1 1-1z" fill="#ecf0f1"/><path id="Shape" d="m34 17h-2v-3h-2v3h-2c-.5522847 0-1 .4477153-1 1s.4477153 1 1 1h6c.5522847 0 1-.4477153 1-1s-.4477153-1-1-1z" fill="#c03a2b"/><path id="Shape" d="m16 20c-.4043959-.0000863-.7689341-.2437275-.923678-.6173454-.1547439-.373618-.0692299-.8036603.216678-1.0896546l1-1c.3923789-.3789722 1.0160848-.3735524 1.4018186.0121814s.3911536 1.0094397.0121814 1.4018186l-1 1c-.1874927.1875494-.4418052.2929434-.707.293z" fill="#9fc9d3"/><path id="Shape" d="m16 25c-.4043959-.0000863-.7689341-.2437275-.923678-.6173454-.1547439-.373618-.0692299-.8036603.216678-1.0896546l6-6c.3923789-.3789722 1.0160848-.3735524 1.4018186.0121814s.3911536 1.0094397.0121814 1.4018186l-6 6c-.1874927.1875494-.4418052.2929434-.707.293z" fill="#9fc9d3"/><path id="Shape" d="m32 37h-2c-.5522847 0-1-.4477153-1-1s.4477153-1 1-1h2c.5522847 0 1 .4477153 1 1s-.4477153 1-1 1z" fill="#f0c419"/><path id="Shape" d="m55.293 17.707c.3923789.3789722 1.0160848.3735524 1.4018186-.0121814s.3911536-1.0094397.0121814-1.4018186l-.293-.293.293-.293c.3789722-.3923789.3735524-1.0160848-.0121814-1.4018186s-1.0094397-.3911536-1.4018186-.0121814l-.293.293-.293-.293c-.3923789-.3789722-1.0160848-.3735524-1.4018186.0121814s-.3911536 1.0094397-.0121814 1.4018186l.293.293-.293.293c-.2599566.2510745-.3642126.6228779-.2726972.9725073.0915155.3496295.3645604.6226744.7141899.7141899.3496294.0915154.7214328-.0127406.9725073-.2726972l.293-.293z" fill="#f0c419"/><path id="Shape" d="m58.707 21.293c-.3904999-.3903819-1.0235001-.3903819-1.414 0l-.293.293-.293-.293c-.3923789-.3789722-1.0160848-.3735524-1.4018186.0121814s-.3911536 1.0094397-.0121814 1.4018186l.293.293-.293.293c-.2599566.2510745-.3642126.6228779-.2726972.9725073.0915155.3496295.3645604.6226744.7141899.7141899.3496294.0915154.7214328-.0127406.9725073-.2726972l.293-.293.293.293c.3923789.3789722 1.0160848.3735524 1.4018186-.0121814s.3911536-1.0094397.0121814-1.4018186l-.293-.293.293-.293c.3903819-.3904999.3903819-1.0235001 0-1.414z" fill="#f0c419"/><path id="Shape" d="m30 9h2c1.1045695 0 2 .8954305 2 2v3h-6v-3c0-1.1045695.8954305-2 2-2z" fill="#f3d55b"/></g></g></svg>