<svg height="512" viewBox="0 0 44 58" width="512" xmlns="http://www.w3.org/2000/svg"><g id="Page-1" fill="none" fill-rule="evenodd"><g id="026---Mobile-Phone-Present" fill-rule="nonzero"><path id="Shape" d="m39 25.11v28.89c0 2.209139-1.790861 4-4 4h-30c-1.93901588-.0011916-3.59867541-1.3912618-3.94-3.3-.04024401-.2311542-.06031956-.465369-.06-.7v-50c0-2.209139 1.790861-4 4-4h30c1.6449599-.00087103 3.1219453 1.00760823 3.72 2.54z" fill="#84b5cb"/><path id="Shape" d="m1.06 54.7c-.04024401-.2311542-.06031956-.465369-.06-.7v-50c0-2.209139 1.790861-4 4-4h24.33c3.54 14.27 6.71 45.13-28.27 54.7z" fill="#9fc9d3"/><path id="Shape" d="m9 0h22v2c0 1.1045695-.8954305 2-2 2h-18c-1.1045695 0-2-.8954305-2-2z" fill="#3b97d3"/><path id="Shape" d="m5 11c-.4043959-.0000863-.76893405-.2437275-.92367798-.6173454-.15474393-.373618-.06922994-.80366035.21667798-1.0896546l2-2c.39237889-.37897221 1.01608478-.37355237 1.40181858.01218142.38573379.3857338.39115363 1.00943969.01218142 1.40181858l-2 2c-.18749273.1875494-.44180519.2929434-.707.293z" fill="#ecf0f1"/><path id="Shape" d="m5 17c-.4043959-.0000863-.76893405-.2437275-.92367798-.6173454-.15474393-.373618-.06922994-.8036603.21667798-1.0896546l8-8c.3923789-.37897221 1.0160848-.37355237 1.4018186.01218142.3857338.3857338.3911536 1.00943969.0121814 1.40181858l-8 8c-.18749273.1875494-.44180519.2929434-.707.293z" fill="#ecf0f1"/><path id="Shape" d="m38.72 2.54c.302167-.08813204.6281942-.02885438.88.16s.4.4852427.4.8v11.08l-8.99 11.66c-.1.034.993-.758-29.41 22.06-.30301765.2272632-.70842957.2638192-1.04721359.0944272-.33878403-.169392-.55278641-.5156551-.55278641-.8944272v-15.5c.00216564-.3142421.14990569-.6097222.4-.8l21.1-15.83h.01c15.664-11.745 17.1-12.8 17.21-12.83z" fill="#ff5364"/><path id="Shape" d="m33.937 20.425c2.887 3.949-.537 9.575-.537 9.575l-1.6-3.8-3.6.2c2.0105098-2.2294149 2.9585592-5.2194169 2.6-8.2l-1.2-1.6c-2.7609632-1.1787801-5.896819-1.1058532-8.6.2l1.2-3.4-3.2-2.6s6.359-1.712 9.342 2.165z" fill="#f29c1f"/><path id="Shape" d="m33.4 15s4-3 1.4-9.8c0 0-3.452-3.088-8.624.258-.5469539.34323309-.8936009.93029647-.93 1.575-.056 1.405.317 4.184 3.154 7.967z" fill="#f0c419"/><path id="Shape" d="m30.916 15.208c-.3948719-.0001036-.7527075-.2325625-.9133007-.5933029-.1605933-.3607404-.0938686-.7822037.1703007-1.0756971.162-.18.963-1.2.828-3.685-.0192924-.3572656.1534797-.69768497.4532346-.89302543.2997549-.19534047.6809528-.21592515 1-.054.3190473.16192514.5274731.48175983.5467654.83902543.167 3.1-.881 4.622-1.34 5.131-.1900462.2111431-.4609248.3314932-.745.331z" fill="#f29c1f"/><path id="Shape" d="m33.4 15s3.762-2.821 9.279 1.021c.3804044.2651067.6518319.6591029.764 1.109.364 1.461.609 4.881-3.643 8.07 0 0-3.6.2-7.8-5.4z" fill="#f0c419"/><path id="Shape" d="m38 18.8c-.1127897.0001695-.2247638-.019113-.331-.057-1.1644456-.5352713-2.4839126-.6284018-3.712-.262-.5086542.2156672-1.0958328-.0218458-1.3115-.5305-.2156671-.5086543.0218458-1.0958328.5305-1.3115.766-.325 2.458-.73 5.155.217.4605917.1609845.7377657.6308601.6558684 1.1118523-.0818974.4809923-.498954.832663-.9868684.8321477z" fill="#f29c1f"/><path id="Shape" d="m30.8000782 14.1999798h2c1.1045695 0 2 .8954305 2 2v2h-6v-2c0-1.1045695.8954305-2 2-2z" fill="#f3d55b" transform="matrix(.6 .8 -.8 .6 25.68 -18.96)"/><path id="Shape" d="m39 50v4c0 2.209139-1.790861 4-4 4h-30c-2.209139 0-4-1.790861-4-4v-4z" fill="#3b97d3"/><rect id="Rectangle-path" fill="#2980ba" height="4" rx="2" width="12" x="14" y="54"/></g></g></svg>