<svg height="512" viewBox="0 0 58 58" width="512" xmlns="http://www.w3.org/2000/svg"><g id="Page-1" fill="none" fill-rule="evenodd"><g id="027---Present-Chat" fill-rule="nonzero"><path id="Shape" d="m58 4v42c0 2.209139-1.790861 4-4 4h-33.14l-12.33 7.85c-.30857286.1928596-.69755253.2028789-1.01564494.0261609s-.51508414-.512277-.51435506-.8761609v-7h-3c-2.209139 0-4-1.790861-4-4v-42c0-2.209139 1.790861-4 4-4h50c2.209139 0 4 1.790861 4 4z" fill="#3b97d3"/><path id="Shape" d="m24.88 49.84-.25.16h-3.72l2.89-1.84c.4618613-.2634624 1.0491348-.1194165 1.3366675.3278566s.1747642 1.041346-.2566675 1.3521434z" fill="#2980ba"/><path id="Shape" d="m7 48v2h-2v-2c0-.5522847.44771525-1 1-1s1 .4477153 1 1z" fill="#2980ba"/><path id="Shape" d="m15 21h28v21c0 .5522847-.4477153 1-1 1h-26c-.5522847 0-1-.4477153-1-1z" fill="#e64c3c"/><path id="Shape" d="m41 17c1 0 5-1 8-6h-4l-1-4-3.55 2.84-11.45 3.16-11.45-3.16-3.55-2.84-1 4h-4c3 5 7 6 8 6l12 2z" fill="#f29c1f"/><g fill="#f3d55b"><path id="Shape" d="m8.293 19.707c.39237889.3789722 1.01608478.3735524 1.40181858-.0121814.38573382-.3857338.39115362-1.0094397.01218142-1.4018186l-.293-.293.293-.293c.3789722-.3923789.3735524-1.0160848-.01218142-1.4018186-.3857338-.3857338-1.00943969-.3911536-1.40181858-.0121814l-.293.293-.293-.293c-.25107447-.2599566-.62287789-.3642126-.97250732-.2726972-.34962944.0915155-.6226744.3645604-.71418984.7141899-.09151544.3496294.01274058.7214328.27269716.9725073l.293.293-.293.293c-.25995658.2510745-.3642126.6228779-.27269716.9725073.09151544.3496295.3645604.6226744.71418984.7141899.34962943.0915154.72143285-.0127406.97250732-.2726972l.293-.293z"/><path id="Shape" d="m11.414 30 .293-.293c.3789722-.3923789.3735524-1.0160848-.0121814-1.4018186s-1.0094397-.3911536-1.4018186-.0121814l-.293.293-.293-.293c-.39237889-.3789722-1.01608478-.3735524-1.40181858.0121814-.38573379.3857338-.39115363 1.0094397-.01218142 1.4018186l.293.293-.293.293c-.25995658.2510745-.3642126.6228779-.27269716.9725073.09151544.3496295.3645604.6226744.71418984.7141899.34962943.0915154.72143285-.0127406.97250732-.2726972l.293-.293.293.293c.3923789.3789722 1.0160848.3735524 1.4018186-.0121814s.3911536-1.0094397.0121814-1.4018186z"/><path id="Shape" d="m6.707 22.293c-.39049985-.3903819-1.02350015-.3903819-1.414 0l-.293.293-.293-.293c-.39237889-.3789722-1.01608478-.3735524-1.40181858.0121814-.38573379.3857338-.39115363 1.0094397-.01218142 1.4018186l.293.293-.293.293c-.25995658.2510745-.3642126.6228779-.27269716.9725073.09151544.3496295.3645604.6226744.71418984.7141899.34962943.0915154.72143285-.0127406.97250732-.2726972l.293-.293.293.293c.25107447.2599566.62287789.3642126.97250732.2726972.34962944-.0915155.6226744-.3645604.71418984-.7141899.09151544-.3496294-.01274058-.7214328-.27269716-.9725073l-.293-.293.293-.293c.39038194-.3904999.39038194-1.0235001 0-1.414z"/><path id="Shape" d="m51 20c.4043959-.0000863.7689341-.2437275.923678-.6173454.1547439-.373618.0692299-.8036603-.216678-1.0896546l-.293-.293.293-.293c.3789722-.3923789.3735524-1.0160848-.0121814-1.4018186s-1.0094397-.3911536-1.4018186-.0121814l-.293.293-.293-.293c-.3923789-.3789722-1.0160848-.3735524-1.4018186.0121814s-.3911536 1.0094397-.0121814 1.4018186l.293.293-.293.293c-.2599566.2510745-.3642126.6228779-.2726972.9725073.0915155.3496295.3645604.6226744.7141899.7141899.3496294.0915154.7214328-.0127406.9725073-.2726972l.293-.293.293.293c.1874927.1875494.4418052.2929434.707.293z"/><path id="Shape" d="m49.707 28.293c-.3904999-.3903819-1.0235001-.3903819-1.414 0l-.293.293-.293-.293c-.3923789-.3789722-1.0160848-.3735524-1.4018186.0121814s-.3911536 1.0094397-.0121814 1.4018186l.293.293-.293.293c-.2599566.2510745-.3642126.6228779-.2726972.9725073.0915155.3496295.3645604.6226744.7141899.7141899.3496294.0915154.7214328-.0127406.9725073-.2726972l.293-.293.293.293c.3923789.3789722 1.0160848.3735524 1.4018186-.0121814s.3911536-1.0094397.0121814-1.4018186l-.293-.293.293-.293c.3903819-.3904999.3903819-1.0235001 0-1.414z"/><path id="Shape" d="m54.414 24 .293-.293c.3789722-.3923789.3735524-1.0160848-.0121814-1.4018186s-1.0094397-.3911536-1.4018186-.0121814l-.293.293-.293-.293c-.3923789-.3789722-1.0160848-.3735524-1.4018186.0121814s-.3911536 1.0094397-.0121814 1.4018186l.293.293-.293.293c-.2599566.2510745-.3642126.6228779-.2726972.9725073.0915155.3496295.3645604.6226744.7141899.7141899.3496294.0915154.7214328-.0127406.9725073-.2726972l.293-.293.293.293c.3923789.3789722 1.0160848.3735524 1.4018186-.0121814s.3911536-1.0094397.0121814-1.4018186z"/></g><path id="Shape" d="m19 40c-.5522847 0-1-.4477153-1-1v-2c0-.5522847.4477153-1 1-1s1 .4477153 1 1v2c0 .5522847-.4477153 1-1 1z" fill="#c03a2b"/><path id="Shape" d="m19 34c-.5522847 0-1-.4477153-1-1v-6c0-.5522847.4477153-1 1-1s1 .4477153 1 1v6c0 .5522847-.4477153 1-1 1z" fill="#c03a2b"/><path id="Shape" d="m39 40c-.5522847 0-1-.4477153-1-1v-2c0-.5522847.4477153-1 1-1s1 .4477153 1 1v2c0 .5522847-.4477153 1-1 1z" fill="#c03a2b"/><path id="Shape" d="m39 34c-.5522847 0-1-.4477153-1-1v-6c0-.5522847.4477153-1 1-1s1 .4477153 1 1v6c0 .5522847-.4477153 1-1 1z" fill="#c03a2b"/><path id="Shape" d="m29.571 17-.571-4s-.917-6.419-6.263-7.841c-.4909253-.13676662-1.0150494-.08762999-1.472.138-1.142.574-3.3 2.146-4.139 6.043-.094403.4579012-.0201797.9344928.209 1.342.754 1.368 2.824 4.318 6.665 4.318z" fill="#f0c419"/><path id="Shape" d="m28.429 17 .571-4s.917-6.419 6.263-7.841c.4909253-.13676662 1.0150494-.08762999 1.472.138 1.142.574 3.3 2.146 4.139 6.043.094403.4579012.0201797.9344928-.209 1.342-.754 1.368-2.824 4.318-6.665 4.318z" fill="#f0c419"/><path id="Shape" d="m28 13h2c1.1045695 0 2 .8954305 2 2v2h-6v-2c0-1.1045695.8954305-2 2-2z" fill="#f3d55b"/><path id="Shape" d="m15 17h28c1.1045695 0 2 .8954305 2 2v3c0 .5522847-.4477153 1-1 1h-30c-.5522847 0-1-.4477153-1-1v-3c0-1.1045695.8954305-2 2-2z" fill="#e64c3c"/><path id="Rectangle-path" d="m25 17h8v6h-8z" fill="#f0c419"/><path id="Rectangle-path" d="m15 23h28v2h-28z" fill="#c03a2b"/><path id="Rectangle-path" d="m26 23h6v20h-6z" fill="#f29c1f"/></g></g></svg>