<svg height="512" viewBox="0 0 58 60" width="512" xmlns="http://www.w3.org/2000/svg"><g id="Page-1" fill="none" fill-rule="evenodd"><g id="028---Circle-Present" fill-rule="nonzero" transform="translate(-1)"><circle id="Oval" cx="30" cy="30" fill="#f0c419" r="29"/><path id="Shape" d="m31 5c0-.55228475-.4477153-1-1-1-14.3527783.01598214-25.98401786 11.6472217-26 26 0 .5522847.44771525 1 1 1s1-.4477153 1-1c.01542952-13.2484376 10.7515624-23.98457048 24-24 .5522847 0 1-.44771525 1-1z" fill="#f29c1f"/><path id="Shape" d="m55 29c-.5522847 0-1 .4477153-1 1-.0154295 13.2484376-10.7515624 23.9845705-24 24-.5522847 0-1 .4477153-1 1s.4477153 1 1 1c14.3527783-.0159821 25.9840179-11.6472217 26-26 0-.5522847-.4477153-1-1-1z" fill="#f29c1f"/><path id="Shape" d="m55.5 16.16v.01c-10.03 8.04-10.62 8.53-44.51 35.72-2.03027294-1.7533991-3.80426119-3.7832187-5.27-6.03 33.29-26.73 31.77-25.49 45.01-36.13 1.8825394 1.9100051 3.4881503 4.0743821 4.77 6.43z" fill="#c03a2b"/><g fill="#2fa8cc"><path id="Shape" d="m1.293 10.707c.39049985.3903819 1.02350015.3903819 1.414 0l.293-.293.293.293c.25107447.2599566.62287789.3642126.97250732.2726972.34962944-.0915155.6226744-.3645604.71418984-.7141899.09151544-.34962941-.01274058-.72143283-.27269716-.9725073l-.293-.293.293-.293c.25995658-.25107447.3642126-.62287789.27269716-.97250732-.09151544-.34962944-.3645604-.6226744-.71418984-.71418984-.34962943-.09151544-.72143285.01274058-.97250732.27269716l-.293.293-.293-.293c-.25107447-.25995658-.62287789-.3642126-.97250732-.27269716-.34962944.09151544-.6226744.3645604-.71418984.71418984-.09151544.34962943.01274058.72143285.27269716.97250732l.293.293-.293.293c-.39038194.39049985-.39038194 1.0235001 0 1.414z"/><path id="Shape" d="m5.293 3.707c.39049985.39038194 1.02350015.39038194 1.414 0l.293-.293.293.293c.39237889.37897221 1.01608478.37355237 1.40181858-.01218142.38573379-.3857338.39115363-1.00943969.01218142-1.40181858l-.293-.293.293-.293c.37897221-.39237889.37355237-1.01608478-.01218142-1.40181857-.3857338-.3857338-1.00943969-.39115364-1.40181858-.01218143l-.293.293-.293-.293c-.39237889-.37897221-1.01608478-.37355237-1.40181858.01218143-.38573379.38573379-.39115363 1.00943968-.01218142 1.40181857l.293.293-.293.293c-.39038194.39049985-.39038194 1.02350015 0 1.414z"/><path id="Shape" d="m4.707 50.293c-.39049985-.3903819-1.02350015-.3903819-1.414 0l-.293.293-.293-.293c-.39237889-.3789722-1.01608478-.3735524-1.40181858.0121814-.38573379.3857338-.39115363 1.0094397-.01218142 1.4018186l.293.293-.293.293c-.25995658.2510745-.3642126.6228779-.27269716.9725073.09151544.3496295.3645604.6226744.71418984.7141899.34962943.0915154.72143285-.0127406.97250732-.2726972l.293-.293.293.293c.25107447.2599566.62287789.3642126.97250732.2726972.34962944-.0915155.6226744-.3645604.71418984-.7141899.09151544-.3496294-.01274058-.7214328-.27269716-.9725073l-.293-.293.293-.293c.39038194-.3904999.39038194-1.0235001 0-1.414z"/><path id="Shape" d="m10.707 56.293c-.3904999-.3903819-1.02350015-.3903819-1.414 0l-.293.293-.293-.293c-.25107447-.2599566-.62287789-.3642126-.97250732-.2726972-.34962944.0915155-.6226744.3645604-.71418984.7141899-.09151544.3496294.01274058.7214328.27269716.9725073l.293.293-.293.293c-.25995658.2510745-.3642126.6228779-.27269716.9725073.09151544.3496295.3645604.6226744.71418984.7141899.34962943.0915154.72143285-.0127406.97250732-.2726972l.293-.293.293.293c.39237889.3789722 1.0160848.3735524 1.4018186-.0121814s.3911536-1.0094397.0121814-1.4018186l-.293-.293.293-.293c.3903819-.3904999.3903819-1.0235001 0-1.414z"/><path id="Shape" d="m58.707 50.293c-.3904999-.3903819-1.0235001-.3903819-1.414 0l-.293.293-.293-.293c-.3923789-.3789722-1.0160848-.3735524-1.4018186.0121814s-.3911536 1.0094397-.0121814 1.4018186l.293.293-.293.293c-.2599566.2510745-.3642126.6228779-.2726972.9725073.0915155.3496295.3645604.6226744.7141899.7141899.3496294.0915154.7214328-.0127406.9725073-.2726972l.293-.293.293.293c.3923789.3789722 1.0160848.3735524 1.4018186-.0121814s.3911536-1.0094397.0121814-1.4018186l-.293-.293.293-.293c.3903819-.3904999.3903819-1.0235001 0-1.414z"/><path id="Shape" d="m52.707 56.293c-.3904999-.3903819-1.0235001-.3903819-1.414 0l-.293.293-.293-.293c-.3923789-.3789722-1.0160848-.3735524-1.4018186.0121814s-.3911536 1.0094397-.0121814 1.4018186l.293.293-.293.293c-.2599566.2510745-.3642126.6228779-.2726972.9725073.0915155.3496295.3645604.6226744.7141899.7141899.3496294.0915154.7214328-.0127406.9725073-.2726972l.293-.293.293.293c.3923789.3789722 1.0160848.3735524 1.4018186-.0121814s.3911536-1.0094397.0121814-1.4018186l-.293-.293.293-.293c.3903819-.3904999.3903819-1.0235001 0-1.414z"/><path id="Shape" d="m58.414 9 .293-.293c.2599566-.25107447.3642126-.62287789.2726972-.97250732-.0915155-.34962944-.3645604-.6226744-.7141899-.71418984-.3496294-.09151544-.7214328.01274058-.9725073.27269716l-.293.293-.293-.293c-.2510745-.25995658-.6228779-.3642126-.9725073-.27269716-.3496295.09151544-.6226744.3645604-.7141899.71418984-.0915154.34962943.0127406.72143285.2726972.97250732l.293.293-.293.293c-.2599566.25107447-.3642126.62287789-.2726972.9725073.0915155.3496295.3645604.6226744.7141899.7141899.3496294.0915154.7214328-.0127406.9725073-.2726972l.293-.293.293.293c.3923789.3789722 1.0160848.3735524 1.4018186-.0121814s.3911536-1.00943971.0121814-1.4018186z"/><path id="Shape" d="m51.293 3.707c.3904999.39038194 1.0235001.39038194 1.414 0l.293-.293.293.293c.3923789.37897221 1.0160848.37355237 1.4018186-.01218142.3857338-.3857338.3911536-1.00943969.0121814-1.40181858l-.293-.293.293-.293c.3789722-.39237889.3735524-1.01608478-.0121814-1.40181857-.3857338-.3857338-1.0094397-.39115364-1.4018186-.01218143l-.293.293-.293-.293c-.3923789-.37897221-1.0160848-.37355237-1.4018186.01218143-.3857338.38573379-.3911536 1.00943968-.0121814 1.40181857l.293.293-.293.293c-.3903819.39049985-.3903819 1.02350015 0 1.414z"/></g><path id="Shape" d="m48 25c-.0025793-1.5758396-1.2273744-2.8793716-2.8-2.98 1.0460965-1.1820755.9914647-2.9741475-.1246939-4.0903061s-2.9082306-1.1707904-4.0903061-.1246939c-.091498-1.5788375-1.3985135-2.8123008-2.98-2.8123008s-2.888502 1.2334633-2.98 2.8123008c-1.1820755-1.0460965-2.9741475-.9914647-4.0903061.1246939s-1.1707904 2.9082306-.1246939 4.0903061c-1.5788375.091498-2.8123008 1.3985135-2.8123008 2.98s1.2334633 2.888502 2.8123008 2.98c-1.0475204 1.1808316-.9950243 2.9729856.1198189 4.0904769s2.9068676 1.174239 4.0901811.1295231c.091498 1.5788375 1.3985135 2.8123008 2.98 2.8123008s2.888502-1.2334633 2.98-2.8123008c1.1768703 1.0935359 3.0080065 1.0599417 4.1439741-.0760259s1.1695618-2.9671038.0760259-4.1439741c1.5726256-.1006284 2.7974207-1.4041604 2.8-2.98z" fill="#e64c3c"/><path id="Shape" d="m38 24c-.5522847 0-1-.4477153-1-1v-2c0-.5522847.4477153-1 1-1s1 .4477153 1 1v2c0 .5522847-.4477153 1-1 1z" fill="#f29c1f"/><path id="Shape" d="m42 26h-2c-.5522847 0-1-.4477153-1-1s.4477153-1 1-1h2c.5522847 0 1 .4477153 1 1s-.4477153 1-1 1z" fill="#f29c1f"/><path id="Shape" d="m38 30c-.5522847 0-1-.4477153-1-1v-2c0-.5522847.4477153-1 1-1s1 .4477153 1 1v2c0 .5522847-.4477153 1-1 1z" fill="#f29c1f"/><path id="Shape" d="m36 26h-2c-.5522847 0-1-.4477153-1-1s.4477153-1 1-1h2c.5522847 0 1 .4477153 1 1s-.4477153 1-1 1z" fill="#f29c1f"/><circle id="Oval" cx="38" cy="25" fill="#f0c419" r="3"/></g></g></svg>