<svg height="512" viewBox="0 0 58 58" width="512" xmlns="http://www.w3.org/2000/svg"><g id="Page-1" fill="none" fill-rule="evenodd"><g id="029---Gem-Present" fill-rule="nonzero"><path id="Shape" d="m57.5 13.76c-12.395-14.038-11.589-13.139-11.73-13.26-.3755005-.3231302-.8546078-.50057738-1.35-.5h-30.84c-.4953922-.00057738-.9744995.1768698-1.35.5-.142.121.663-.776-11.73 13.26-.64319743.7393855-.65589854 1.8359145-.03 2.59l27.55 32.63c1.527-.012 1.092-.01 1.95-.01l27.56-32.62c.6258985-.7540855.6131974-1.8506145-.03-2.59z" fill="#2fa8cc"/><path id="Shape" d="m29-.0000014-10 15.0000014-6.77-14.5c.3755005-.3231302.8546078-.50057738 1.35-.5z" fill="#67b9cc"/><path id="Shape" d="m45.77.5-6.77 14.5-10-15.0000014 15.42.0000014c.4953922-.00057738.9744995.1768698 1.35.5z" fill="#67b9cc"/><path id="Shape" d="m57.99 15c.0258961.4923994-.1388378.9758575-.46 1.35l-27.56 32.62h-.68l-.3-.97v-.01l10.01-32.99z" fill="#2980ba"/><path id="Shape" d="m29.29 48.97-1.27.01-27.55-32.63c-.32116219-.3741425-.48589609-.8576006-.46-1.35h18.99l9.99 32.99v.01z" fill="#2980ba"/><path id="Shape" d="m39 15-10.01 32.99-9.99-32.99z" fill="#3b97d3"/><path id="Shape" d="m38.014 46.008c3.7865547 1.5092856 6.4595875 4.9498682 6.986 8.992l-5-2-2 5s-2-8-8-9h-2c-6 1-8 9-8 9l-2-5-5 2c.5259702-4.0373558 3.1930379-7.4751308 6.973-8.988z" fill="#f29c1f"/><g fill="#ff5364"><path id="Shape" d="m10.707 46.293c-.3904999-.3903819-1.02350015-.3903819-1.414 0l-.293.293-.293-.293c-.39237889-.3789722-1.01608478-.3735524-1.40181858.0121814-.38573379.3857338-.39115363 1.0094397-.01218142 1.4018186l.293.293-.293.293c-.25995658.2510745-.3642126.6228779-.27269716.9725073.09151544.3496295.3645604.6226744.71418984.7141899.34962943.0915154.72143285-.0127406.97250732-.2726972l.293-.293.293.293c.39237889.3789722 1.0160848.3735524 1.4018186-.0121814s.3911536-1.0094397.0121814-1.4018186l-.293-.293.293-.293c.3903819-.3904999.3903819-1.0235001 0-1.414z"/><path id="Shape" d="m8.707 53.293c-.39049985-.3903819-1.02350015-.3903819-1.414 0l-.293.293-.293-.293c-.39237889-.3789722-1.01608478-.3735524-1.40181858.0121814-.38573379.3857338-.39115363 1.0094397-.01218142 1.4018186l.293.293-.293.293c-.25995658.2510745-.3642126.6228779-.27269716.9725073.09151544.3496295.3645604.6226744.71418984.7141899.34962943.0915154.72143285-.0127406.97250732-.2726972l.293-.293.293.293c.39237889.3789722 1.01608478.3735524 1.40181858-.0121814.38573379-.3857338.39115363-1.0094397.01218142-1.4018186l-.293-.293.293-.293c.39038194-.3904999.39038194-1.0235001 0-1.414z"/><path id="Shape" d="m5 45c.4043959-.0000863.76893405-.2437275.92367798-.6173454.15474393-.373618.06922994-.8036603-.21667798-1.0896546l-.293-.293.293-.293c.37897221-.3923789.37355237-1.0160848-.01218142-1.4018186-.3857338-.3857338-1.00943969-.3911536-1.40181858-.0121814l-.293.293-.293-.293c-.39237889-.3789722-1.01608478-.3735524-1.40181858.0121814-.38573379.3857338-.39115363 1.0094397-.01218142 1.4018186l.293.293-.293.293c-.25995658.2510745-.3642126.6228779-.27269716.9725073.09151544.3496295.3645604.6226744.71418984.7141899.34962943.0915154.72143285-.0127406.97250732-.2726972l.293-.293.293.293c.18749273.1875494.44180519.2929434.707.293z"/><path id="Shape" d="m49.293 49.707c.3923789.3789722 1.0160848.3735524 1.4018186-.0121814s.3911536-1.0094397.0121814-1.4018186l-.293-.293.293-.293c.3789722-.3923789.3735524-1.0160848-.0121814-1.4018186s-1.0094397-.3911536-1.4018186-.0121814l-.293.293-.293-.293c-.3923789-.3789722-1.0160848-.3735524-1.4018186.0121814s-.3911536 1.0094397-.0121814 1.4018186l.293.293-.293.293c-.2599566.2510745-.3642126.6228779-.2726972.9725073.0915155.3496295.3645604.6226744.7141899.7141899.3496294.0915154.7214328-.0127406.9725073-.2726972l.293-.293z"/><path id="Shape" d="m52.707 53.293c-.3904999-.3903819-1.0235001-.3903819-1.414 0l-.293.293-.293-.293c-.3923789-.3789722-1.0160848-.3735524-1.4018186.0121814s-.3911536 1.0094397-.0121814 1.4018186l.293.293-.293.293c-.2599566.2510745-.3642126.6228779-.2726972.9725073.0915155.3496295.3645604.6226744.7141899.7141899.3496294.0915154.7214328-.0127406.9725073-.2726972l.293-.293.293.293c.3923789.3789722 1.0160848.3735524 1.4018186-.0121814s.3911536-1.0094397.0121814-1.4018186l-.293-.293.293-.293c.3903819-.3904999.3903819-1.0235001 0-1.414z"/><path id="Shape" d="m55.414 43 .293-.293c.3789722-.3923789.3735524-1.0160848-.0121814-1.4018186s-1.0094397-.3911536-1.4018186-.0121814l-.293.293-.293-.293c-.3923789-.3789722-1.0160848-.3735524-1.4018186.0121814s-.3911536 1.0094397-.0121814 1.4018186l.293.293-.293.293c-.2599566.2510745-.3642126.6228779-.2726972.9725073.0915155.3496295.3645604.6226744.7141899.7141899.3496294.0915154.7214328-.0127406.9725073-.2726972l.293-.293.293.293c.3923789.3789722 1.0160848.3735524 1.4018186-.0121814s.3911536-1.0094397.0121814-1.4018186z"/></g><path id="Shape" d="m29 41s-1.921-11.387-11.379-11.979c-.5388624-.0269748-1.0744862.09775-1.546.36-1.636.886-5.415 3.336-6.865 7.69-.39225342 1.1607742-.23200865 2.4372067.435 3.465 2 3.072 7.222 8.713 14.355 5.5z" fill="#f0c419"/><path id="Shape" d="m24.27 43.587c-4.311-2.619-5.746-7.894-6.14-9.844-.0345128-.1735199.0252421-.35236.1571323-.4702806.1318903-.1179205.3162776-.1573633.4848677-.1037194 4.648 1.31 6.653 6.9 7.118 8.438z" fill="#f29c1f"/><path id="Shape" d="m34 46.037c5.745 2.566 11.021-.387 14.35-5.51.6731449-1.0272136.8354596-2.3072861.44-3.47-1.45-4.36-5.23-6.81-6.87-7.69-.4673123-.2674341-1.0025599-.3925569-1.54-.36-6.38.393-10.526 6.439-11.38 11.993z" fill="#f0c419"/><path id="Shape" d="m32.11 41.607c.465-1.538 2.47-7.128 7.118-8.438.1685901-.0536439.3529774-.0142011.4848677.1037194.1318902.1179206.1916451.2967607.1571323.4702806-.394 1.95-1.829 7.225-6.14 9.844z" fill="#f29c1f"/><path id="Shape" d="m34 45v2c-.0032948 1.1032019-.8967981 1.9967052-2 2h-6c-1.1032019-.0032948-1.9967052-.8967981-2-2v-2c0-2.209139 1.790861-4 4-4h2c2.209139 0 4 1.790861 4 4z" fill="#f3d55b"/></g></g></svg>