<svg height="512" viewBox="0 0 56 58" width="512" xmlns="http://www.w3.org/2000/svg"><g id="Page-1" fill="none" fill-rule="evenodd"><g id="030---Present" fill-rule="nonzero" transform="translate(-1 -1)"><path id="Shape" d="m15 21h28v36c0 1.1045695-.8954305 2-2 2h-24c-1.1045695 0-2-.8954305-2-2z" fill="#2980ba"/><path id="Shape" d="m42 14c2 0 6-1 8-7l-4 1-1-4c-.8464582 1.1995856-2.0146798 2.13554956-3.37 2.7l-12.63 3-12.63-3c-1.3553202-.56445044-2.5235418-1.5004144-3.37-2.7l-1 4-4-1c2 6 6 7 8 7l13 2.5z" fill="#f29c1f"/><path id="Shape" d="m16 14h26c1.6568542 0 3 1.3431458 3 3v4c0 .5522847-.4477153 1-1 1h-30c-.5522847 0-1-.4477153-1-1v-4c0-1.6568542 1.3431458-3 3-3z" fill="#3b97d3"/><path id="Shape" d="m29 9c-.21899-3.63889191-2.65556-6.76747957-6.13-7.871-.5417128-.20637765-1.1459991-.16995291-1.659.1-2.4277312 1.32599558-4.2463326 3.54215835-5.073 6.182-.1142043.43622408-.0706415.89876905.123 1.306.662 1.427 2.871 4.52 9.739 5.283z" fill="#f0c419"/><path id="Shape" d="m29 9c.21899-3.63889191 2.65556-6.76747957 6.13-7.871.5417128-.20637765 1.1459991-.16995291 1.659.1 2.4277312 1.32599558 4.2463326 3.54215835 5.073 6.182.1142043.43622408.0706415.89876905-.123 1.306-.662 1.427-2.871 4.52-9.739 5.283z" fill="#f0c419"/><path id="Shape" d="m26.431 10.77c-.364385.0001383-.7000021-.197937-.876-.517-.7488416-1.37125622-1.8144115-2.54379452-3.108-3.42-.4491666-.30956501-.5673602-.92199352-.2656476-1.37647196.3017125-.45447843.9119946-.58329706 1.3716476-.28952804 1.5614481 1.0543331 2.8479358 2.4670008 3.752 4.12.1707371.30952461.165375.68619311-.0141039.9907321-.1794788.304539-.5064045.4916954-.8598961.4922679z" fill="#f29c1f"/><path id="Shape" d="m31.569 10.77c-.3525988-.0023301-.6779098-.1901842-.8561772-.494408-.1782673-.30422376-.1831394-.67984681-.0128228-.988592.9040642-1.6529992 2.1905519-3.0656669 3.752-4.12.459653-.29376902 1.0699351-.16495039 1.3716476.28952804.3017126.45447844.183519 1.06690695-.2656476 1.37647196-1.2935885.87620548-2.3591584 2.04874378-3.108 3.42-.1768596.3206374-.5148255.518967-.881.517z" fill="#f29c1f"/><path id="Rectangle-path" d="m25 14h8v8h-8z" fill="#f0c419"/><path id="Rectangle-path" d="m26 22h6v37h-6z" fill="#f29c1f"/><path id="Shape" d="m19 56c-.5522847 0-1-.4477153-1-1v-2c0-.5522847.4477153-1 1-1s1 .4477153 1 1v2c0 .5522847-.4477153 1-1 1z" fill="#285680"/><path id="Shape" d="m19 50c-.5522847 0-1-.4477153-1-1v-23c0-.5522847.4477153-1 1-1s1 .4477153 1 1v23c0 .5522847-.4477153 1-1 1z" fill="#285680"/><path id="Shape" d="m39 56c-.5522847 0-1-.4477153-1-1v-2c0-.5522847.4477153-1 1-1s1 .4477153 1 1v2c0 .5522847-.4477153 1-1 1z" fill="#285680"/><path id="Shape" d="m39 50c-.5522847 0-1-.4477153-1-1v-23c0-.5522847.4477153-1 1-1s1 .4477153 1 1v23c0 .5522847-.4477153 1-1 1z" fill="#285680"/><g fill="#ff5364"><path id="Shape" d="m8.293 18.707c.39237889.3789722 1.01608478.3735524 1.40181858-.0121814.38573382-.3857338.39115362-1.0094397.01218142-1.4018186l-.293-.293.293-.293c.3789722-.3923789.3735524-1.0160848-.01218142-1.4018186-.3857338-.3857338-1.00943969-.3911536-1.40181858-.0121814l-.293.293-.293-.293c-.25107447-.2599566-.62287789-.3642126-.97250732-.2726972-.34962944.0915155-.6226744.3645604-.71418984.7141899-.09151544.3496294.01274058.7214328.27269716.9725073l.293.293-.293.293c-.25995658.2510745-.3642126.6228779-.27269716.9725073.09151544.3496295.3645604.6226744.71418984.7141899.34962943.0915154.72143285-.0127406.97250732-.2726972l.293-.293z"/><path id="Shape" d="m11.414 26 .293-.293c.3789722-.3923789.3735524-1.0160848-.0121814-1.4018186s-1.0094397-.3911536-1.4018186-.0121814l-.293.293-.293-.293c-.39237889-.3789722-1.01608478-.3735524-1.40181858.0121814-.38573379.3857338-.39115363 1.0094397-.01218142 1.4018186l.293.293-.293.293c-.25995658.2510745-.3642126.6228779-.27269716.9725073.09151544.3496295.3645604.6226744.71418984.7141899.34962943.0915154.72143285-.0127406.97250732-.2726972l.293-.293.293.293c.3923789.3789722 1.0160848.3735524 1.4018186-.0121814s.3911536-1.0094397.0121814-1.4018186z"/><path id="Shape" d="m4.707 21.293c-.39049985-.3903819-1.02350015-.3903819-1.414 0l-.293.293-.293-.293c-.39237889-.3789722-1.01608478-.3735524-1.40181858.0121814-.38573379.3857338-.39115363 1.0094397-.01218142 1.4018186l.293.293-.293.293c-.25995658.2510745-.3642126.6228779-.27269716.9725073.09151544.3496295.3645604.6226744.71418984.7141899.34962943.0915154.72143285-.0127406.97250732-.2726972l.293-.293.293.293c.25107447.2599566.62287789.3642126.97250732.2726972.34962944-.0915155.6226744-.3645604.71418984-.7141899.09151544-.3496294-.01274058-.7214328-.27269716-.9725073l-.293-.293.293-.293c.39038194-.3904999.39038194-1.0235001 0-1.414z"/><path id="Shape" d="m51.707 15.293c-.3904999-.3903819-1.0235001-.3903819-1.414 0l-.293.293-.293-.293c-.3923789-.3789722-1.0160848-.3735524-1.4018186.0121814s-.3911536 1.0094397-.0121814 1.4018186l.293.293-.293.293c-.2599566.2510745-.3642126.6228779-.2726972.9725073.0915155.3496295.3645604.6226744.7141899.7141899.3496294.0915154.7214328-.0127406.9725073-.2726972l.293-.293.293.293c.3923789.3789722 1.0160848.3735524 1.4018186-.0121814s.3911536-1.0094397.0121814-1.4018186l-.293-.293.293-.293c.3903819-.3904999.3903819-1.0235001 0-1.414z"/><path id="Shape" d="m49.707 24.293c-.3904999-.3903819-1.0235001-.3903819-1.414 0l-.293.293-.293-.293c-.3923789-.3789722-1.0160848-.3735524-1.4018186.0121814s-.3911536 1.0094397-.0121814 1.4018186l.293.293-.293.293c-.2599566.2510745-.3642126.6228779-.2726972.9725073.0915155.3496295.3645604.6226744.7141899.7141899.3496294.0915154.7214328-.0127406.9725073-.2726972l.293-.293.293.293c.3923789.3789722 1.0160848.3735524 1.4018186-.0121814s.3911536-1.0094397.0121814-1.4018186l-.293-.293.293-.293c.3903819-.3904999.3903819-1.0235001 0-1.414z"/><path id="Shape" d="m56.414 23 .293-.293c.3789722-.3923789.3735524-1.0160848-.0121814-1.4018186s-1.0094397-.3911536-1.4018186-.0121814l-.293.293-.293-.293c-.3923789-.3789722-1.0160848-.3735524-1.4018186.0121814s-.3911536 1.0094397-.0121814 1.4018186l.293.293-.293.293c-.2599566.2510745-.3642126.6228779-.2726972.9725073.0915155.3496295.3645604.6226744.7141899.7141899.3496294.0915154.7214328-.0127406.9725073-.2726972l.293-.293.293.293c.3923789.3789722 1.0160848.3735524 1.4018186-.0121814s.3911536-1.0094397.0121814-1.4018186z"/></g><path id="Shape" d="m28 9h2c1.1045695 0 2 .8954305 2 2v3h-6v-3c0-1.1045695.8954305-2 2-2z" fill="#f3d55b"/></g></g></svg>