<svg height="512" viewBox="0 0 58 58" width="512" xmlns="http://www.w3.org/2000/svg"><g id="Page-1" fill="none" fill-rule="evenodd"><g id="033---Presents" fill-rule="nonzero"><path id="Shape" d="m26 58h-22c-1.10320187-.0032948-1.9967052-.8967981-2-2v-42h26v5z" fill="#894b9d"/><path id="Shape" d="m50.67 22.68c1.338119-.5654563 2.4915223-1.4937208 3.33-2.68l1 3h3c-.8916821 3.8062318-4.1090868 6.6214609-8 7l-12 3-12-3c-3.8909132-.3785391-7.1083179-3.1937682-8-7h3l1-3c.8384777 1.1862792 1.991881 2.1145437 3.33 2.68l12.67 3.32z" fill="#f29c1f"/><path id="Shape" d="m38 25s0-7.612-7.339-8.97c-.4820935-.0845897-.9782611.019226-1.386.29-1.313.856-4 3.264-4.272 8.748-.0363072.6052548.1960099 1.1957426.635 1.614 2.5784504 2.2677773 5.9309369 3.455937 9.362 3.318z" fill="#f0c419"/><path id="Shape" d="m38 25s0-7.612 7.339-8.97c.4820935-.0845897.9782611.019226 1.386.29 1.313.856 4 3.264 4.272 8.748.0363072.6052548-.1960099 1.1957426-.635 1.614-2.5784504 2.2677773-5.9309369 3.455937-9.362 3.318z" fill="#f0c419"/><path id="Shape" d="m2 10h26c1.1045695 0 2 .8954305 2 2v3c0 .5522847-.4477153 1-1 1h-28c-.55228475 0-1-.4477153-1-1v-3c0-1.1045695.8954305-2 2-2z" fill="#955ba5"/><path id="Shape" d="m20 30h36c1.1045695 0 2 .8954305 2 2v3c0 .5522847-.4477153 1-1 1h-38c-.5522847 0-1-.4477153-1-1v-3c0-1.1045695.8954305-2 2-2z" fill="#67b9cc"/><path id="Shape" d="m20 36h36v20c0 1.1045695-.8954305 2-2 2h-32c-1.1045695 0-2-.8954305-2-2z" fill="#2fa8cc"/><path id="Shape" d="m16.333 10-1.333-4s-1.788-5.364-7.054-5.948c-.59281845-.06833912-1.18602064.12477101-1.625.529-1.62337927 1.41753475-2.75677311 3.31224164-3.238 5.413-.10628354.66229718.13728394 1.33248597.644 1.772 1.031.889 3.255 2.234 7.273 2.234z" fill="#f0c419"/><path id="Shape" d="m13.667 10 1.333-4s1.788-5.364 7.054-5.948c.5928185-.06833912 1.1860206.12477101 1.625.529 1.6233793 1.41753475 2.7567731 3.31224164 3.238 5.413.1062835.66229718-.1372839 1.33248597-.644 1.772-1.031.889-3.255 2.234-7.273 2.234z" fill="#f0c419"/><path id="Shape" d="m40.47 26.65c-.3328568-.000071-.64386-.1657558-.8296053-.4419666-.1857452-.2762108-.2218817-.626737-.0963947-.9350334.7853555-2.0380789 2.1388903-3.808086 3.9-5.1.4589486-.3076226 1.0803774-.1849486 1.388.274s.1849486 1.0803774-.274 1.388c-1.4310494 1.0714981-2.527455 2.528285-3.161 4.2-.1559361.3738173-.5219658.6166525-.927.615z" fill="#f29c1f"/><path id="Shape" d="m35.53 26.65c-.406622-.0000867-.7727035-.2463813-.926-.623-.633545-1.671715-1.7299506-3.1285019-3.161-4.2-.4589486-.3076226-.5816226-.9290514-.274-1.388s.9290514-.5816226 1.388-.274c1.7611097 1.291914 3.1146445 3.0619211 3.9 5.1.125487.3082964.0893505.6588226-.0963947.9350334-.1857453.2762108-.4967485.4418956-.8296053.4419666z" fill="#f29c1f"/><g fill="#f0c419"><circle id="Oval" cx="12" cy="23" r="2"/><circle id="Oval" cx="8" cy="30" r="2"/><circle id="Oval" cx="12" cy="37" r="2"/><circle id="Oval" cx="12" cy="51" r="2"/><circle id="Oval" cx="8" cy="44" r="2"/></g><path id="Shape" d="m20 52.83 16.83-16.83h-5.66l-11.17 11.17z" fill="#3b97d3"/><path id="Shape" d="m29.61 58 22.01-22h-5.66l-22.01 22z" fill="#3b97d3"/><path id="Shape" d="m44.72 58 11.28-11.28v-5.66l-16.94 16.94z" fill="#3b97d3"/><path id="Shape" d="m12.661 7.52c-.2941936.00044395-.5736569-.12867978-.764-.353-.7400674-.80626131-1.8047017-1.23512847-2.897-1.167-.55228475 0-1-.44771525-1-1s.44771525-1 1-1c1.6813051-.07322476 3.3060744.61518074 4.423 1.874.2513909.29705202.3076223.71296439.144138 1.06610765-.1634843.35314325-.5169889.57937219-.906138.57989235z" fill="#f29c1f"/><path id="Shape" d="m17.339 7.52c-.3891491-.00052016-.7426537-.2267491-.906138-.57989235-.1634843-.35314326-.1072529-.76905563.144138-1.06610765 1.1169256-1.25881926 2.7416949-1.94722476 4.423-1.874.5522847 0 1 .44771525 1 1s-.4477153 1-1 1c-1.0933231-.06905275-2.1592556.35989318-2.9 1.167-.1896648.22352073-.4678549.35256294-.761.353z" fill="#f29c1f"/><path id="Rectangle-path" d="m34 30h8v6h-8z" fill="#f0c419"/><path id="Rectangle-path" d="m11 10h8v6h-8z" fill="#f0c419"/><path id="Shape" d="m14 6h2c1.1045695 0 2 .8954305 2 2v2h-6v-2c0-1.1045695.8954305-2 2-2z" fill="#f3d55b"/><path id="Shape" d="m37 25h2c1.1045695 0 2 .8954305 2 2v3h-6v-3c0-1.1045695.8954305-2 2-2z" fill="#f3d55b"/></g></g></svg>