<svg height="512" viewBox="0 0 58 58" width="512" xmlns="http://www.w3.org/2000/svg"><g id="Page-1" fill="none" fill-rule="evenodd"><g id="034---Computer-Gift" fill-rule="nonzero"><path id="Shape" d="m57 4v40c0 2.209139-1.790861 4-4 4h-48c-.42471746.0010728-.84682001-.0664636-1.25-.2-1.64110269-.5398831-2.75014208-2.0723739-2.75-3.8v-40c0-2.209139 1.790861-4 4-4h48c2.209139 0 4 1.790861 4 4z" fill="#84b5cb"/><path id="Shape" d="m3.75 47.8c-1.64110269-.5398831-2.75014208-2.0723739-2.75-3.8v-40c0-2.209139 1.790861-4 4-4h36.59c.32 11.61-3.2 36.97-37.84 47.8z" fill="#9fc9d3"/><path id="Shape" d="m38 54-9 2-9-2 3-6 6-2 6 2z" fill="#2980ba"/><rect id="Rectangle-path" fill="#3b97d3" height="4" rx="2" width="30" x="14" y="54"/><path id="Shape" d="m57 40v4c0 2.209139-1.790861 4-4 4h-48c-2.209139 0-4-1.790861-4-4v-4z" fill="#3b97d3"/><path id="Shape" d="m30 45h-2c-.5522847 0-1-.4477153-1-1s.4477153-1 1-1h2c.5522847 0 1 .4477153 1 1s-.4477153 1-1 1z" fill="#2980ba"/><path id="Shape" d="m31.15 15.05h-.01l-30.54 13.17c-.36366943.1618135-.5985467.5219586-.6.92v12.86c-.00117856.3379353.16839993.6536053.45081603.839193.28241611.1855877.63946016.215984.94918397.080807l35.29-15.21 15.09-6.51 5.62-2.42c.3636694-.1618135.5985467-.5219586.6-.92v-12.86c.0011786-.33793531-.1683999-.65360527-.450816-.83919299-.2824161-.18558773-.6394602-.21598401-.949184-.08080701l-10.09 4.35z" fill="#ff5364"/><path id="Shape" d="m42.1 23.3c1.5 4.423-2.964 8.829-2.964 8.829l-.632-4.075-3.541-.678c2.4911095-1.6756132 4.1353682-4.3471235 4.509-7.326l-.772-1.839c-2.3931417-1.8123213-5.45313-2.5011104-8.392-1.889l1.988-3.008-2.475-3.3s6.511-.119 8.506 4.289z" fill="#f29c1f"/><path id="Shape" d="m5 7c-.4043959-.00008635-.76893405-.2437275-.92367798-.61734544s-.06922994-.80366031.21667798-1.08965456l2-2c.39237889-.37897221 1.01608478-.37355237 1.40181858.01218142.38573379.3857338.39115363 1.00943969.01218142 1.40181858l-2 2c-.18749273.18754937-.44180519.29294336-.707.293z" fill="#ecf0f1"/><path id="Shape" d="m5 13c-.4043959-.0000863-.76893405-.2437275-.92367798-.6173454-.15474393-.373618-.06922994-.8036603.21667798-1.0896546l8-8c.2510745-.25995658.6228779-.3642126.9725073-.27269716.3496295.09151544.6226744.3645604.7141899.71418984.0915154.34962943-.0127406.72143285-.2726972.97250732l-8 8c-.18749273.1875494-.44180519.2929434-.707.293z" fill="#ecf0f1"/><path id="Shape" d="m42.772 17.58s4.608-1.942 3.733-9.169c0 0-2.6-3.833-8.429-1.839-.6134028.19961477-1.0919966.68417235-1.284 1.3-.4 1.35-.707 4.136 1.129 8.494z" fill="#f0c419"/><path id="Shape" d="m41.24 16.566c-.387317-.0004012-.7395718-.2244256-.9041707-.5750276-.1645989-.3506021-.1119379-.7647242.1351707-1.0629724.6453558-.8563347 1.0652089-1.8610936 1.221-2.922.0677018-.3508348.317429-.638901.6551118-.7556869s.7120191-.044549.982.1895c.269981.2340489.39459.5943521.3268882.9451869-.2186117 1.3913373-.7843698 2.7051341-1.645 3.82-.1903875.229183-.4730538.3615339-.771.361z" fill="#f29c1f"/><path id="Shape" d="m42.772 17.58s4.334-1.826 8.756 3.239c.3041651.3493178.4717994.7968161.472 1.26 0 1.506-.592 4.884-5.49 6.948 0 0-3.541-.679-6.259-7.129z" fill="#f0c419"/><path id="Shape" d="m46.556 22.411c-.1955215-.0000489-.3867395-.0574143-.55-.165-.8680753-.6294842-1.8803994-1.030769-2.944-1.167-.3561938-.0289385-.6698919-.2457059-.8229274-.5686481-.1530354-.3229421-.1221583-.7029963.081-.997.2031584-.2940036.5477336-.4572904.9039274-.4283519 1.3989854.1631128 2.7343743.6758773 3.883 1.491.3688976.2430966.5345591.699458.4075049 1.1225876-.1270541.4231295-.5167117.712744-.9585049.7124124z" fill="#f29c1f"/><path id="Shape" d="m39.9292239 16.3558722h2c1.1045695 0 2 .8954305 2 2v2h-6v-2c0-1.1045695.8954305-2 2-2z" fill="#f3d55b" transform="matrix(.388 .922 -.922 .388 41.953 -26.489)"/></g></g></svg>