<svg height="512" viewBox="0 0 58 58" width="512" xmlns="http://www.w3.org/2000/svg"><g id="Page-1" fill="none" fill-rule="evenodd"><g id="035---Send-Gift" fill-rule="nonzero"><path id="Shape" d="m38 4v50c0 2.209139-1.790861 4-4 4h-30c-2.209139 0-4-1.790861-4-4v-50c0-2.209139 1.790861-4 4-4h30c2.209139 0 4 1.790861 4 4z" fill="#84b5cb"/><path id="Shape" d="m0 53.64v-49.64c0-2.209139 1.790861-4 4-4h24.87c1.89 13.4 3.82 49.43-28.87 53.64z" fill="#9fc9d3"/><path id="Shape" d="m8 0h22v2c0 1.1045695-.8954305 2-2 2h-18c-1.1045695 0-2-.8954305-2-2z" fill="#3b97d3"/><path id="Shape" d="m24 25h28v20c0 .5522847-.4477153 1-1 1h-26c-.5522847 0-1-.4477153-1-1z" fill="#e64c3c"/><g fill="#c03a2b"><path id="Shape" d="m28 43c-.5522847 0-1-.4477153-1-1v-2c0-.5522847.4477153-1 1-1s1 .4477153 1 1v2c0 .5522847-.4477153 1-1 1z"/><path id="Shape" d="m28 37c-.5522847 0-1-.4477153-1-1v-6c0-.5522847.4477153-1 1-1s1 .4477153 1 1v6c0 .5522847-.4477153 1-1 1z"/><path id="Shape" d="m48 43c-.5522847 0-1-.4477153-1-1v-2c0-.5522847.4477153-1 1-1s1 .4477153 1 1v2c0 .5522847-.4477153 1-1 1z"/><path id="Shape" d="m48 37c-.5522847 0-1-.4477153-1-1v-6c0-.5522847.4477153-1 1-1s1 .4477153 1 1v6c0 .5522847-.4477153 1-1 1z"/></g><path id="Shape" d="m20 30h-16c-.55228475 0-1-.4477153-1-1s.44771525-1 1-1h16c.5522847 0 1 .4477153 1 1s-.4477153 1-1 1z" fill="#2980ba"/><path id="Shape" d="m20 36h-8c-.5522847 0-1-.4477153-1-1s.4477153-1 1-1h8c.5522847 0 1 .4477153 1 1s-.4477153 1-1 1z" fill="#2980ba"/><path id="Shape" d="m18 24h-6c-.5522847 0-1-.4477153-1-1s.4477153-1 1-1h6c.5522847 0 1 .4477153 1 1s-.4477153 1-1 1z" fill="#2980ba"/><path id="Shape" d="m38 50v4c0 2.209139-1.790861 4-4 4h-30c-2.209139 0-4-1.790861-4-4v-4z" fill="#3b97d3"/><rect id="Rectangle-path" fill="#2980ba" height="4" rx="2" width="12" x="13" y="54"/><path id="Shape" d="m50 20c1 0 5-1 8-6h-4l-1-4-3.55 2.84-11.45 3.16-11.45-3.16-3.55-2.84-1 4h-4c3 5 7 6 8 6l12 2z" fill="#f29c1f"/><path id="Shape" d="m38.571 20-.571-4.028s-.917-6.464-6.263-7.9c-.4910048-.13693523-1.0153071-.0874257-1.472.139-1.142.579-3.3 2.162-4.139 6.086-.0944594.4608287-.020292.9402557.209 1.351.754 1.381 2.824 4.352 6.665 4.352z" fill="#f0c419"/><path id="Shape" d="m37.429 20 .571-4.028s.917-6.464 6.263-7.9c.4910048-.13693523 1.0153071-.0874257 1.472.139 1.142.579 3.3 2.162 4.139 6.086.0944594.4608287.020292.9402557-.209 1.351-.754 1.381-2.824 4.352-6.665 4.352z" fill="#f0c419"/><path id="Shape" d="m24 20h28c1.1045695 0 2 .8954305 2 2v3c0 .5522847-.4477153 1-1 1h-30c-.5522847 0-1-.4477153-1-1v-3c0-1.1045695.8954305-2 2-2z" fill="#e64c3c"/><path id="Shape" d="m37 16h2c1.1045695 0 2 .8954305 2 2v2h-6v-2c0-1.1045695.8954305-2 2-2z" fill="#f3d55b"/><path id="Rectangle-path" d="m34 20h8v6h-8z" fill="#f0c419"/><path id="Rectangle-path" d="m24 26h28v2h-28z" fill="#c03a2b"/><path id="Rectangle-path" d="m35 26h6v20h-6z" fill="#f29c1f"/></g></g></svg>