<svg height="512" viewBox="0 0 58 58" width="512" xmlns="http://www.w3.org/2000/svg"><g id="Page-1" fill="none" fill-rule="evenodd"><g id="036---Giving-Gift" fill-rule="nonzero"><path id="Shape" d="m6 37v-13c0-1.6568542 1.34314575-3 3-3 1.6568542 0 3 1.3431458 3 3v14z" fill="#f9c795"/><path id="Shape" d="m46 37v-13c.0000001-1.6568542 1.3431458-2.9999999 3-2.9999999s2.9999999 1.3431457 3 2.9999999v12z" fill="#f9c795"/><path id="Shape" d="m22 45h14l10-13.87v-15.13h-34v15.13z" fill="#e64c3c"/><path id="Shape" d="m22 41v16c0 .5522847-.4477153 1-1 1h-11c-.55228475 0-1-.4477153-1-1v-3.67c.00043303-2.1637724-.70139015-4.2692419-2-6l-5.4-7.2c-1.03974477-1.3841572-1.60130147-3.0688273-1.6-4.8v-15.33c-.00117302-.8241632.33676518-1.612512.93447248-2.1799557.59770731-.5674436 1.40253654-.8640005 2.22552752-.8200443 1.63208157.1472221 2.87235451 1.5316112 2.84 3.17v8.9c-.00098028 1.2429536.46269736 2.441382 1.3 3.36l3.01 3.31c-.0305205-.0478472-.0572681-.0979989-.08-.15-.49493976-.931681-.49493976-2.048319 0-2.98.163493-.317382.3838035-.602091.65-.84.5906265-.5352832 1.3717933-.810403 2.1675044-.7633752.7957112.0470279 1.5390329.4122474 2.0624956 1.0133752l6.13 6.97c.4911156.5542112.7615726 1.2694988.76 2.01z" fill="#fdd7ad"/><path id="Shape" d="m17.17 41.74c-.1838026.1660428-.4223074.2585968-.67.26-.2821782-.000667-.5509408-.1205206-.74-.33l-5.53-6.08c-.49493976-.931681-.49493976-2.048319 0-2.98l7.01 7.72c.3690477.4090414.3377472 1.0395229-.07 1.41z" fill="#f9c795"/><path id="Shape" d="m58 20v15.33c.0013015 1.7311727-.5602552 3.4158428-1.6 4.8l-5.4 7.2c-1.2986099 1.7307581-2.000433 3.8362276-2 6v3.67c0 .5522847-.4477153 1-1 1h-11c-.5522847 0-1-.4477153-1-1v-16c-.0015726-.7405012.2688844-1.4557888.76-2.01l6.13-6.97c.5234627-.6011278 1.2667844-.9663473 2.0624956-1.0133752.7957111-.0470278 1.5768779.228092 2.1675044.7633752.2660383.2367059.4893041.5174796.66.83.4962483.9225216.5037371 2.0308569.02 2.96-.03.06-.06.11-.09.16l2.99-3.29c.8373026-.918618 1.3009803-2.1170464 1.3-3.36v-8.9c-.0323545-1.6383888 1.2079184-3.0227779 2.84-3.17.822991-.0439562 1.6278202.2526007 2.2255275.8200443.5977073.5674437.9356455 1.3557925.9344725 2.1799557z" fill="#fdd7ad"/><path id="Shape" d="m47.8 35.56-5.56 6.11c-.1890592.2094794-.4578218.329333-.74.33-.2476926-.0014032-.4861974-.0939572-.67-.26-.4077472-.3704771-.4390477-1.0009586-.07-1.41l7.02-7.73c.4962483.9225216.5037371 2.0308569.02 2.96z" fill="#f9c795"/><path id="Shape" d="m40.5 4.4c1.2891959-.60473176 2.4713284-1.4153369 3.5-2.4l1 3h3c-1 4-5 6-9 6l-10 2-10-2c-4 0-8-2-9-6h3l1-3c1.0286716.9846631 2.2108041 1.79526824 3.5 2.4l11.5 3.6z" fill="#f29c1f"/><path id="Shape" d="m30.333 11-1.333-4.032s-1.757-5.314-5.271-6.811c-.4479597-.19061391-.9506717-.20842794-1.411-.05-2.3950689.75881715-4.2877183 2.60953142-5.1 4.987-.173885.54681926-.1077438 1.14172651.182 1.637 1.5685929 2.699106 4.47887 4.3338393 7.6 4.269z" fill="#f0c419"/><path id="Shape" d="m27.667 11 1.333-4.032s1.757-5.314 5.271-6.811c.4479597-.19061391.9506717-.20842794 1.411-.05 2.3950689.75881715 4.2877183 2.60953142 5.1 4.987.173885.54681926.1077438 1.14172651-.182 1.637-1.5685929 2.699106-4.47887 4.3338393-7.6 4.269z" fill="#f0c419"/><path id="Shape" d="m26.271 9.01c-.3081135.00038614-.5992022-.14128437-.789-.384-.7870774-1.09584652-1.7836259-2.02475751-2.932-2.733-.3217112-.15924589-.5333868-.47870901-.5546256-.83704722-.0212388-.3583382.1512179-.70056898.4518657-.89670229.3006477-.19613332.6833559-.21607497 1.0027599-.05225049 1.4116198.84089185 2.6385566 1.95863906 3.607 3.286.2359781.30098196.2796158.71019852.1124142 1.05417442-.1672017.34397591-.5159542.56245735-.8984142.56282558z" fill="#f29c1f"/><path id="Shape" d="m31.729 9.01c-.38246-.00036823-.7312125-.21884967-.8984142-.56282558-.1672016-.3439759-.1235639-.75319246.1124142-1.05417442.9684434-1.32736094 2.1953802-2.44510815 3.607-3.286.319404-.16382448.7021122-.14388283 1.0027599.05225049.3006478.19613331.4731045.53836409.4518657.89670229-.0212388.35833821-.2329144.67780133-.5546256.83704722-1.1483741.70824249-2.1449226 1.63715348-2.932 2.733-.1897978.24271563-.4808865.38438614-.789.384z" fill="#f29c1f"/><path id="Shape" d="m12 11h34c1.1045695 0 2 .8954305 2 2v3c0 .5522847-.4477153 1-1 1h-36c-.5522847 0-1-.4477153-1-1v-3c0-1.1045695.8954305-2 2-2z" fill="#e64c3c"/><path id="Rectangle-path" d="m25 11h8v6h-8z" fill="#f0c419"/><path id="Shape" d="m28 7h2c1.1045695 0 2 .8954305 2 2v2h-6v-2c0-1.1045695.8954305-2 2-2z" fill="#f3d55b"/><path id="Rectangle-path" d="m12 17h34v3h-34z" fill="#c03a2b"/><path id="Rectangle-path" d="m26 17h6v28h-6z" fill="#f29c1f"/></g></g></svg>