<svg height="512" viewBox="0 0 58 59" width="512" xmlns="http://www.w3.org/2000/svg"><g id="Page-1" fill="none" fill-rule="evenodd"><g id="037---Balloons" fill-rule="nonzero" transform="translate(-1)"><path id="Shape" d="m58.88 27.13c-.6303428 4.7855954-2.7829779 9.2416202-6.14 12.71-3.31 3.43-7.61 5.54-12.03 5.03-.9590889-.0636929-1.8840069-.381202-2.68-.92l-16.11.3c-.8580423.2789355-1.737717.4863113-2.63.62-4.42.51-8.72-1.6-12.03-5.03-3.35702206-3.4683798-5.50965719-7.9244046-6.14-12.71-1.23510736-8.6198796 4.71065925-16.6234528 13.32-17.93h31.12c8.6093408 1.3065472 14.5551074 9.3101204 13.32 17.93z" fill="#894b9d"/><path id="Shape" d="m22 22.5c0 9.66-5.82 17.5-13 17.5-.58377365.0022408-1.16642446-.0513363-1.74-.16-3.35702206-3.4683798-5.50965719-7.9244046-6.14-12.71-1.23510736-8.6198796 4.71065925-16.6234528 13.32-17.93h3c3.0505614 3.7514955 4.6669398 8.4659326 4.56 13.3z" fill="#955ba5"/><path id="Shape" d="m58.88 27.13c-.6303428 4.7855954-2.7829779 9.2416202-6.14 12.71-.5735755.1086637-1.1562264.1622408-1.74.16-7.18 0-13-7.84-13-17.5-.1069398-4.8340674 1.5094386-9.5485045 4.56-13.3h3c8.6093408 1.3065472 14.5551074 9.3101204 13.32 17.93z" fill="#955ba5"/><path id="Shape" d="m48 19c0 9.51-5.97 19.71-13.99 22.28l-8.01-.01c-8.268-2.585-14-13.116-14-22.27 0-10.985 8-19 18-19 9.909 0 18 7.948 18 19z" fill="#2980ba"/><path id="Shape" d="m44 11.5c0 10.22-7.84 18.5-17.5 18.5-5.7707539-.0448902-11.1340737-2.9819463-14.28-7.82-.1475428-1.0535578-.2210563-2.1161618-.22-3.18-.0326344-3.420933.8071268-6.7937444 2.44-9.8 2.7647913-5.03197554 7.7933606-8.41528797 13.4961985-9.08048668 5.7028378-.6651987 11.3750973 1.4699321 15.2238015 5.73048668.5613452 1.8306445.8445047 3.73522913.84 5.65z" fill="#3b97d3"/><path id="Shape" d="m30 59c-.5522847 0-1-.4477153-1-1v-13c0-.5522847.4477153-1 1-1s1 .4477153 1 1v13c0 .5522847-.4477153 1-1 1z" fill="#95a5a5"/><path id="Shape" d="m36.988 42.014c1.477 1.311 5.012 3.933 6.017 8.986l-4.54-1.81c-.254048-.1035675-.5440997.0169155-.65.27l-1.81 4.54s-1.42-6.4-5.46-9c0-.0055228-.0044772-.01-.01-.01h-1.06c-.0055228 0-.01.0044772-.01.01-4.04 2.6-5.46 9-5.46 9l-1.81-4.54c-.1059003-.2530845-.395952-.3735675-.65-.27l-4.54 1.81c1-5.038 4.543-7.667 5.987-9.007z" fill="#f29c1f"/><path id="Shape" d="m41 11c-.3346327.0003846-.6472789-.1666353-.833-.445-2.3506771-3.32083909-6.1025547-5.37077318-10.167-5.555-.063 0-6.526.092-10.168 5.555-.1982824.297245-.5400812.4661282-.8966441.4430331s-.6737195-.2346599-.832-.555c-.1582805-.32034-.1336383-.70078813.0646441-.9980331 2.7096017-3.89105127 7.0933671-6.27892888 11.832-6.445 4.7386329.16607112 9.1223983 2.55394873 11.832 6.445.2047322.30685866.2239019.7015085.049874 1.026765-.174028.3252566-.5129871.5282902-.881874.528235z" fill="#67b9cc"/><path id="Shape" d="m5 26c-.55228475 0-1-.4477153-1-1 0-.18.026-4.44 2.293-6.707.39237889-.3789722 1.01608478-.3735524 1.40181858.0121814.38573379.3857338.39115363 1.0094397.01218142 1.4018186-1.4 1.4-1.707 4.293-1.707 5.293 0 .5522847-.44771525 1-1 1z" fill="#b49aca"/><path id="Shape" d="m55 26c-.5522847 0-1-.4477153-1-1 0-.036-.029-3.616-1.707-5.294-.3789722-.3923789-.3735524-1.0160848.0121814-1.4018186s1.0094397-.3911536 1.4018186-.0121814c2.267 2.268 2.293 6.528 2.293 6.708 0 .5522847-.4477153 1-1 1z" fill="#b49aca"/><g fill="#f0c419"><path id="Shape" d="m21.707 55.293c-.3904999-.3903819-1.0235001-.3903819-1.414 0l-.293.293-.293-.293c-.3923789-.3789722-1.0160848-.3735524-1.4018186.0121814s-.3911536 1.0094397-.0121814 1.4018186l.293.293-.293.293c-.2599566.2510745-.3642126.6228779-.2726972.9725073.0915155.3496295.3645604.6226744.7141899.7141899.3496294.0915154.7214328-.0127406.9725073-.2726972l.293-.293.293.293c.3923789.3789722 1.0160848.3735524 1.4018186-.0121814s.3911536-1.0094397.0121814-1.4018186l-.293-.293.293-.293c.3903819-.3904999.3903819-1.0235001 0-1.414z"/><path id="Shape" d="m12 51c.4043959-.0000863.7689341-.2437275.923678-.6173454.1547439-.373618.0692299-.8036603-.216678-1.0896546l-.293-.293.293-.293c.3789722-.3923789.3735524-1.0160848-.0121814-1.4018186s-1.0094397-.3911536-1.4018186-.0121814l-.293.293-.293-.293c-.3923789-.3789722-1.01608478-.3735524-1.40181858.0121814-.38573379.3857338-.39115363 1.0094397-.01218142 1.4018186l.293.293-.293.293c-.25995658.2510745-.3642126.6228779-.27269716.9725073.09151544.3496295.3645604.6226744.71418984.7141899.34962942.0915154.72143282-.0127406.97250732-.2726972l.293-.293.293.293c.1874927.1875494.4418052.2929434.707.293z"/><path id="Shape" d="m15.707 53.293c-.3904999-.3903819-1.0235001-.3903819-1.414 0l-.293.293-.293-.293c-.3923789-.3789722-1.0160848-.3735524-1.4018186.0121814s-.3911536 1.0094397-.0121814 1.4018186l.293.293-.293.293c-.2599566.2510745-.3642126.6228779-.2726972.9725073.0915155.3496295.3645604.6226744.7141899.7141899.3496294.0915154.7214328-.0127406.9725073-.2726972l.293-.293.293.293c.3923789.3789722 1.0160848.3735524 1.4018186-.0121814s.3911536-1.0094397.0121814-1.4018186l-.293-.293.293-.293c.3903819-.3904999.3903819-1.0235001 0-1.414z"/><path id="Shape" d="m41.707 55.293c-.3904999-.3903819-1.0235001-.3903819-1.414 0l-.293.293-.293-.293c-.3923789-.3789722-1.0160848-.3735524-1.4018186.0121814s-.3911536 1.0094397-.0121814 1.4018186l.293.293-.293.293c-.2599566.2510745-.3642126.6228779-.2726972.9725073.0915155.3496295.3645604.6226744.7141899.7141899.3496294.0915154.7214328-.0127406.9725073-.2726972l.293-.293.293.293c.3923789.3789722 1.0160848.3735524 1.4018186-.0121814s.3911536-1.0094397.0121814-1.4018186l-.293-.293.293-.293c.3903819-.3904999.3903819-1.0235001 0-1.414z"/><path id="Shape" d="m50.414 49 .293-.293c.3789722-.3923789.3735524-1.0160848-.0121814-1.4018186s-1.0094397-.3911536-1.4018186-.0121814l-.293.293-.293-.293c-.3923789-.3789722-1.0160848-.3735524-1.4018186.0121814s-.3911536 1.0094397-.0121814 1.4018186l.293.293-.293.293c-.2599566.2510745-.3642126.6228779-.2726972.9725073.0915155.3496295.3645604.6226744.7141899.7141899.3496294.0915154.7214328-.0127406.9725073-.2726972l.293-.293.293.293c.3923789.3789722 1.0160848.3735524 1.4018186-.0121814s.3911536-1.0094397.0121814-1.4018186z"/><path id="Shape" d="m47.707 53.293c-.3904999-.3903819-1.0235001-.3903819-1.414 0l-.293.293-.293-.293c-.3923789-.3789722-1.0160848-.3735524-1.4018186.0121814s-.3911536 1.0094397-.0121814 1.4018186l.293.293-.293.293c-.2599566.2510745-.3642126.6228779-.2726972.9725073.0915155.3496295.3645604.6226744.7141899.7141899.3496294.0915154.7214328-.0127406.9725073-.2726972l.293-.293.293.293c.3923789.3789722 1.0160848.3735524 1.4018186-.0121814s.3911536-1.0094397.0121814-1.4018186l-.293-.293.293-.293c.3903819-.3904999.3903819-1.0235001 0-1.414z"/><path id="Shape" d="m30.525 38c.84-2.43 3.01-6.7 8.04-6.99.4006913-.030052.8012075.0604995 1.15.26 2.3369012 1.1478676 4.1648455 3.1219049 5.13 5.54.3056142.8424915.1864853 1.7806322-.32 2.52-1.029625 1.5336493-2.3982488 2.8098909-4 3.73-2.0019301 1.1265758-4.4173729 1.2451251-6.52.32z"/></g><path id="Shape" d="m33.945 41.449c-.4781994.0014557-.8905059-.3358504-.9838203-.8048591-.0933145-.4690088.1584816-.9384454.6008203-1.1201409 1.7402046-.6730679 3.186419-1.9397009 4.083-3.576-.3356531-.1277418-.5761736-.4267672-.629-.782-.0812863-.5487923.2957296-1.0602652.844-1.145.6743128-.0959747 1.3571987.1041878 1.873.549.2349196.2909281.3197038.675234.229 1.038-.9480906 2.6506825-3.0056312 4.7556991-5.634 5.764-.1213628.0505969-.2515126.0767628-.383.077z" fill="#f29c1f"/><path id="Shape" d="m29.485 38c-.84-2.43-3.01-6.7-8.04-6.99-.4006913-.030052-.8012075.0604995-1.15.26-2.3369012 1.1478676-4.1648455 3.1219049-5.13 5.54-.3046019.8426039-.1855331 1.7802704.32 2.52 1.1088169 1.6663674 2.6274235 3.0196834 4.41 3.93 1.9181254.9439808 4.1562886.9879382 6.11.12z" fill="#f0c419"/><path id="Shape" d="m26.065 41.449c-.1311745-.0001318-.2610177-.0263044-.382-.077-2.6180581-1.0047915-4.6706342-3.097142-5.625-5.734-.1044391-.3621961-.0301704-.7524784.2-1.051.5140006-.459111 1.2050711-.6667618 1.887-.567.4467991.068375.7921841.4279611.8425103.8771513.0503261.4491902-.2069202.8762935-.6275103 1.0418487.8964674 1.6399523 2.344214 2.9098744 4.087 3.585.4423387.1816955.6941348.6511321.6008203 1.1201409-.0933144.4690087-.5056209.8063148-.9838203.8048591zm-4.115-6.458v.012z" fill="#f29c1f"/><path id="Shape" d="m34.005 41v2.5c-.0293468.8552563-.7446304 1.5258347-1.6 1.5h-4.8c-.8553696.0258347-1.5706532-.6447437-1.6-1.5-.0755954-1.0163013-.0555071-2.0374581.06-3.05.3296522-1.4602317 1.6434373-2.4853188 3.14-2.45h1.6c1.7107392-.0516694 3.1413065 1.2894874 3.2 3z" fill="#f3d55b"/></g></g></svg>