<svg height="512" viewBox="0 0 58 59" width="512" xmlns="http://www.w3.org/2000/svg"><g id="Page-1" fill="none" fill-rule="evenodd"><g id="038---Heart-Balloons" fill-rule="nonzero"><path id="Shape" d="m29 59c-.5522847 0-1-.4477153-1-1v-18c0-.5522847.4477153-1 1-1s1 .4477153 1 1v18c0 .5522847-.4477153 1-1 1z" fill="#95a5a5"/><path id="Shape" d="m35.509 37.56c.962 1.114 5.351 3.719 6.491 9.44l-4.54-1.81c-.254048-.1035675-.5440997.0169155-.65.27l-1.815 4.54s-1.42-6.4-5.46-9c0-.0055228-.0044772-.01-.01-.01h-1.06c-.0055228 0-.01.0044772-.01.01-4.04 2.6-5.455 9-5.455 9l-1.81-4.54c-.1059003-.2530845-.395952-.3735675-.65-.27l-4.54 1.81c1.131-5.688 5.5-8.3 6.431-9.463z" fill="#f29c1f"/><g fill="#f0c419"><path id="Shape" d="m13.707 40.293c-.3904999-.3903819-1.0235001-.3903819-1.414 0l-.293.293-.293-.293c-.3923789-.3789722-1.0160848-.3735524-1.4018186.0121814-.38573377.3857338-.39115361 1.0094397-.0121814 1.4018186l.293.293-.293.293c-.2599566.2510745-.3642126.6228779-.2726972.9725073.0915155.3496295.3645604.6226744.7141899.7141899.3496294.0915154.7214328-.0127406.9725073-.2726972l.293-.293.293.293c.3923789.3789722 1.0160848.3735524 1.4018186-.0121814s.3911536-1.0094397.0121814-1.4018186l-.293-.293.293-.293c.3903819-.3904999.3903819-1.0235001 0-1.414z"/><path id="Shape" d="m19.707 51.293c-.3904999-.3903819-1.0235001-.3903819-1.414 0l-.293.293-.293-.293c-.3923789-.3789722-1.0160848-.3735524-1.4018186.0121814s-.3911536 1.0094397-.0121814 1.4018186l.293.293-.293.293c-.2599566.2510745-.3642126.6228779-.2726972.9725073.0915155.3496295.3645604.6226744.7141899.7141899.3496294.0915154.7214328-.0127406.9725073-.2726972l.293-.293.293.293c.3923789.3789722 1.0160848.3735524 1.4018186-.0121814s.3911536-1.0094397.0121814-1.4018186l-.293-.293.293-.293c.3903819-.3904999.3903819-1.0235001 0-1.414z"/><path id="Shape" d="m11.707 48.293c-.3904999-.3903819-1.0235001-.3903819-1.414 0l-.293.293-.293-.293c-.39237889-.3789722-1.01608478-.3735524-1.40181858.0121814-.38573379.3857338-.39115363 1.0094397-.01218142 1.4018186l.293.293-.293.293c-.25995658.2510745-.3642126.6228779-.27269716.9725073.09151544.3496295.3645604.6226744.71418984.7141899.34962943.0915154.72143285-.0127406.97250732-.2726972l.293-.293.293.293c.3923789.3789722 1.0160848.3735524 1.4018186-.0121814s.3911536-1.0094397.0121814-1.4018186l-.293-.293.293-.293c.3903819-.3904999.3903819-1.0235001 0-1.414z"/><path id="Shape" d="m46.293 43.707c.3923789.3789722 1.0160848.3735524 1.4018186-.0121814s.3911536-1.0094397.0121814-1.4018186l-.293-.293.293-.293c.3789722-.3923789.3735524-1.0160848-.0121814-1.4018186s-1.0094397-.3911536-1.4018186-.0121814l-.293.293-.293-.293c-.3923789-.3789722-1.0160848-.3735524-1.4018186.0121814s-.3911536 1.0094397-.0121814 1.4018186l.293.293-.293.293c-.2599566.2510745-.3642126.6228779-.2726972.9725073.0915155.3496295.3645604.6226744.7141899.7141899.3496294.0915154.7214328-.0127406.9725073-.2726972l.293-.293z"/><path id="Shape" d="m41.707 51.293c-.3904999-.3903819-1.0235001-.3903819-1.414 0l-.293.293-.293-.293c-.3923789-.3789722-1.0160848-.3735524-1.4018186.0121814s-.3911536 1.0094397-.0121814 1.4018186l.293.293-.293.293c-.2599566.2510745-.3642126.6228779-.2726972.9725073.0915155.3496295.3645604.6226744.7141899.7141899.3496294.0915154.7214328-.0127406.9725073-.2726972l.293-.293.293.293c.3923789.3789722 1.0160848.3735524 1.4018186-.0121814s.3911536-1.0094397.0121814-1.4018186l-.293-.293.293-.293c.3903819-.3904999.3903819-1.0235001 0-1.414z"/><path id="Shape" d="m49.414 50 .293-.293c.3789722-.3923789.3735524-1.0160848-.0121814-1.4018186s-1.0094397-.3911536-1.4018186-.0121814l-.293.293-.293-.293c-.3923789-.3789722-1.0160848-.3735524-1.4018186.0121814s-.3911536 1.0094397-.0121814 1.4018186l.293.293-.293.293c-.2599566.2510745-.3642126.6228779-.2726972.9725073.0915155.3496295.3645604.6226744.7141899.7141899.3496294.0915154.7214328-.0127406.9725073-.2726972l.293-.293.293.293c.3923789.3789722 1.0160848.3735524 1.4018186-.0121814s.3911536-1.0094397.0121814-1.4018186z"/></g><path id="Shape" d="m31.842 32.622c12.911-5.415 16.158-15.013 16.158-20.772 0-6.34-3.88-11.85-9.5-11.85-3.6243209.01353453-7.0743928 1.55698777-9.5 4.25-2.4256072-2.69301223-5.8756791-4.23646547-9.5-4.25-5.62 0-9.5 5.51-9.5 11.85 0 5.759 3.247 15.357 16.159 20.772l2.841 3.378z" fill="#df4d60"/><path id="Shape" d="m15.19 36.28c-6.82.59-11.37-2.76-13.37-5.49-2.42-3.32-2.54-7.64.33-9.73 1.86452971-1.3457443 4.21700618-1.8264361 6.46-1.32.14507946-1.5978264.75717339-3.1176278 1.76-4.37.4280509-.5247465.9221459-.991952 1.47-1.39 2.87-2.09 6.95-.66 9.36 2.65 2.2214306 3.2430965 3.0098722 7.2576387 2.18 11.1z" fill="#ff5364"/><path id="Shape" d="m34.62 27.72c-.8251929-3.8391995-.0370085-7.8488166 2.18-11.09 2.41-3.31 6.49-4.74 9.36-2.65.5478541.398048 1.0419491.8652535 1.47 1.39v.01c1.0069529 1.2461133 1.6196965 2.7640465 1.76 4.36 2.2429938-.5064361 4.5954703-.0257443 6.46 1.32 2.87 2.09 2.75 6.41.33 9.73-2 2.73-6.55 6.08-13.38 5.49z" fill="#ff5364"/><path id="Shape" d="m29.515 34c.84-2.43 3.01-6.7 8.04-6.99.4006913-.030052.8012075.0604995 1.15.26 2.3369012 1.1478676 4.1648455 3.1219049 5.13 5.54.3046019.8426039.1855331 1.7802704-.32 2.52-1.029625 1.5336493-2.3982488 2.8098909-4 3.73-2.0021985 1.125645-4.417197 1.2441725-6.52.32z" fill="#f0c419"/><path id="Shape" d="m32.935 37.451c-.4781994.0014557-.8905059-.3358504-.9838203-.8048591-.0933145-.4690088.1584816-.9384454.6008203-1.1201409 1.7394247-.6739406 3.1850538-1.9403712 4.082-3.576-.3353136-.1293199-.5754456-.4286259-.629-.784-.0795008-.5490331.2978336-1.059728.846-1.145.6738972-.0922306 1.3550892.107906 1.872.55.234155.2897299.3192596.6723307.23 1.034-.948582 2.6521952-3.006647 4.7588269-5.636 5.769-.121052.0504682-.2508493.0766315-.382.077z" fill="#f29c1f"/><path id="Shape" d="m28.475 34c-.84-2.43-3.01-6.7-8.04-6.99-.4006913-.030052-.8012075.0604995-1.15.26-2.3369012 1.1478676-4.1648455 3.1219049-5.13 5.54-.3056142.8424915-.1864853 1.7806322.32 2.52 1.1088169 1.6663674 2.6274235 3.0196834 4.41 3.93 1.9181254.9439808 4.1562886.9879382 6.11.12z" fill="#f0c419"/><path id="Shape" d="m25.055 37.451c-.1314874-.0002372-.2616372-.0264031-.383-.077-2.6190124-1.0038758-4.672028-3.0970393-5.625-5.735-.1025946-.360993-.0284309-.7492401.2-1.047.5136212-.4607114 1.2051459-.6698537 1.888-.571.4471854.0674321.793456.4265955.8445026.8759463s-.2058376.8770331-.6265026 1.0430537c.894622 1.6409048 2.3420235 2.9115001 4.085 3.586.4421613.1816261.6939545.6507797.6009115 1.1196482-.093043.4688684-.5049014.806326-.9829115.8053518zm-4.117-6.463.008.022z" fill="#f29c1f"/><path id="Shape" d="m15 9c-.3464401-.00018496-.6681037-.17966784-.8501945-.47439433-.1820909-.29472648-.1986643-.66270321-.0438055-.97260567 2.25-4.501 5.747-4.553 5.894-4.553.3572656-.00214359.6885362.18647457.8690254.49480385s.1827764.68952712.006 1c-.1767764.31047287-.5057598.50305256-.8630254.50519615-.125 0-2.456.124-4.117 3.447-.1694246.33905165-.515974.55317662-.895.553z" fill="#ff5364"/><path id="Shape" d="m43 9c-.3808256.00207881-.7297741-.21233064-.9-.553-1.671-3.353-4.077-3.447-4.1-3.447-.5522847 0-1-.44771525-1-1s.4477153-1 1-1c.147 0 3.644.052 5.9 4.553.1553431.31085882.1381628.68007643-.0453763.97516644-.183539.29509001-.5071168.47373568-.8546237.47183356z" fill="#ff5364"/><path id="Shape" d="m6 30c-.15478948-.0000102-.30746342-.0359537-.446-.105-2.525-1.263-2.554-4.747-2.554-4.895 0-.5522847.44771525-1 1-1s1 .4477153 1 1c0 .046.062 2.416 1.447 3.108.41196608.2087561.62738671.6724755.52119701 1.1219406s-.50636393.7677453-.96819701.7700594z" fill="#fb7b76"/><path id="Shape" d="m52 30c-.4643791.0008998-.868272-.3180058-.9751118-.7699285-.1068397-.4519226.1114908-.9179291.5271118-1.1250715 1.409-.705 1.448-3.081 1.448-3.105 0-.5522847.4477153-1 1-1s1 .4477153 1 1c0 .148-.029 3.632-2.553 4.895-.1388389.0691972-.2918727.1051447-.447.105z" fill="#fb7b76"/><path id="Shape" d="m32.995 37v2.5c-.0293565.8532498-.741556 1.5230299-1.595 1.5h-4.8c-.8553696.0258347-1.5706532-.6447437-1.6-1.5-.0755954-1.0163013-.0555071-2.0374581.06-3.05.3296522-1.4602317 1.6434373-2.4853188 3.14-2.45h1.6c1.7086042-.0483087 3.135756 1.29174 3.195 3z" fill="#f3d55b"/></g></g></svg>