<svg height="512" viewBox="0 0 38 58" width="512" xmlns="http://www.w3.org/2000/svg"><g id="Page-1" fill="none" fill-rule="evenodd"><g id="039---Present" fill-rule="nonzero"><rect id="Rectangle-path" fill="#955ba5" height="58" rx="2" width="38"/><path id="Shape" d="m0 16h4.28 29.43 4.29v6h-8.93-20.16-8.91z" fill="#f3d55b"/><path id="Shape" d="m22 0v10.66 13.72 33.62h-6v-33.64-13.68-10.68z" fill="#f3d55b"/><g fill="#894b9d"><path id="Shape" d="m4 55c-.55228475 0-1-.4477153-1-1v-2c0-.5522847.44771525-1 1-1s1 .4477153 1 1v2c0 .5522847-.44771525 1-1 1z"/><path id="Shape" d="m4 49c-.55228475 0-1-.4477153-1-1v-16c0-.5522847.44771525-1 1-1s1 .4477153 1 1v16c0 .5522847-.44771525 1-1 1z"/><path id="Shape" d="m34 55c-.5522847 0-1-.4477153-1-1v-2c0-.5522847.4477153-1 1-1s1 .4477153 1 1v2c0 .5522847-.4477153 1-1 1z"/><path id="Shape" d="m34 49c-.5522847 0-1-.4477153-1-1v-16c0-.5522847.4477153-1 1-1s1 .4477153 1 1v16c0 .5522847-.4477153 1-1 1z"/></g><path id="Shape" d="m25.509 18.56c.962 1.114 5.351 3.719 6.491 9.44l-4.54-1.81c-.254048-.1035675-.5440997.0169155-.65.27l-1.815 4.54s-1.42-6.4-5.46-9c0-.0055228-.0044772-.01-.01-.01h-1.06c-.0026522 0-.0051957.0010536-.0070711.0029289-.0018753.0018754-.0029289.0044189-.0029289.0070711-4.04 2.6-5.455 9-5.455 9l-1.81-4.54c-.1059003-.2530845-.395952-.3735675-.65-.27l-4.54 1.81c1.131-5.688 5.5-8.3 6.431-9.463z" fill="#f29c1f"/><path id="Shape" d="m19.515 15c.84-2.43 3.01-6.7 8.04-6.99.4006913-.03005199.8012075.06049951 1.15.26 2.3369012 1.14786757 4.1648455 3.1219049 5.13 5.54.3046019.8426039.1855331 1.7802704-.32 2.52-1.029625 1.5336493-2.3982488 2.8098909-4 3.73-2.0021985 1.125645-4.417197 1.2441725-6.52.32z" fill="#f0c419"/><path id="Shape" d="m22.935 18.451c-.4781994.0014557-.8905059-.3358504-.9838203-.8048591-.0933145-.4690088.1584816-.9384454.6008203-1.1201409 1.7394247-.6739406 3.1850538-1.9403712 4.082-3.576-.3353136-.1293199-.5754456-.4286259-.629-.784-.0795008-.5490331.2978336-1.059728.846-1.145.6738481-.0915792 1.3547781.1084804 1.872.55.234155.2897299.3192596.6723307.23 1.034-.948582 2.6521952-3.006647 4.7588269-5.636 5.769-.1209823.0506956-.2508255.0768682-.382.077z" fill="#f29c1f"/><path id="Shape" d="m18.475 15c-.84-2.43-3.01-6.7-8.04-6.99-.4006913-.03005199-.80120755.06049951-1.15.26-2.3369012 1.14786757-4.1648455 3.1219049-5.13 5.54-.30561424.8424915-.18648526 1.7806322.32 2.52 1.10881692 1.6663674 2.62742346 3.0196834 4.41 3.93 1.9181254.9439808 4.1562886.9879382 6.11.12z" fill="#f0c419"/><path id="Shape" d="m15.055 18.451c-.1314874-.0002372-.2616372-.0264031-.383-.077-2.6190124-1.0038758-4.67202796-3.0970393-5.625-5.735-.10259462-.360993-.02843089-.7492401.2-1.047.51382965-.4603407 1.2051779-.6694296 1.888-.571.4471854.0674321.793456.4265955.8445026.8759463s-.2058376.8770331-.6265026 1.0430537c.8948698 1.6410831 2.3426509 2.9117006 4.086 3.586.4423387.1816955.6941348.6511321.6008203 1.1201409-.0933144.4690087-.5056209.8063148-.9838203.8048591zm-4.117-6.463.008.022z" fill="#f29c1f"/><path id="Shape" d="m22.995 18v2.5c-.0293565.8532498-.741556 1.5230299-1.595 1.5h-4.8c-.8553696.0258347-1.5706532-.6447437-1.6-1.5-.0755954-1.0163013-.0555071-2.0374581.06-3.05.3296522-1.4602317 1.6434373-2.4853188 3.14-2.45h1.6c1.7086042-.0483087 3.135756 1.29174 3.195 3z" fill="#f3d55b"/></g></g></svg>