<svg height="512" viewBox="0 0 42 59" width="512" xmlns="http://www.w3.org/2000/svg"><g id="Page-1" fill="none" fill-rule="evenodd"><g id="040---Gift-Bag" fill-rule="nonzero" transform="translate(-1)"><path id="Shape" d="m43 41c0 12.15-9.4 18-21 18s-21-5.85-21-18c.21082821-7.624094 3.12416807-14.9251647 8.22-20.6l9.14-8.36c2.97-5.56-5.36-3.33-5.36-8.04 0-1.65685425 1.3431458-3 3-3 .8626446-.0033807 1.684019.36897566 2.25 1.02.189833.21525044.4629994.33856217.75.33856217s.560167-.12331173.75-.33856217c.5677614-.64873435 1.3879041-1.02083774 2.25-1.02083774s1.6822386.37210339 2.25 1.02083774c.189833.21525044.4629994.33856217.75.33856217s.560167-.12331173.75-.33856217c.565981-.65102434 1.3873554-1.0233807 2.25-1.02 1.6568542 0 3 1.34314575 3 3 0 4.71-8.33 2.49-5.36 8.03l9.12 8.35c5.1088512 5.6763128 8.0299216 12.9860787 8.24 20.62z" fill="#f0c419"/><path id="Shape" d="m28.509 20.56c.962 1.114 5.351 3.719 6.491 9.44l-4.54-1.81c-.254048-.1035675-.5440997.0169155-.65.27l-1.815 4.54s-1.42-6.4-5.46-9c0-.0055228-.0044772-.01-.01-.01h-1.06c-.0026522 0-.0051957.0010536-.0070711.0029289-.0018753.0018754-.0029289.0044189-.0029289.0070711-4.04 2.6-5.455 9-5.455 9l-1.81-4.54c-.1059003-.2530845-.395952-.3735675-.65-.27l-4.54 1.81c1.131-5.688 5.5-8.3 6.431-9.463z" fill="#c03a2b"/><path id="Shape" d="m22 56c-5.100936.1865114-10.0552565-1.7266147-13.707-5.293-.37897221-.3923789-.37355237-1.0160848.01218142-1.4018186.3857338-.3857338 1.00943969-.3911536 1.40181858-.0121814 3.2833597 3.1812442 7.7246074 4.8818017 12.293 4.707 4.5683926.1748017 9.0096403-1.5257558 12.293-4.707.3923789-.3789722 1.0160848-.3735524 1.4018186.0121814s.3911536 1.0094397.0121814 1.4018186c-3.6517435 3.5663853-8.606064 5.4795114-13.707 5.293z" fill="#f29c1f"/><g fill="#ff5364"><path id="Shape" d="m9.414 7 .293-.293c.25995658-.25107447.3642126-.62287789.27269716-.97250732-.09151544-.34962944-.3645604-.6226744-.71418984-.71418984-.34962943-.09151544-.72143285.01274058-.97250732.27269716l-.293.293-.293-.293c-.39237889-.37897221-1.01608478-.37355237-1.40181858.01218142-.38573379.3857338-.39115363 1.00943969-.01218142 1.40181858l.293.293-.293.293c-.25995658.25107447-.3642126.62287789-.27269716.97250732.09151544.34962944.3645604.6226744.71418984.71418984.34962943.09151544.72143285-.01274058.97250732-.27269716l.293-.293.293.293c.39237889.37897221 1.01608478.37355237 1.40181858-.01218142.38573382-.3857338.39115362-1.00943969.01218142-1.40181858z"/><path id="Shape" d="m4.414 13 .293-.293c.37897221-.3923789.37355237-1.0160848-.01218142-1.4018186-.3857338-.3857338-1.00943969-.3911536-1.40181858-.0121814l-.293.293-.293-.293c-.39237889-.3789722-1.01608478-.3735524-1.40181858.0121814-.38573379.3857338-.39115363 1.0094397-.01218142 1.4018186l.293.293-.293.293c-.25995658.2510745-.3642126.6228779-.27269716.9725073.09151544.3496295.3645604.6226744.71418984.7141899.34962943.0915154.72143285-.0127406.97250732-.2726972l.293-.293.293.293c.39237889.3789722 1.01608478.3735524 1.40181858-.0121814.38573379-.3857338.39115363-1.0094397.01218142-1.4018186z"/><path id="Shape" d="m5.414 2 .293-.293c.37897221-.39237889.37355237-1.01608478-.01218142-1.40181857-.3857338-.3857338-1.00943969-.39115364-1.40181858-.01218143l-.293.293-.293-.293c-.39237889-.37897221-1.01608478-.37355237-1.40181858.01218143-.38573379.38573379-.39115363 1.00943968-.01218142 1.40181857l.293.293-.293.293c-.25995658.25107447-.3642126.62287789-.27269716.97250732.09151544.34962944.3645604.6226744.71418984.71418984.34962943.09151544.72143285-.01274058.97250732-.27269716l.293-.293.293.293c.39237889.37897221 1.01608478.37355237 1.40181858-.01218142.38573379-.3857338.39115363-1.00943969.01218142-1.40181858z"/><path id="Shape" d="m42.414 13 .293-.293c.3789722-.3923789.3735524-1.0160848-.0121814-1.4018186s-1.0094397-.3911536-1.4018186-.0121814l-.293.293-.293-.293c-.3923789-.3789722-1.0160848-.3735524-1.4018186.0121814s-.3911536 1.0094397-.0121814 1.4018186l.293.293-.293.293c-.2599566.2510745-.3642126.6228779-.2726972.9725073.0915155.3496295.3645604.6226744.7141899.7141899.3496294.0915154.7214328-.0127406.9725073-.2726972l.293-.293.293.293c.3923789.3789722 1.0160848.3735524 1.4018186-.0121814s.3911536-1.0094397.0121814-1.4018186z"/><path id="Shape" d="m37.707 5.293c-.3904999-.39038194-1.0235001-.39038194-1.414 0l-.293.293-.293-.293c-.3923789-.37897221-1.0160848-.37355237-1.4018186.01218142-.3857338.3857338-.3911536 1.00943969-.0121814 1.40181858l.293.293-.293.293c-.2599566.25107447-.3642126.62287789-.2726972.97250732.0915155.34962944.3645604.6226744.7141899.71418984.3496294.09151544.7214328-.01274058.9725073-.27269716l.293-.293.293.293c.3923789.37897221 1.0160848.37355237 1.4018186-.01218142.3857338-.3857338.3911536-1.00943969.0121814-1.40181858l-.293-.293.293-.293c.3903819-.39049985.3903819-1.02350015 0-1.414z"/><path id="Shape" d="m41.414 2 .293-.293c.3789722-.39237889.3735524-1.01608478-.0121814-1.40181857-.3857338-.3857338-1.0094397-.39115364-1.4018186-.01218143l-.293.293-.293-.293c-.3923789-.37897221-1.0160848-.37355237-1.4018186.01218143-.3857338.38573379-.3911536 1.00943968-.0121814 1.40181857l.293.293-.293.293c-.2599566.25107447-.3642126.62287789-.2726972.97250732.0915155.34962944.3645604.6226744.7141899.71418984.3496294.09151544.7214328-.01274058.9725073-.27269716l.293-.293.293.293c.3923789.37897221 1.0160848.37355237 1.4018186-.01218142.3857338-.3857338.3911536-1.00943969.0121814-1.40181858z"/></g><path id="Shape" d="m22.515 17c.84-2.43 3.01-6.7 8.04-6.99.4006913-.03005199.8012075.0604995 1.15.26 2.3369012 1.1478676 4.1648455 3.1219049 5.13 5.54.3046019.8426039.1855331 1.7802704-.32 2.52-1.029625 1.5336493-2.3982488 2.8098909-4 3.73-2.0021985 1.125645-4.417197 1.2441725-6.52.32z" fill="#e64c3c"/><path id="Shape" d="m25.935 20.451c-.4781994.0014557-.8905059-.3358504-.9838203-.8048591-.0933145-.4690088.1584816-.9384454.6008203-1.1201409 1.7394247-.6739406 3.1850538-1.9403712 4.082-3.576-.3353136-.1293199-.5754456-.4286259-.629-.784-.0795008-.5490331.2978336-1.059728.846-1.145.6738874-.0921001 1.3550269.1080211 1.872.55.234155.2897299.3192596.6723307.23 1.034-.948582 2.6521952-3.006647 4.7588269-5.636 5.769-.1209823.0506956-.2508255.0768682-.382.077z" fill="#c03a2b"/><path id="Shape" d="m21.475 17c-.84-2.43-3.01-6.7-8.04-6.99-.4006913-.03005199-.8012075.0604995-1.15.26-2.3369012 1.1478676-4.1648455 3.1219049-5.13 5.54-.30561424.8424915-.18648526 1.7806322.32 2.52 1.10881692 1.6663674 2.6274235 3.0196834 4.41 3.93 1.9181254.9439808 4.1562886.9879382 6.11.12z" fill="#e64c3c"/><path id="Shape" d="m18.055 20.451c-.1314874-.0002372-.2616372-.0264031-.383-.077-2.6190124-1.0038758-4.672028-3.0970393-5.625-5.735-.1025946-.360993-.0284309-.7492401.2-1.047.5139682-.4600941 1.2051992-.6691476 1.888-.571.4471854.0674321.793456.4265955.8445026.8759463s-.2058376.8770331-.6265026 1.0430537c.8948698 1.6410831 2.3426509 2.9117006 4.086 3.586.4423387.1816955.6941348.6511321.6008203 1.1201409-.0933144.4690087-.5056209.8063148-.9838203.8048591zm-4.117-6.463.008.022z" fill="#c03a2b"/><path id="Shape" d="m25.995 20v2.5c-.0293565.8532498-.741556 1.5230299-1.595 1.5h-4.8c-.8553696.0258347-1.5706532-.6447437-1.6-1.5v-2.5c-.0003693-.1849864.0197534-.3694445.06-.55.3296522-1.4602317 1.6434373-2.4853188 3.14-2.45h1.6c1.4965627-.0353188 2.8103478.9897683 3.14 2.45.0385659.1807431.0570115.3651991.055.55z" fill="#fb7b76"/></g></g></svg>