<svg height="512" viewBox="0 0 59 58" width="512" xmlns="http://www.w3.org/2000/svg"><g id="Page-1" fill="none" fill-rule="evenodd"><g id="041---Gift-Shopping" fill-rule="nonzero"><path id="Rectangle-path" d="m24 15h26v8h-26z" fill="#c03a2b"/><path id="Shape" d="m49 10c6 0 6-6 6-6l-3 1-1-3c-.8533173 1.31728847-2.1412893 2.29388258-3.64 2.76l-10.36 2.24-10.36-2.24c-1.4987107-.46611742-2.7866827-1.44271153-3.64-2.76l-1 3-3-1s0 6 6 6l12 2z" fill="#f29c1f"/><path id="Shape" d="m57.98 23.2-1.12 4.8-.46 2-1.4 6-.46 2-1.03 4.41c-.1981936.933243-1.0259772 1.5979783-1.98 1.59h-29.06c-.9540228.0079783-1.7818064-.656757-1.98-1.59l-1.03-4.41-.46-2-1.4-6-.46-2-1.12-4.8c-.0604329-.2959791.0161698-.6034143.208412-.8364351.1922421-.2330208.4795181-.3666506.781588-.3635649h39.98c.3020699-.0030857.5893459.1305441.781588.3635649.1922422.2330208.2688449.540456.208412.8364351z" fill="#3b97d3"/><path id="Shape" d="m56.4 30 .46-2h-11.4l.55-6h-2.02l-.54 6h-12.9l-.54-6h-2.02l.55 6h-11.4l.46 2h11.12l.55 6h-10.27l.46 2h9.99l.54 6h2.02l-.55-6h11.08l-.55 6h2.02l.54-6h9.99l.46-2h-10.27l.55-6zm-13.68 6h-11.44l-.55-6h12.54z" fill="#2980ba"/><path id="Shape" d="m25 10h24c1.6568542 0 3 1.3431458 3 3v2c0 .2652165-.1053568.5195704-.2928932.7071068s-.4418903.2928932-.7071068.2928932h-28c-.5522847 0-1-.4477153-1-1v-2c0-1.6568542 1.3431458-3 3-3z" fill="#e64c3c"/><path id="Rectangle-path" d="m33 10h8v6h-8z" fill="#f0c419"/><path id="Rectangle-path" d="m34 16h6v6h-6z" fill="#f29c1f"/><path id="Shape" d="m37 6s0-3.8-6.485-5.845c-.3368336-.10482838-.70396-.02594173-.968.208-1.7288274 1.62373847-2.9215167 3.73597406-3.419 6.055-.0858432.37126843.0467799.75905525.342 1 1.8259171 1.5679528 4.1255306 2.47723335 6.53 2.582z" fill="#f0c419"/><path id="Shape" d="m37 6s0-3.8 6.485-5.845c.3368336-.10482838.70396-.02594173.968.208 1.7288274 1.62373847 2.9215167 3.73597406 3.419 6.055.0858432.37126843-.0467799.75905525-.342 1-1.8259171 1.5679528-4.1255306 2.47723335-6.53 2.582z" fill="#f0c419"/><g fill="#ff5364"><path id="Shape" d="m58.414 11 .293-.293c.3789722-.3923789.3735524-1.01608478-.0121814-1.40181858-.3857338-.38573379-1.0094397-.39115363-1.4018186-.01218142l-.293.293-.293-.293c-.3923789-.37897221-1.0160848-.37355237-1.4018186.01218142-.3857338.3857338-.3911536 1.00943968-.0121814 1.40181858l.293.293-.293.293c-.2599566.2510745-.3642126.6228779-.2726972.9725073.0915155.3496295.3645604.6226744.7141899.7141899.3496294.0915154.7214328-.0127406.9725073-.2726972l.293-.293.293.293c.3923789.3789722 1.0160848.3735524 1.4018186-.0121814s.3911536-1.0094397.0121814-1.4018186z"/><path id="Shape" d="m57.707 15.293c-.3904999-.3903819-1.0235001-.3903819-1.414 0l-.293.293-.293-.293c-.3923789-.3789722-1.0160848-.3735524-1.4018186.0121814s-.3911536 1.0094397-.0121814 1.4018186l.293.293-.293.293c-.2599566.2510745-.3642126.6228779-.2726972.9725073.0915155.3496295.3645604.6226744.7141899.7141899.3496294.0915154.7214328-.0127406.9725073-.2726972l.293-.293.293.293c.3923789.3789722 1.0160848.3735524 1.4018186-.0121814s.3911536-1.0094397.0121814-1.4018186l-.293-.293.293-.293c.3903819-.3904999.3903819-1.0235001 0-1.414z"/><path id="Shape" d="m14.293 3.707c.3923789.37897221 1.0160848.37355237 1.4018186-.01218142.3857338-.3857338.3911536-1.00943969.0121814-1.40181858l-.293-.293.293-.293c.3789722-.39237889.3735524-1.01608478-.0121814-1.40181857-.3857338-.3857338-1.0094397-.39115364-1.4018186-.01218143l-.293.293-.293-.293c-.3923789-.37897221-1.0160848-.37355237-1.4018186.01218143-.3857338.38573379-.3911536 1.00943968-.0121814 1.40181857l.293.293-.293.293c-.2599566.25107447-.3642126.62287789-.2726972.97250732.0915155.34962944.3645604.6226744.7141899.71418984.3496294.09151544.7214328-.01274058.9725073-.27269716l.293-.293z"/><path id="Shape" d="m17.707 7.293c-.3904999-.39038194-1.0235001-.39038194-1.414 0l-.293.293-.293-.293c-.3923789-.37897221-1.0160848-.37355237-1.4018186.01218142-.3857338.3857338-.3911536 1.00943969-.0121814 1.40181858l.293.293-.293.293c-.2599566.25107447-.3642126.62287789-.2726972.9725073.0915155.3496295.3645604.6226744.7141899.7141899.3496294.0915154.7214328-.0127406.9725073-.2726972l.293-.293.293.293c.3923789.3789722 1.0160848.3735524 1.4018186-.0121814s.3911536-1.00943971.0121814-1.4018186l-.293-.293.293-.293c.3903819-.39049985.3903819-1.02350015 0-1.414z"/></g><path id="Shape" d="m35 6h4c1.1045695 0 2 .8954305 2 2v2h-8v-2c0-1.1045695.8954305-2 2-2z" fill="#f3d55b"/><path id="Shape" d="m42 54h-17c-2.7600532-.0033061-4.9966939-2.2399468-5-5v-4.882l-7.016-29.3c-.0921218-.4717468-.5033627-.8136117-.984-.818h-4c-.55228475 0-1-.4477153-1-1s.44771525-1 1-1h4c1.4176472.0049954 2.6400561.9975781 2.936 2.384l7.037 29.384c.0179683.0760243.0270293.1538812.027.232v5c0 1.6568542 1.3431458 3 3 3h17c.5522847 0 1 .4477153 1 1s-.4477153 1-1 1z" fill="#2980ba"/><rect id="Rectangle-path" fill="#285680" height="4" rx="1" width="8" y="11"/><circle id="Oval" cx="47" cy="53" fill="#35495e" r="5"/><circle id="Oval" cx="31" cy="53" fill="#35495e" r="5"/><circle id="Oval" cx="31" cy="53" fill="#547580" r="2"/><circle id="Oval" cx="47" cy="53" fill="#547580" r="2"/></g></g></svg>