<svg height="512" viewBox="0 0 60 58" width="512" xmlns="http://www.w3.org/2000/svg"><g id="Page-1" fill="none" fill-rule="evenodd"><g id="042---Easter-Egg" fill-rule="nonzero" transform="translate(-1)"><path id="Shape" d="m44.08 6.45c-3.72-3.97-8.22-6.45-13.08-6.45-4.88 0-9.39 2.5-13.1 6.48l-9.2 19.21c-.46167828 2.4093774-.6960408 4.8567917-.7 7.31 0 16.02 10.3 25 23 25s23-8.98 23-25c-.0039592-2.4532083-.2383217-4.9006226-.7-7.31z" fill="#894b9d"/><path id="Shape" d="m40.923 4.893c-2.823-3.012-6.236-4.893-9.923-4.893-3.7 0-7.123 1.9-9.938 4.916l-6.979 14.573c-.3502358 1.8276291-.5280167 3.6841173-.531 5.545 0 12.154 7.814 18.966 17.448 18.966s17.448-6.812 17.448-18.966c-.0029833-1.8608827-.1807642-3.7173709-.531-5.545z" fill="#955ba5"/><path id="Shape" d="m11.05 16.01c-1.25426783.0765532-2.32791948.9266938-2.69 2.13l-1.2 4c-.42482977 1.4007643.22690957 2.9031504 1.54 3.55.41308453.2056588.86855545.3118212 1.33.31h41.94c.4614445.0018212.9169155-.1043412 1.33-.31 1.3130904-.6468496 1.9648298-2.1492357 1.54-3.55l-1.2-4c-.3620805-1.2033062-1.4357322-2.0534468-2.69-2.13h-17.95l-2 2.99-2-2.99z" fill="#f3d55b"/><circle id="Oval" cx="31" cy="39" fill="#f3d55b" r="2"/><g fill="#f0c419"><circle id="Oval" cx="25" cy="49" r="2"/><circle id="Oval" cx="18" cy="42" r="2"/><circle id="Oval" cx="44" cy="42" r="2"/><circle id="Oval" cx="37" cy="49" r="2"/><path id="Shape" d="m7.707 10.293c-.39049985-.39038194-1.02350015-.39038194-1.414 0l-.293.293-.293-.293c-.39237889-.37897221-1.01608478-.37355237-1.40181858.0121814-.38573379.3857338-.39115363 1.0094397-.01218142 1.4018186l.293.293-.293.293c-.25995658.2510745-.3642126.6228779-.27269716.9725073.09151544.3496295.3645604.6226744.71418984.7141899.34962943.0915154.72143285-.0127406.97250732-.2726972l.293-.293.293.293c.25107447.2599566.62287789.3642126.97250732.2726972.34962944-.0915155.6226744-.3645604.71418984-.7141899.09151544-.3496294-.01274058-.7214328-.27269716-.9725073l-.293-.293.293-.293c.39038194-.3904999.39038194-1.0235001 0-1.414z"/><path id="Shape" d="m13.707 1.293c-.3904999-.39038194-1.0235001-.39038194-1.414 0l-.293.293-.293-.293c-.3923789-.37897221-1.0160848-.37355237-1.4018186.01218142-.38573377.3857338-.39115361 1.00943969-.0121814 1.40181858l.293.293-.293.293c-.2599566.25107447-.3642126.62287789-.2726972.97250732.0915155.34962944.3645604.6226744.7141899.71418984.3496294.09151544.7214328-.01274058.9725073-.27269716l.293-.293.293.293c.3923789.37897221 1.0160848.37355237 1.4018186-.01218142.3857338-.3857338.3911536-1.00943969.0121814-1.40181858l-.293-.293.293-.293c.3903819-.39049985.3903819-1.02350015 0-1.414z"/><path id="Shape" d="m4 7c.4043959-.00008635.76893405-.2437275.92367798-.61734544s.06922994-.80366031-.21667798-1.08965456l-.293-.293.293-.293c.37897221-.39237889.37355237-1.01608478-.01218142-1.40181858-.3857338-.38573379-1.00943969-.39115363-1.40181858-.01218142l-.293.293-.293-.293c-.39237889-.37897221-1.01608478-.37355237-1.40181858.01218142-.38573379.3857338-.39115363 1.00943969-.01218142 1.40181858l.293.293-.293.293c-.25995658.25107447-.3642126.62287789-.27269716.97250732.09151544.34962944.3645604.6226744.71418984.71418984.34962943.09151544.72143285-.01274058.97250732-.27269716l.293-.293.293.293c.18749273.18754937.44180519.29294336.707.293z"/><path id="Shape" d="m57.707 10.293c-.3904999-.39038194-1.0235001-.39038194-1.414 0l-.293.293-.293-.293c-.3923789-.37897221-1.0160848-.37355237-1.4018186.0121814-.3857338.3857338-.3911536 1.0094397-.0121814 1.4018186l.293.293-.293.293c-.2599566.2510745-.3642126.6228779-.2726972.9725073.0915155.3496295.3645604.6226744.7141899.7141899.3496294.0915154.7214328-.0127406.9725073-.2726972l.293-.293.293.293c.3923789.3789722 1.0160848.3735524 1.4018186-.0121814s.3911536-1.0094397.0121814-1.4018186l-.293-.293.293-.293c.3903819-.3904999.3903819-1.0235001 0-1.414z"/><path id="Shape" d="m51.707 1.293c-.3904999-.39038194-1.0235001-.39038194-1.414 0l-.293.293-.293-.293c-.3923789-.37897221-1.0160848-.37355237-1.4018186.01218142-.3857338.3857338-.3911536 1.00943969-.0121814 1.40181858l.293.293-.293.293c-.2599566.25107447-.3642126.62287789-.2726972.97250732.0915155.34962944.3645604.6226744.7141899.71418984.3496294.09151544.7214328-.01274058.9725073-.27269716l.293-.293.293.293c.3923789.37897221 1.0160848.37355237 1.4018186-.01218142.3857338-.3857338.3911536-1.00943969.0121814-1.40181858l-.293-.293.293-.293c.3903819-.39049985.3903819-1.02350015 0-1.414z"/><path id="Shape" d="m60.414 5 .293-.293c.2599566-.25107447.3642126-.62287789.2726972-.97250732-.0915155-.34962944-.3645604-.6226744-.7141899-.71418984-.3496294-.09151544-.7214328.01274058-.9725073.27269716l-.293.293-.293-.293c-.3923789-.37897221-1.0160848-.37355237-1.4018186.01218142-.3857338.3857338-.3911536 1.00943969-.0121814 1.40181858l.293.293-.293.293c-.2599566.25107447-.3642126.62287789-.2726972.97250732.0915155.34962944.3645604.6226744.7141899.71418984.3496294.09151544.7214328-.01274058.9725073-.27269716l.293-.293.293.293c.3923789.37897221 1.0160848.37355237 1.4018186-.01218142.3857338-.3857338.3911536-1.00943969.0121814-1.40181858z"/></g><path id="Shape" d="m41.14 21.7c1.342-.11 6.077 4.86 6.86 10.3l-4-1.6-1-.4-2 5s-3-8-9-9h-2c-6 1-9 9-9 9l-2-5-1 .4-4 1.6c.79-5.481 5.6-10.488 6.893-10.292z" fill="#f29c1f"/><path id="Shape" d="m31 18.031s-1.921-11.415-11.378-12.007c-.5388817-.02719059-1.0745642.0975479-1.546.36-1.637.886-5.416 3.336-6.866 7.69-.3916731 1.1611639-.2314693 2.4376382.435 3.466 2 3.071 7.222 8.712 14.355 5.5z" fill="#f0c419"/><path id="Shape" d="m26.27 20.59c-4.311-2.619-5.745-7.894-6.14-9.843-.0345128-.1735199.0252421-.35236.1571323-.4702806.1318903-.1179205.3162776-.1573633.4848677-.1037194 4.648 1.309 6.653 6.9 7.118 8.437z" fill="#f29c1f"/><path id="Shape" d="m36 23.04c1.7850698.8517671 3.7867644 1.1412108 5.74.83 4.17-.7 7.2-4.17 8.61-6.34.6735794-1.0270534.8359204-2.3073328.44-3.47-1.45-4.36-5.23-6.81-6.87-7.69-.4673123-.26743406-1.0025599-.39255687-1.54-.36-6.93.43-9.82 6.68-10.86 9.99-.2160257.6540766-.3864344 1.3223461-.51 2-.0057054.0051905-.0092708.0123214-.01.02z" fill="#f0c419"/><path id="Shape" d="m34.11 18.61c.465-1.537 2.471-7.128 7.119-8.437.1685901-.0536439.3529774-.0142011.4848677.1037194.1318902.1179206.1916451.2967607.1571323.4702806-.4 1.949-1.829 7.224-6.141 9.843z" fill="#f29c1f"/><path id="Shape" d="m36 22v2c-.0032948 1.1032019-.8967981 1.9967052-2 2h-6c-1.1032019-.0032948-1.9967052-.8967981-2-2v-2c0-2.209139 1.790861-4 4-4h2c2.209139 0 4 1.790861 4 4z" fill="#f3d55b"/></g></g></svg>