<svg height="512" viewBox="0 0 58 58" width="512" xmlns="http://www.w3.org/2000/svg"><g id="Page-1" fill="none" fill-rule="evenodd"><g id="043---Birthday" fill-rule="nonzero"><path id="Shape" d="m23 51h-21c-1.10320187-.0032948-1.9967052-.8967981-2-2v-36h52v38z" fill="#ecf0f1"/><path id="Shape" d="m4 6c-2.209139 0-4 1.790861-4 4v5h52v-5c0-2.209139-1.790861-4-4-4z" fill="#e64c3c"/><g fill="#95a5a5"><rect id="Rectangle-path" height="11" rx="3" width="6" x="23"/><rect id="Rectangle-path" height="11" rx="3" width="6" x="38"/><rect id="Rectangle-path" height="11" rx="3" width="6" x="8"/></g><path id="Shape" d="m51 34c2 0 5-1 7-6h-3l-1-3c-.8658706 1.1598655-2.0507796 2.0424663-3.41 2.54l-12.59 2.46-12.59-2.46c-1.3592204-.4975337-2.5441294-1.3801345-3.41-2.54l-1 3h-3c2 5 5 6 7 6l13 2z" fill="#f29c1f"/><path id="Shape" d="m24 20h-17c-1.1045695 0-2 .8954305-2 2v22c0 1.1045695.8954305 2 2 2h12c.5522847 0 1-.4477153 1-1s-.4477153-1-1-1v-2c0-.5522847-.4477153-1-1-1s-1 .4477153-1 1v2h-4v-4h2c.5522847 0 1-.4477153 1-1s-.4477153-1-1-1h-2v-4h2c.5522847 0 1-.4477153 1-1s-.4477153-1-1-1h-2v-4h1c.5522847 0 1-.4477153 1-1s-.4477153-1-1-1h-1v-4h11c.5522847 0 1-.4477153 1-1s-.4477153-1-1-1zm-13 24h-4v-4h4zm0-6h-4v-4h4zm0-6h-4v-4h4zm0-6h-4v-4h4z" fill="#d1d4d1"/><path id="Shape" d="m38.667 34-.667-4c-.9137301-3.7990969-3.8082701-6.808363-7.569-7.869-.2802285-.0895245-.5856605-.0511169-.835.105-2.2558771 1.457061-3.8666022 3.7242461-4.5 6.334-.0646476.2842154-.0049883.5825118.164.82.827 1.177 3.597 4.61 7.74 4.61z" fill="#f0c419"/><path id="Shape" d="m37.333 34 .667-4c.9137301-3.7990969 3.8082701-6.808363 7.569-7.869.2802285-.0895245.5856605-.0511169.835.105 2.2558771 1.457061 3.8666022 3.7242461 4.5 6.334.0646476.2842154.0049883.5825118-.164.82-.827 1.177-3.597 4.61-7.74 4.61z" fill="#f0c419"/><path id="Shape" d="m35.53 31.38c-.3003377.0002547-.5848863-.1344928-.775-.367-1.058307-1.3668668-2.4637796-2.4249425-4.07-3.064-.5246705-.1739697-.8089697-.7403295-.635-1.265s.7403295-.8089697 1.265-.635c1.9668546.7597358 3.6909898 2.038409 4.989 3.7.2445321.29906.2949399.7122196.1294846 1.0613004s-.5171779.571641-.9034846.5716996z" fill="#f29c1f"/><path id="Shape" d="m40.47 31.38c-.3863067-.0000586-.7380293-.2226188-.9034846-.5716996s-.1150475-.7622404.1294846-1.0613004c1.2980102-1.661591 3.0221454-2.9402642 4.989-3.7.3394023-.1125387.7130616-.0354597.9802241.202202s.3872398.5997996.315.95-.3258218.6352593-.6652241.747798c-1.6062204.6390575-3.011693 1.6971332-4.07 3.064-.189723.2332551-.4743296.3687646-.775.369z" fill="#f29c1f"/><path id="Shape" d="m37 30h2c1.6568542 0 3 1.3431458 3 3v1h-8v-1c0-1.6568542 1.3431458-3 3-3z" fill="#f3d55b"/><path id="Shape" d="m23 39h30v18c0 .5522847-.4477153 1-1 1h-28c-.5522847 0-1-.4477153-1-1z" fill="#e64c3c"/><path id="Shape" d="m24 34h28c1.6568542 0 3 1.3431458 3 3v2c0 .5522847-.4477153 1-1 1h-32c-.5522847 0-1-.4477153-1-1v-2c0-1.6568542 1.3431458-3 3-3z" fill="#e64c3c"/><path id="Rectangle-path" d="m34 34h8v6h-8z" fill="#f0c419"/><path id="Rectangle-path" d="m23 40h30v3h-30z" fill="#c03a2b"/><path id="Rectangle-path" d="m35 40h6v18h-6z" fill="#f29c1f"/></g></g></svg>