<svg height="512" viewBox="0 0 58 58" width="512" xmlns="http://www.w3.org/2000/svg"><g id="Page-1" fill="none" fill-rule="evenodd"><g id="044---Chocolate" fill-rule="nonzero" transform="translate(-1)"><path id="Shape" d="m47 24v-22c-.0032948-1.10320187-.8967981-1.9967052-2-2h-30c-1.1032019.0032948-1.9967052.89679813-2 2v22" fill="#a56a43"/><g fill="#cb8252"><rect id="Rectangle-path" height="6" rx="1" width="6" x="27" y="4"/><rect id="Rectangle-path" height="6" rx="1" width="6" x="17" y="4"/><rect id="Rectangle-path" height="6" rx="1" width="6" x="37" y="4"/><rect id="Rectangle-path" height="6" rx="1" width="6" x="27" y="14"/><path id="Shape" d="m17.81 19.98c-.4681587-.0933767-.8064218-.5026333-.81-.98v-4c0-.5522847.4477153-1 1-1h4c.5522847 0 1 .4477153 1 1v3.25z"/><path id="Shape" d="m37 18.25v-3.25c0-.5522847.4477153-1 1-1h4c.5522847 0 1 .4477153 1 1v4c.000097.4752686-.3343337.8849463-.8.98z"/></g><path id="Shape" d="m13 32v24c0 1.1045695.8954305 2 2 2h30c1.1045695 0 2-.8954305 2-2v-24" fill="#ff5364"/><path id="Shape" d="m44.91 24h3.09c.5522847 0 1 .4477153 1 1v6c0 .5522847-.4477153 1-1 1h-36c-.5522847 0-1-.4477153-1-1v-6c0-.5522847.4477153-1 1-1z" fill="#f3d55b"/><path id="Shape" d="m47 45-3.27 2.463c-1.0068649.790606-2.4472134.6975691-3.344-.216l-.586-.547c-.4747971-.4822464-1.1232475-.7538048-1.8-.7538048s-1.3252029.2715584-1.8.7538048l-.4.376c-.4747971.4822464-1.1232475.7538048-1.8.7538048s-1.3252029-.2715584-1.8-.7538048l-.4-.376c-.4747971-.4822464-1.1232475-.7538048-1.8-.7538048s-1.3252029.2715584-1.8.7538048l-.4.376c-.4747971.4822464-1.1232475.7538048-1.8.7538048s-1.3252029-.2715584-1.8-.7538048l-.4-.376c-.4747971-.4822464-1.1232475-.7538048-1.8-.7538048s-1.3252029.2715584-1.8.7538048l-.586.552c-.8967866.9135691-2.3371351 1.006606-3.344.216l-3.27-2.468v5l3.27 2.463c1.0070094.7901398 2.4470101.6971254 3.344-.216l.586-.547c.4747971-.4822464 1.1232475-.7538048 1.8-.7538048s1.3252029.2715584 1.8.7538048l.4.376c.4747971.4822464 1.1232475.7538048 1.8.7538048s1.3252029-.2715584 1.8-.7538048l.4-.376c.4747971-.4822464 1.1232475-.7538048 1.8-.7538048s1.3252029.2715584 1.8.7538048l.4.376c.4747971.4822464 1.1232475.7538048 1.8.7538048s1.3252029-.2715584 1.8-.7538048l.4-.376c.4747971-.4822464 1.1232475-.7538048 1.8-.7538048s1.3252029.2715584 1.8.7538048l.586.552c.8969899.9131254 2.3369906 1.0061398 3.344.216l3.27-2.468z" fill="#df4d60"/><path id="Shape" d="m9.414 20 .293-.293c.3789722-.3923789.3735524-1.0160848-.01218142-1.4018186-.3857338-.3857338-1.00943969-.3911536-1.40181858-.0121814l-.293.293-.293-.293c-.39237889-.3789722-1.01608478-.3735524-1.40181858.0121814-.38573379.3857338-.39115363 1.0094397-.01218142 1.4018186l.293.293-.293.293c-.25995658.2510745-.3642126.6228779-.27269716.9725073.09151544.3496295.3645604.6226744.71418984.7141899.34962943.0915154.72143285-.0127406.97250732-.2726972l.293-.293.293.293c.39237889.3789722 1.01608478.3735524 1.40181858-.0121814.38573382-.3857338.39115362-1.0094397.01218142-1.4018186z" fill="#f0c419"/><path id="Shape" d="m4 28c.4043959-.0000863.76893405-.2437275.92367798-.6173454.15474393-.373618.06922994-.8036603-.21667798-1.0896546l-.293-.293.293-.293c.37897221-.3923789.37355237-1.0160848-.01218142-1.4018186-.3857338-.3857338-1.00943969-.3911536-1.40181858-.0121814l-.293.293-.293-.293c-.39237889-.3789722-1.01608478-.3735524-1.40181858.0121814-.38573379.3857338-.39115363 1.0094397-.01218142 1.4018186l.293.293-.293.293c-.25995658.2510745-.3642126.6228779-.27269716.9725073.09151544.3496295.3645604.6226744.71418984.7141899.34962943.0915154.72143285-.0127406.97250732-.2726972l.293-.293.293.293c.18749273.1875494.44180519.2929434.707.293z" fill="#f0c419"/><path id="Shape" d="m7.707 31.293c-.39049985-.3903819-1.02350015-.3903819-1.414 0l-.293.293-.293-.293c-.39237889-.3789722-1.01608478-.3735524-1.40181858.0121814-.38573379.3857338-.39115363 1.0094397-.01218142 1.4018186l.293.293-.293.293c-.25995658.2510745-.3642126.6228779-.27269716.9725073.09151544.3496295.3645604.6226744.71418984.7141899.34962943.0915154.72143285-.0127406.97250732-.2726972l.293-.293.293.293c.25107447.2599566.62287789.3642126.97250732.2726972.34962944-.0915155.6226744-.3645604.71418984-.7141899.09151544-.3496294-.01274058-.7214328-.27269716-.9725073l-.293-.293.293-.293c.39038194-.3904999.39038194-1.0235001 0-1.414z" fill="#f0c419"/><path id="Shape" d="m52.293 21.707c.3923789.3789722 1.0160848.3735524 1.4018186-.0121814s.3911536-1.0094397.0121814-1.4018186l-.293-.293.293-.293c.3789722-.3923789.3735524-1.0160848-.0121814-1.4018186s-1.0094397-.3911536-1.4018186-.0121814l-.293.293-.293-.293c-.3923789-.3789722-1.0160848-.3735524-1.4018186.0121814s-.3911536 1.0094397-.0121814 1.4018186l.293.293-.293.293c-.2599566.2510745-.3642126.6228779-.2726972.9725073.0915155.3496295.3645604.6226744.7141899.7141899.3496294.0915154.7214328-.0127406.9725073-.2726972l.293-.293z" fill="#f0c419"/><path id="Shape" d="m58.414 26 .293-.293c.3789722-.3923789.3735524-1.0160848-.0121814-1.4018186s-1.0094397-.3911536-1.4018186-.0121814l-.293.293-.293-.293c-.3923789-.3789722-1.0160848-.3735524-1.4018186.0121814s-.3911536 1.0094397-.0121814 1.4018186l.293.293-.293.293c-.2599566.2510745-.3642126.6228779-.2726972.9725073.0915155.3496295.3645604.6226744.7141899.7141899.3496294.0915154.7214328-.0127406.9725073-.2726972l.293-.293.293.293c.3923789.3789722 1.0160848.3735524 1.4018186-.0121814s.3911536-1.0094397.0121814-1.4018186z" fill="#f0c419"/><path id="Shape" d="m55.707 31.293c-.3904999-.3903819-1.0235001-.3903819-1.414 0l-.293.293-.293-.293c-.3923789-.3789722-1.0160848-.3735524-1.4018186.0121814s-.3911536 1.0094397-.0121814 1.4018186l.293.293-.293.293c-.2599566.2510745-.3642126.6228779-.2726972.9725073.0915155.3496295.3645604.6226744.7141899.7141899.3496294.0915154.7214328-.0127406.9725073-.2726972l.293-.293.293.293c.3923789.3789722 1.0160848.3735524 1.4018186-.0121814s.3911536-1.0094397.0121814-1.4018186l-.293-.293.293-.293c.3903819-.3904999.3903819-1.0235001 0-1.414z" fill="#f0c419"/><path id="Shape" d="m36.517 28.555c.956 1.112 5.353 3.716 6.488 9.443l-4.54-1.81c-.254048-.1035675-.5440997.0169155-.65.27l-1.81 4.542s-1.42-6.4-5.46-9c0-.0055228-.0044772-.01-.01-.01h-1.06c-.0055228 0-.01.0044772-.01.01-4.04 2.6-5.46 9-5.46 9l-1.81-4.54c-.1059003-.2530845-.395952-.3735675-.65-.27l-4.54 1.81c1.13-5.68 5.487-8.3 6.428-9.458z" fill="#f29c1f"/><path id="Shape" d="m30.525 25c.84-2.43 3.01-6.7 8.04-6.99.4006913-.030052.8012075.0604995 1.15.26 2.3369012 1.1478676 4.1648455 3.1219049 5.13 5.54.3056142.8424915.1864853 1.7806322-.32 2.52-1.029625 1.5336493-2.3982488 2.8098909-4 3.73-2.0019301 1.1265758-4.4173729 1.2451251-6.52.32z" fill="#f0c419"/><path id="Shape" d="m29.485 25c-.84-2.43-3.01-6.7-8.04-6.99-.4006913-.030052-.8012075.0604995-1.15.26-2.3369012 1.1478676-4.1648455 3.1219049-5.13 5.54-.3046019.8426039-.1855331 1.7802704.32 2.52 1.1088169 1.6663674 2.6274235 3.0196834 4.41 3.93 1.9181254.9439808 4.1562886.9879382 6.11.12z" fill="#f0c419"/><path id="Shape" d="m33.946 28.448c-.4774364.000769-.8888238-.3360718-.9822697-.8042747-.0934459-.4682028.1571173-.9371585.5982697-1.1197253 1.7405574-.6734183 3.1870814-1.9403665 4.084-3.577-.3360909-.1287421-.5770746-.4281578-.631-.784-.0800123-.5487459.2978171-1.0592174.846-1.143.6740341-.0940719 1.3559701.1062832 1.872.55.2347578.2898296.3199116.6730217.23 1.035-.947587 2.6516761-3.0051509 4.7578123-5.634 5.767-.1214324.0502542-.2515797.0760798-.383.076z" fill="#f29c1f"/><path id="Shape" d="m26.065 28.448c-.1314203.0000798-.2615676-.0257458-.383-.076-2.6184229-1.0038968-4.6710045-3.096625-5.624-5.734-.1031048-.3616136-.0289242-.7506903.2-1.049.5146215-.4588759 1.2054248-.667434 1.888-.57.4469276.0680613.7926072.4275065.8431735.8767499.0505662.4492434-.206559.8765394-.6271735 1.0422501.8953652 1.64144 2.3439055 2.9121019 4.088 3.586.4411524.1825668.6917156.6515225.5982697 1.1197253-.0934459.4682029-.5048333.8050437-.9822697.8042747zm-4.115-6.459.006.018z" fill="#f29c1f"/><path id="Shape" d="m34.005 28v2.5c-.0293468.8552563-.7446304 1.5258347-1.6 1.5h-4.8c-.8553696.0258347-1.5706532-.6447437-1.6-1.5-.0755954-1.0163013-.0555071-2.0374581.06-3.05.3296522-1.4602317 1.6434373-2.4853188 3.14-2.45h1.6c1.7107392-.0516694 3.1413065 1.2894874 3.2 3z" fill="#f3d55b"/></g></g></svg>