<svg height="512" viewBox="0 0 58 58" width="512" xmlns="http://www.w3.org/2000/svg"><g id="Page-1" fill="none" fill-rule="evenodd"><g id="046---Wrapping-Paper" fill-rule="nonzero" transform="translate(-1)"><path id="Shape" d="m17 52h40c1.1045695 0 2-.8954305 2-2v-44c0-1.1045695-.8954305-2-2-2h-44v48z" fill="#f0c419"/><g fill="#ff5364"><path id="Shape" d="m26 38.62c.4791302-.9522976 1.4350553-1.5717371 2.5-1.62.7089188.032097 1.3746673.3497454 1.845615.8805977.4709478.5308524.7069969 1.2297103.654385 1.9374023 0 2.114-2.035 3.513-5 6.182-2.965-2.669-5-4.068-5-6.182-.0526119-.707692.1834372-1.4065499.654385-1.9374023.4709477-.5308523 1.1366962-.8485007 1.845615-.8805977 1.0649447.0482629 2.0208698.6677024 2.5 1.62z"/><path id="Shape" d="m49 27.62c.4791302-.9522976 1.4350553-1.5717371 2.5-1.62.7089188.032097 1.3746673.3497454 1.845615.8805977.4709478.5308524.7069969 1.2297103.654385 1.9374023 0 2.114-2.035 3.513-5 6.182-2.965-2.669-5-4.068-5-6.182-.0526119-.707692.1834372-1.4065499.654385-1.9374023.4709477-.5308523 1.1366962-.8485007 1.845615-.8805977 1.0649447.0482629 2.0208698.6677024 2.5 1.62z"/><path id="Shape" d="m29 10.62c.4791302-.95229761 1.4350553-1.57173711 2.5-1.62.7089188.03209702 1.3746673.3497454 1.845615.88059773.4709478.53085237.7069969 1.22971027.654385 1.93740227 0 2.114-2.035 3.513-5 6.182-2.965-2.669-5-4.068-5-6.182-.0526119-.707692.1834372-1.4065499.654385-1.93740227.4709477-.53085233 1.1366962-.84850071 1.845615-.88059773 1.0649447.04826289 2.0208698.66770239 2.5 1.62z"/><path id="Shape" d="m46.5 14.08c.3486172-.6466769 1.0156597-1.0583375 1.75-1.08.4840533.0088168.9437631.2138743 1.2737199.5681536s.5018554.8273888.4762801 1.3108464c0 1.409-1.424 2.342-3.5 4.121-2.076-1.779-3.5-2.712-3.5-4.121-.0255753-.4834576.1463233-.9565671.4762801-1.3108464s.7896666-.5593368 1.2737199-.5681536c.7343403.0216625 1.4013828.4333231 1.75 1.08z"/><path id="Shape" d="m32.5 26.08c.3486172-.6466769 1.0156597-1.0583375 1.75-1.08.4840533.0088168.9437631.2138743 1.2737199.5681536s.5018554.8273888.4762801 1.3108464c0 1.409-1.424 2.342-3.5 4.121-2.076-1.779-3.5-2.712-3.5-4.121-.0255753-.4834576.1463233-.9565671.4762801-1.3108464s.7896666-.5593368 1.2737199-.5681536c.7343403.0216625 1.4013828.4333231 1.75 1.08z"/><path id="Shape" d="m42.5 42.08c.3486172-.6466769 1.0156597-1.0583375 1.75-1.08.4840533.0088168.9437631.2138743 1.2737199.5681536s.5018554.8273888.4762801 1.3108464c0 1.409-1.424 2.342-3.5 4.121-2.076-1.779-3.5-2.712-3.5-4.121-.0255753-.4834576.1463233-.9565671.4762801-1.3108464s.7896666-.5593368 1.2737199-.5681536c.7343403.0216625 1.4013828.4333231 1.75 1.08z"/></g><path id="Shape" d="m1 10v42c0 3.314 3.582 6 8 6s8-2.686 8-6v-42z" fill="#f3d55b"/><path id="Shape" d="m13 4.81c2.39 1.03 4 2.97 4 5.19 0 3.31-3.58 6-8 6s-8-2.69-8-6c0-2.22 1.61-4.16 4-5.19z" fill="#f29c1f"/><path id="Shape" d="m5 2v7c0 1.105 1.791 2 4 2s4-.895 4-2v-7z" fill="#ecf0f1"/><path id="Shape" d="m6 21.62c.47913018-.9522976 1.43505533-1.5717371 2.5-1.62.70891875.032097 1.37466725.3497454 1.845615.8805977.4709478.5308524.7069969 1.2297103.654385 1.9374023 0 2.114-2.035 3.513-5 6.182-2.965-2.669-5-4.068-5-6.182-.05261194-.707692.18343719-1.4065499.65438497-1.9374023.47094778-.5308523 1.13669628-.8485007 1.84561503-.8805977 1.06494467.0482629 2.02086982.6677024 2.5 1.62z" fill="#fb7b76"/><path id="Shape" d="m12 45.62c.4791302-.9522976 1.4350553-1.5717371 2.5-1.62.7089188.032097 1.3746673.3497454 1.845615.8805977.4709478.5308524.7069969 1.2297103.654385 1.9374023 0 2.114-2.035 3.513-5 6.182-2.965-2.669-5-4.068-5-6.182-.05261194-.707692.18343719-1.4065499.65438497-1.9374023.47094778-.5308523 1.13669628-.8485007 1.84561503-.8805977 1.0649447.0482629 2.0208698.6677024 2.5 1.62z" fill="#fb7b76"/><path id="Shape" d="m9.5 34.08c.34861715-.6466769 1.0156597-1.0583375 1.75-1.08.4840533.0088168.9437631.2138743 1.2737199.5681536s.5018554.8273888.4762801 1.3108464c0 1.409-1.424 2.342-3.5 4.121-2.076-1.779-3.5-2.712-3.5-4.121-.02557528-.4834576.14632331-.9565671.47628009-1.3108464s.78966664-.5593368 1.27371991-.5681536c.73434031.0216625 1.40138285.4333231 1.75 1.08z" fill="#fb7b76"/><ellipse id="Oval" cx="9" cy="2" fill="#d1d4d1" rx="4" ry="2"/></g></g></svg>