<svg height="512" viewBox="0 0 56 58" width="512" xmlns="http://www.w3.org/2000/svg"><g id="Page-1" fill="none" fill-rule="evenodd"><g id="047---Teddy-Bear" fill-rule="nonzero" transform="translate(-1)"><path id="Shape" d="m50.04 42.39c3.55-2.51 1.94-8.34-2.12-10.39-2.6871727-1.1217852-5.5509106-1.7615565-8.46-1.89h-20.92c-2.9090894.1284435-5.7728273.7682148-8.46 1.89-4.06 2.05-5.67 7.88-2.12 10.39z" fill="#805333"/><path id="Shape" d="m41.71 35.02c1.1849567 1.9016361 2.0750514 3.9717806 2.64 6.14l-5.6 15.05c-3.0831371 1.2919589-6.4090086 1.9025548-9.75 1.79-3.3409914.1125548-6.6668629-.4980411-9.75-1.79l-5.6-15.05c.5453565-2.0893099 1.3944042-4.0872673 2.52-5.93l12.83-3.23z" fill="#a56a43"/><path id="Shape" d="m18.98 5.52c-.2063461-2.47540968-1.9207799-4.56584236-4.3079219-5.25270833s-4.95040194.17272154-6.44079902 2.15991764c-1.49039708 1.98719611-1.5978883 4.68861013-.27009721 6.78794398 1.32779109 2.09933381 3.81464793 3.15986921 6.24881813 2.66484671h.01z" fill="#a56a43"/><path id="Shape" d="m43.78 11.88h.01c2.4425332.5031256 4.941634-.5570626 6.2773234-2.66301556 1.3356894-2.10595298 1.2294617-4.81855681-.2668262-6.81360733-1.4962879-1.99505052-4.0706438-2.85655818-6.4663517-2.16396322s-4.1132368 2.79487902-4.3141455 5.28058611z" fill="#a56a43"/><path id="Shape" d="m14.33 11.62c-1.7080063-.7816764-2.6397633-2.64857032-2.2376417-4.48340048s2.0292688-3.14091438 3.9076417-3.13659952c1.1890204.00125868 2.31658.52842943 3.08 1.44z" fill="#fb7b76"/><path id="Shape" d="m43.67 11.62c1.7080063-.7816764 2.6397633-2.64857032 2.2376417-4.48340048s-2.0292688-3.14091438-3.9076417-3.13659952c-1.1890204.00125868-2.31658.52842943-3.08 1.44z" fill="#fb7b76"/><path id="Shape" d="m18.86 30.38c-.1135144-.081556-.2205046-.1718289-.32-.27-5.0579951-4.3697872-6.8665818-11.4233248-4.5352978-17.6877857 2.3312839-6.26446078 8.3111109-10.41958396 14.9952978-10.41958396s12.6640139 4.15512318 14.9952978 10.41958396c2.331284 6.2644609.5226973 13.3179985-4.5352978 17.6877857-.09.08-.18.16-.27.23z" fill="#cb8252"/><path id="Shape" d="m37 26c.0033452 1.4058126-.3695516 2.7869117-1.08 4-.37.64-.83 1.8-1.35 3-1.7814312.6655503-3.6683072 1.0043072-5.57 1-1.8686693.0019784-3.723283-.3229174-5.48-.96-.57-1.21-1.06-2.38-1.44-3.04-.7149417-1.2112012-1.0881777-2.5935566-1.08-4-.0044636-2.8860271 1.5525838-5.5486929 4.07-6.96h7.86c2.5174162 1.4113071 4.0744636 4.0739729 4.07 6.96z" fill="#fdd7ad"/><path id="Shape" d="m29 27c-.5522847 0-1-.4477153-1-1v-4c0-.5522847.4477153-1 1-1s1 .4477153 1 1v4c0 .5522847-.4477153 1-1 1z" fill="#f9c795"/><circle id="Oval" cx="22" cy="14" fill="#35495e" r="3"/><circle id="Oval" cx="36" cy="14" fill="#35495e" r="3"/><path id="Shape" d="m18.06 43.98c-1.1706794-1.3416862-2.7009533-2.3202287-4.41-2.82-1.5703795-.469783-3.263603-.2896529-4.7.5-.35625749.2055506-.68833368.4504148-.99.73-2.47 2.29-2.79 6.72-.57 10.56 2.48 4.31 7.21 6.23 10.56 4.3s4.05-6.99 1.56-11.3c-.1-.17-.2-.34-.31-.5" fill="#cb8252"/><path id="Shape" d="m38.74 45.54c-.09.13-.17.27-.25.41-2.49 4.31-1.79 9.37 1.56 11.3s8.08.01 10.56-4.3c2.22-3.84 1.9-8.27-.57-10.56-.3016663-.2795852-.6337425-.5244494-.99-.73-1.436397-.7896529-3.1296205-.969783-4.7-.5-1.7445768.508241-3.3020461 1.5164242-4.48 2.9" fill="#cb8252"/><g fill="#ff5364"><path id="Shape" d="m11.707 25.293c-.3904999-.3903819-1.0235001-.3903819-1.414 0l-.293.293-.293-.293c-.39237889-.3789722-1.01608478-.3735524-1.40181858.0121814-.38573379.3857338-.39115363 1.0094397-.01218142 1.4018186l.293.293-.293.293c-.25995658.2510745-.3642126.6228779-.27269716.9725073.09151544.3496295.3645604.6226744.71418984.7141899.34962943.0915154.72143285-.0127406.97250732-.2726972l.293-.293.293.293c.3923789.3789722 1.0160848.3735524 1.4018186-.0121814s.3911536-1.0094397.0121814-1.4018186l-.293-.293.293-.293c.3903819-.3904999.3903819-1.0235001 0-1.414z"/><path id="Shape" d="m8 23c.4043959-.0000863.76893405-.2437275.92367798-.6173454.15474393-.373618.06922994-.8036603-.21667798-1.0896546l-.293-.293.293-.293c.37897221-.3923789.37355237-1.0160848-.01218142-1.4018186-.3857338-.3857338-1.00943969-.3911536-1.40181858-.0121814l-.293.293-.293-.293c-.39237889-.3789722-1.01608478-.3735524-1.40181858.0121814-.38573379.3857338-.39115363 1.0094397-.01218142 1.4018186l.293.293-.293.293c-.25995658.2510745-.3642126.6228779-.27269716.9725073.09151544.3496295.3645604.6226744.71418984.7141899.34962943.0915154.72143285-.0127406.97250732-.2726972l.293-.293.293.293c.18749273.1875494.44180519.2929434.707.293z"/><path id="Shape" d="m4.707 29.293c-.39049985-.3903819-1.02350015-.3903819-1.414 0l-.293.293-.293-.293c-.39237889-.3789722-1.01608478-.3735524-1.40181858.0121814-.38573379.3857338-.39115363 1.0094397-.01218142 1.4018186l.293.293-.293.293c-.25995658.2510745-.3642126.6228779-.27269716.9725073.09151544.3496295.3645604.6226744.71418984.7141899.34962943.0915154.72143285-.0127406.97250732-.2726972l.293-.293.293.293c.25107447.2599566.62287789.3642126.97250732.2726972.34962944-.0915155.6226744-.3645604.71418984-.7141899.09151544-.3496294-.01274058-.7214328-.27269716-.9725073l-.293-.293.293-.293c.39038194-.3904999.39038194-1.0235001 0-1.414z"/><path id="Shape" d="m49.707 25.293c-.3904999-.3903819-1.0235001-.3903819-1.414 0l-.293.293-.293-.293c-.3923789-.3789722-1.0160848-.3735524-1.4018186.0121814s-.3911536 1.0094397-.0121814 1.4018186l.293.293-.293.293c-.2599566.2510745-.3642126.6228779-.2726972.9725073.0915155.3496295.3645604.6226744.7141899.7141899.3496294.0915154.7214328-.0127406.9725073-.2726972l.293-.293.293.293c.3923789.3789722 1.0160848.3735524 1.4018186-.0121814s.3911536-1.0094397.0121814-1.4018186l-.293-.293.293-.293c.3903819-.3904999.3903819-1.0235001 0-1.414z"/><path id="Shape" d="m52.707 21.293-.293-.293.293-.293c.3789722-.3923789.3735524-1.0160848-.0121814-1.4018186s-1.0094397-.3911536-1.4018186-.0121814l-.293.293-.293-.293c-.3923789-.3789722-1.0160848-.3735524-1.4018186.0121814s-.3911536 1.0094397-.0121814 1.4018186l.293.293-.293.293c-.2599566.2510745-.3642126.6228779-.2726972.9725073.0915155.3496295.3645604.6226744.7141899.7141899.3496294.0915154.7214328-.0127406.9725073-.2726972l.293-.293.293.293c.3923789.3789722 1.0160848.3735524 1.4018186-.0121814s.3911536-1.0094397.0121814-1.4018186z"/><path id="Shape" d="m56.414 31 .293-.293c.3789722-.3923789.3735524-1.0160848-.0121814-1.4018186s-1.0094397-.3911536-1.4018186-.0121814l-.293.293-.293-.293c-.3923789-.3789722-1.0160848-.3735524-1.4018186.0121814s-.3911536 1.0094397-.0121814 1.4018186l.293.293-.293.293c-.2599566.2510745-.3642126.6228779-.2726972.9725073.0915155.3496295.3645604.6226744.7141899.7141899.3496294.0915154.7214328-.0127406.9725073-.2726972l.293-.293.293.293c.3923789.3789722 1.0160848.3735524 1.4018186-.0121814s.3911536-1.0094397.0121814-1.4018186z"/></g><ellipse id="Oval" cx="29" cy="19.5" fill="#3f5c6c" rx="4" ry="2.5"/><path id="Shape" d="m32.994 39.936c3.36-.31 5.637 2.207 6.876 4.124.4268256.647634.7917673 1.3339922 1.09 2.05l-2.22-.57-1.77-.45-2.02 2.99c-.568532-2.9563576-2.3685737-5.5309626-4.95-7.08h-2c-2.608666 1.5161287-4.4459888 4.0738277-5.05 7.03l-1.98-3.01-1.77.43-2.24.55c.3089295-.703206.6769136-1.3789586 1.1-2.02 1.123-1.721 3.119-3.935 5.989-4.094z" fill="#f29c1f"/><path id="Shape" d="m26 41c-1.5147087.0123279-3.0274605-.1115036-4.52-.37-1.7306158-.3103452-3.3627537-1.0273617-4.762-2.092-.5198743-.4199174-.801776-1.0673578-.755-1.734.0378859-2.4499688 1.087539-4.7751314 2.9-6.424.5556802-.464563 1.1809924-.8388054 1.853-1.109.4053711-.1648234.8549325-.1859959 1.274-.06 3.21.985 6.29 3.323 6.908 6.8.0631515.3260059.097285.6569673.102.989z" fill="#f0c419"/><path id="Shape" d="m32 41c1.4969045.0408951 2.9941856-.0662928 4.47-.32 4.17-.87 5.49-2.89 5.49-2.89.0118073-.9294607-.0719663-1.857673-.25-2.77-.3775832-2.5470591-1.9967788-4.7397198-4.32-5.85-.4596438-.1949627-.9737135-.2197799-1.45-.07-6.91 2.31-6.94 7.9-6.94 7.9z" fill="#f0c419"/><path id="Shape" d="m26.553 38.676c-.374795.0003926-.718344-.2088249-.89-.542-.5346795-.929934-1.2942184-1.710791-2.209-2.271-.4578441-.3090033-.5785033-.9306559-.2695-1.3885s.9306559-.5785033 1.3885-.2695c1.1940574.7469839 2.1801968 1.7833418 2.867 3.013.252443.4904709.060043 1.0927275-.43 1.346-.1409633.0739295-.2978269.1123731-.457.112z" fill="#f29c1f"/><path id="Shape" d="m31.45 38.7c-.3504931-.0000902-.6753566-.1836721-.8562553-.4838738-.1808986-.3002017-.191425-.6732001-.0277447-.9831262.7009758-1.2225051 1.6982497-2.2490095 2.9-2.985.2978104-.2158227.690056-.25075 1.0213142-.0909422.3312581.1598078.5480576.4885547.5644942.8559786s-.1701428.7142159-.4858084.9029636c-.9196021.5520595-1.6859987 1.3260204-2.229 2.251-.1736088.3287289-.5152451.5340189-.887.533z" fill="#f29c1f"/><path id="Shape" d="m32 39v2h-6v-1.995c.0346475-1.0907316.9093583-1.9676292 2-2.005h2c1.0799519.0572851 1.9427149.9200481 2 2z" fill="#f3d55b"/><circle id="Oval" cx="21" cy="13" fill="#ecf0f1" r="1"/><circle id="Oval" cx="35" cy="13" fill="#ecf0f1" r="1"/></g></g></svg>