<svg height="512" viewBox="0 0 54 58" width="512" xmlns="http://www.w3.org/2000/svg"><g id="Page-1" fill="none" fill-rule="evenodd"><g id="048---Shirt-Gift" fill-rule="nonzero"><path id="Shape" d="m14.51 9.37-4.57.96c-4.62546028.9737286-7.93739067 5.0531593-7.94 9.78v35.89c.0032948 1.1032019.89679813 1.9967052 2 2h46c1.1032019-.0032948 1.9967052-.8967981 2-2v-35.89c-.0026093-4.7268407-3.3145397-8.8062714-7.94-9.78l-4.57-.96z" fill="#955ba5"/><path id="Shape" d="m35 1v10h-16v-10-1h16z" fill="#7d6599"/><path id="Rectangle-path" d="m26 10h2v48h-2z" fill="#894b9d"/><path id="Shape" d="m43.6 29h9.4c.5522847 0 1 .4477153 1 1v8c0 .5522847-.4477153 1-1 1h-52c-.55228475 0-1-.4477153-1-1v-8c0-.5522847.44771525-1 1-1z" fill="#f3d55b"/><g fill="#f0c419"><path id="Shape" d="m15.707 17.293c-.3904999-.3903819-1.0235001-.3903819-1.414 0l-.293.293-.293-.293c-.3923789-.3789722-1.0160848-.3735524-1.4018186.0121814s-.3911536 1.0094397-.0121814 1.4018186l.293.293-.293.293c-.2599566.2510745-.3642126.6228779-.2726972.9725073.0915155.3496295.3645604.6226744.7141899.7141899.3496294.0915154.7214328-.0127406.9725073-.2726972l.293-.293.293.293c.3923789.3789722 1.0160848.3735524 1.4018186-.0121814s.3911536-1.0094397.0121814-1.4018186l-.293-.293.293-.293c.3903819-.3904999.3903819-1.0235001 0-1.414z"/><path id="Shape" d="m9.707 21.293c-.39049985-.3903819-1.02350015-.3903819-1.414 0l-.293.293-.293-.293c-.39237889-.3789722-1.01608478-.3735524-1.40181858.0121814-.38573379.3857338-.39115363 1.0094397-.01218142 1.4018186l.293.293-.293.293c-.25995658.2510745-.3642126.6228779-.27269716.9725073.09151544.3496295.3645604.6226744.71418984.7141899.34962943.0915154.72143285-.0127406.97250732-.2726972l.293-.293.293.293c.39237889.3789722 1.01608478.3735524 1.40181858-.0121814.38573382-.3857338.39115362-1.0094397.01218142-1.4018186l-.293-.293.293-.293c.3903819-.3904999.3903819-1.0235001 0-1.414z"/><path id="Shape" d="m41.707 17.293c-.3904999-.3903819-1.0235001-.3903819-1.414 0l-.293.293-.293-.293c-.3923789-.3789722-1.0160848-.3735524-1.4018186.0121814s-.3911536 1.0094397-.0121814 1.4018186l.293.293-.293.293c-.2599566.2510745-.3642126.6228779-.2726972.9725073.0915155.3496295.3645604.6226744.7141899.7141899.3496294.0915154.7214328-.0127406.9725073-.2726972l.293-.293.293.293c.3923789.3789722 1.0160848.3735524 1.4018186-.0121814s.3911536-1.0094397.0121814-1.4018186l-.293-.293.293-.293c.3903819-.3904999.3903819-1.0235001 0-1.414z"/><path id="Shape" d="m47.414 23 .293-.293c.3789722-.3923789.3735524-1.0160848-.0121814-1.4018186s-1.0094397-.3911536-1.4018186-.0121814l-.293.293-.293-.293c-.3923789-.3789722-1.0160848-.3735524-1.4018186.0121814s-.3911536 1.0094397-.0121814 1.4018186l.293.293-.293.293c-.2599566.2510745-.3642126.6228779-.2726972.9725073.0915155.3496295.3645604.6226744.7141899.7141899.3496294.0915154.7214328-.0127406.9725073-.2726972l.293-.293.293.293c.3923789.3789722 1.0160848.3735524 1.4018186-.0121814s.3911536-1.0094397.0121814-1.4018186z"/></g><path id="Shape" d="m34.727 35.291c1.519 1.429 5.832 4.416 7.013 10.369l-5.15-2.05c-.2871375-.1117752-.6110299.0257682-.73.31l-2.05 5.14s-1.56-7.04-5.99-10.06h-1.63c-4.43 3.02-5.98 10.06-5.98 10.06l-2.06-5.14c-.1189701-.2842318-.4428625-.4217752-.73-.31l-5.15 2.05c.6691531-3.1559624 2.2883629-6.0314558 4.64-8.24l2.255-2.255z" fill="#f29c1f"/><path id="Shape" d="m32.01 37.21c1.6244985.6102497 3.4024784.680387 5.07.2.6432293-.1742325 1.2640529-.422562 1.85-.74 1.8143272-1.0440569 3.3642658-2.4913506 4.53-4.23.5720457-.8403086.7059544-1.904139.36-2.86-1.094059-2.7393877-3.1638147-4.9765763-5.81-6.28-.3948966-.2236788-.8474785-.3246394-1.3-.29-5.7.33-8.16 5.17-9.12 7.92z" fill="#f0c419"/><path id="Shape" d="m31.871 34.53c-.4699395-.0003738-.8762158-.3279174-.9762746-.7870813-.1000588-.459164.1330993-.92605.5602746-1.1219187 1.9027257-.821369 3.4611636-2.2780083 4.409-4.121-.4040578-.1031256-.7031945-.4439747-.753-.858-.0675882-.5314247.3045023-1.0184845.835-1.093.7188009-.0851213 1.4406591.1321968 1.993.6.2460469.2872694.3272462.6808026.215 1.042-.9999044 2.8099309-3.1272389 5.075004-5.869 6.249-.1298177.0597357-.2710987.0904489-.414.09z" fill="#f29c1f"/><path id="Shape" d="m22 37.21c-1.6300685.6148997-3.4148194.6885338-5.09.21-.4667934-.1399661-.9215893-.3172028-1.36-.53-2.0209838-1.029598-3.7429011-2.5621043-5-4.45-.57204565-.8403086-.70595437-1.904139-.36-2.86 1.094059-2.7393877 3.1638147-4.9765763 5.81-6.28.3948966-.2236788.8474785-.3246394 1.3-.29 5.7.33 8.16 5.17 9.12 7.92z" fill="#f0c419"/><path id="Shape" d="m22.149 34.53c-.142571.0003677-.2835089-.0303452-.413-.09-2.7415472-1.1684298-4.8710389-3.4280471-5.875-6.234-.1004487-.3576968-.0295468-.7417485.192-1.04.546024-.4902545 1.2798692-.7158561 2.007-.617.4796979.063035.8454669.4604486.8685734.9437183s-.3030777.9137675-.7745734 1.0222817c.9524075 1.8349393 2.510628 3.283625 4.41 4.1.4282578.1951199.6625135.6624409.5625914 1.1223235-.0999222.4598827-.5069785.7878609-.9775914.7876765zm-4.4-6.979c0 .012.009.025.013.038-.003-.013-.007-.026-.012-.038z" fill="#f29c1f"/><path id="Shape" d="m32.011 34.429v2.857c-.086593 1.0217098-.9770783 1.7848557-2 1.714h-6.011c-1.0229217.0708557-1.913407-.6922902-2-1.714v-2.857c.1716364-2.0443504 1.9534329-3.5717954 4-3.429h2c2.0507037-.1491061 3.8394078 1.3800553 4.011 3.429z" fill="#f3d55b"/><path id="Shape" d="m19 0s2 7 8 10c-1.600827 2.2527874-3.385602 4.3690302-5.336 6.327-.3746848.3820901-.9837687.4014821-1.382.044-1.549-1.4-5.147-4.889-6.155-7.936-.0857445-.27747354-.0436006-.57871099.115-.822z" fill="#b49aca"/><path id="Shape" d="m35 0s-2 7-8 10c1.600827 2.2527874 3.385602 4.3690302 5.336 6.327.3746848.3820901.9837687.4014821 1.382.044 1.549-1.4 5.147-4.889 6.155-7.936.0857445-.27747354.0436006-.57871099-.115-.822z" fill="#b49aca"/></g></g></svg>