<svg height="512" viewBox="0 0 58 58" width="512" xmlns="http://www.w3.org/2000/svg"><g id="Page-1" fill="none" fill-rule="evenodd"><g id="049---Gift-Shopping-Online" fill-rule="nonzero"><path id="Shape" d="m23 50h-19c-2.209139 0-4-1.790861-4-4v-42c0-2.209139 1.790861-4 4-4h50c2.209139 0 4 1.790861 4 4v42c0 2.209139-1.790861 4-4 4z" fill="#ecf0f1"/><path id="Shape" d="m58 4v4h-58v-4c0-2.209139 1.790861-4 4-4h50c2.209139 0 4 1.790861 4 4z" fill="#3b97d3"/><path id="Shape" d="m51 34c2 0 5-1 7-6h-3l-1-3c-.8658706 1.1598655-2.0507796 2.0424663-3.41 2.54l-12.59 2.46-12.59-2.46c-1.3592204-.4975337-2.5441294-1.3801345-3.41-2.54l-1 3h-3c2 5 5 6 7 6l13 2z" fill="#f29c1f"/><circle id="Oval" cx="54" cy="4" fill="#ff5364" r="1"/><circle id="Oval" cx="50" cy="4" fill="#f0c419" r="1"/><circle id="Oval" cx="46" cy="4" fill="#65ddb9" r="1"/><path id="Shape" d="m6 5h-2c-.55228475 0-1-.44771525-1-1s.44771525-1 1-1h2c.55228475 0 1 .44771525 1 1s-.44771525 1-1 1z" fill="#2980ba"/><path id="Shape" d="m25 5h-15c-.55228475 0-1-.44771525-1-1s.44771525-1 1-1h15c.5522847 0 1 .44771525 1 1s-.4477153 1-1 1z" fill="#2980ba"/><rect id="Rectangle-path" fill="#955ba5" height="10" rx="1" width="14" x="5" y="13"/><g fill="#547580"><path id="Shape" d="m32 15h-7c-.5522847 0-1-.4477153-1-1s.4477153-1 1-1h7c.5522847 0 1 .4477153 1 1s-.4477153 1-1 1z"/><path id="Shape" d="m52 15h-16c-.5522847 0-1-.4477153-1-1s.4477153-1 1-1h16c.5522847 0 1 .4477153 1 1s-.4477153 1-1 1z"/><path id="Shape" d="m52 19h-27c-.5522847 0-1-.4477153-1-1s.4477153-1 1-1h27c.5522847 0 1 .4477153 1 1s-.4477153 1-1 1z"/><path id="Shape" d="m14 30h-8c-.55228475 0-1-.4477153-1-1s.44771525-1 1-1h8c.5522847 0 1 .4477153 1 1s-.4477153 1-1 1z"/><path id="Shape" d="m15 34h-9c-.55228475 0-1-.4477153-1-1s.44771525-1 1-1h9c.5522847 0 1 .4477153 1 1s-.4477153 1-1 1z"/><path id="Shape" d="m10 38h-4c-.55228475 0-1-.4477153-1-1s.44771525-1 1-1h4c.5522847 0 1 .4477153 1 1s-.4477153 1-1 1z"/><path id="Shape" d="m17 38h-3c-.5522847 0-1-.4477153-1-1s.4477153-1 1-1h3c.5522847 0 1 .4477153 1 1s-.4477153 1-1 1z"/><path id="Shape" d="m17 42h-11c-.55228475 0-1-.4477153-1-1s.44771525-1 1-1h11c.5522847 0 1 .4477153 1 1s-.4477153 1-1 1z"/><path id="Shape" d="m17 46h-11c-.55228475 0-1-.4477153-1-1s.44771525-1 1-1h11c.5522847 0 1 .4477153 1 1s-.4477153 1-1 1z"/></g><path id="Shape" d="m38.667 34-.667-4c-.8573391-3.5891093-3.4983133-6.4861367-6.993-7.671-.6275055-.2430607-1.3348962-.1571686-1.886.229-1.8426694 1.3414454-3.1994785 3.2454002-3.866 5.425-.1963346.6361811-.0710053 1.3281031.336 1.855 1.109 1.424 3.709 4.162 7.409 4.162z" fill="#f0c419"/><path id="Shape" d="m37.333 34 .667-4c.8573391-3.5891093 3.4983133-6.4861367 6.993-7.671.6275055-.2430607 1.3348962-.1571686 1.886.229 1.8426694 1.3414454 3.1994785 3.2454002 3.866 5.425.1963346.6361811.0710053 1.3281031-.336 1.855-1.104 1.424-3.709 4.162-7.409 4.162z" fill="#f0c419"/><path id="Shape" d="m35.531 31.38c-.3001804.0008138-.5846512-.1340709-.774-.367-1.0597199-1.3658551-2.4652099-2.423684-4.071-3.064-.5246705-.1734174-.8094174-.7393295-.636-1.264s.7393295-.8094174 1.264-.636c1.9668542.7602402 3.6911886 2.0388048 4.99 3.7.2431679.2989597.2929116.711045.1278679 1.0592807-.1650437.3482358-.5155026.5706481-.9008679.5717193z" fill="#f29c1f"/><path id="Shape" d="m40.469 31.38c-.386126-.0004445-.7374957-.2231505-.9026993-.5721509-.1652035-.3490005-.1147189-.761929.1296993-1.0608491 1.2988114-1.6611952 3.0231458-2.9397598 4.99-3.7.5246705-.1734174 1.0905826.1113295 1.264.636s-.1113295 1.0905826-.636 1.264c-1.6057901.640316-3.0112801 1.6981449-4.071 3.064-.1889555.2336774-.4734851.3693253-.774.369z" fill="#f29c1f"/><path id="Shape" d="m37 30h2c1.6568542 0 3 1.3431458 3 3v1h-8v-1c0-1.6568542 1.3431458-3 3-3z" fill="#f3d55b"/><path id="Shape" d="m23 38h30v19c0 .5522847-.4477153 1-1 1h-28c-.5522847 0-1-.4477153-1-1z" fill="#e64c3c"/><path id="Shape" d="m24 34h28c1.6568542 0 3 1.3431458 3 3v2c0 .5522847-.4477153 1-1 1h-32c-.5522847 0-1-.4477153-1-1v-2c0-1.6568542 1.3431458-3 3-3z" fill="#e64c3c"/><path id="Rectangle-path" d="m34 34h8v6h-8z" fill="#f0c419"/><path id="Rectangle-path" d="m23 40h30v2h-30z" fill="#c03a2b"/><path id="Rectangle-path" d="m35 40h6v18h-6z" fill="#f29c1f"/></g></g></svg>