<svg height="512" viewBox="0 0 58 58" width="512" xmlns="http://www.w3.org/2000/svg"><g id="Page-1" fill="none" fill-rule="evenodd"><g id="050---Gift-Shop" fill-rule="nonzero" transform="translate(-1)"><path id="Rectangle-path" d="m3 13h54v41h-54z" fill="#f0c419"/><path id="Shape" d="m57 24v26h-29c-.5522847 0-1-.4477153-1-1v-24c0-.5522847.4477153-1 1-1z" fill="#2fa8cc"/><path id="Shape" d="m35.72 50h-7.72c-.5522847 0-1-.4477153-1-1v-24c0-.5522847.4477153-1 1-1h19.51c.54 6.89.03 20.75-11.79 26z" fill="#67b9cc"/><path id="Shape" d="m33 40h18v8c0 1.1045695-.8954305 2-2 2h-14c-1.1045695 0-2-.8954305-2-2z" fill="#c03a2b"/><path id="Rectangle-path" d="m39 41h6v9h-6z" fill="#f29c1f"/><path id="Shape" d="m3 54h54c1.1045695 0 2 .8954305 2 2v2h-58v-2c0-1.1045695.8954305-2 2-2z" fill="#805333"/><path id="Shape" d="m58.41 9.41-7.95-7.95c-.9370554-.93468953-2.2064755-1.45971881-3.53-1.46h-33.86c-1.3235245.00028119-2.5929446.52531047-3.53 1.46l-7.95 7.95c-.37747734.37617334-.58975868.8870877-.59 1.42v3.17c-.13159829 3.1732764 2.32727653 5.8556853 5.5 6 3.17272347-.1443147 5.6315983-2.8267236 5.5-6 0 3.3137085 2.6862915 6 6 6s6-2.6862915 6-6c0 3.3137085 2.6862915 6 6 6s6-2.6862915 6-6c0 3.3137085 2.6862915 6 6 6s6-2.6862915 6-6c-.1819114 2.079708.8247943 4.084161 2.6016338 5.1801165s4.0198929 1.0959555 5.7967324 0 2.7835452-3.1004085 2.6016338-5.1801165v-3.17c-.0002413-.5329123-.2125227-1.04382666-.59-1.42z" fill="#ecf0f1"/><g fill="#e64c3c"><path id="Shape" d="m59 10.83v.17h-11l-6-11h4.93c1.3235245.00028119 2.5929446.52531047 3.53 1.46l7.95 7.95c.3774773.37617334.5897587.8870877.59 1.42z"/><path id="Shape" d="m36 11h-12l2-11h8z"/><path id="Shape" d="m18 0-6 11h-11v-.17c.00024132-.5329123.21252266-1.04382666.59-1.42l7.95-7.95c.9370554-.93468953 2.2064755-1.45971881 3.53-1.46z"/></g><path id="Shape" d="m12 11v3c.1315983 3.1732764-2.32727653 5.8556853-5.5 6-3.17272347-.1443147-5.63159829-2.8267236-5.5-6v-3z" fill="#c03a2b"/><path id="Shape" d="m24 11v3c0 3.3137085-2.6862915 6-6 6s-6-2.6862915-6-6v-3z" fill="#d1d4d1"/><path id="Shape" d="m36 11v3c0 3.3137085-2.6862915 6-6 6s-6-2.6862915-6-6v-3z" fill="#c03a2b"/><path id="Shape" d="m48 11v3c0 3.3137085-2.6862915 6-6 6s-6-2.6862915-6-6v-3z" fill="#d1d4d1"/><path id="Shape" d="m59 11v3c.1819114 2.079708-.8247943 4.084161-2.6016338 5.1801165s-4.0198929 1.0959555-5.7967324 0-2.7835452-3.1004085-2.6016338-5.1801165v-3z" fill="#c03a2b"/><path id="Shape" d="m23 25v29h-16v-29c0-.5522847.44771525-1 1-1h14c.5522847 0 1 .4477153 1 1z" fill="#a56a43"/><path id="Shape" d="m23 41v2h-2.59l-.7.71c-.3943361.3867403-1.0256639.3867403-1.42 0-.3899779-.3930079-.3899779-1.0269921 0-1.42l1-1c.1906836-.1841958.4448879-.2880257.71-.29z" fill="#95a5a5"/><rect id="Rectangle-path" fill="#2fa8cc" height="10" rx="1" width="8" x="11" y="28"/><path id="Shape" d="m39 36.995c-2.0474886.1386103-4.054301-.6185053-5.5-2.075-.3770944-.4190403-.5556128-.9800984-.49-1.54.2035918-1.6550442.7964537-3.2382937 1.73-4.62.3542893-.5841182 1.0461718-.871391 1.71-.71 2.565811.5627992 4.6382248 2.4485433 5.44 4.95z" fill="#f0c419"/><path id="Shape" d="m42.11 33c.8017752-2.5014567 2.874189-4.3872008 5.44-4.95.6638282-.161391 1.3557107.1258818 1.71.71.9335463 1.3817063 1.5264082 2.9649558 1.73 4.62.0656128.5599016-.1129056 1.1209597-.49 1.54-1.445699 1.4564947-3.4525114 2.2136103-5.5 2.075z" fill="#f0c419"/><path id="Shape" d="m39.3 34.95c-.3133563.0018955-.6094816-.1432059-.8-.392-.5175602-.6906417-1.1827266-1.2570751-1.947-1.658-.4942949-.2468713-.6948713-.8477051-.448-1.342s.8477051-.6948713 1.342-.448c1.0389089.5381938 1.9435434 1.3030491 2.647 2.238.2278106.3021613.265546.7070322.0974992 1.0460889-.1680468.3390566-.5130864.5542126-.8914992.5559111z" fill="#f29c1f"/><path id="Shape" d="m44.7 34.95c-.3800471-.0006464-.7268793-.2166676-.8950579-.5574786-.1681787-.340811-.1286316-.7474973.1020579-1.0495214.7026138-.9366525 1.606939-1.7032442 2.646-2.243.3197527-.1596977.7004141-.1366785.9985928.0603866.2981786.1970651.4685741.5382372.447.895-.0215741.3567629-.2318401.6749157-.5515928.8346134-.7669571.4016261-1.434275.9698543-1.953 1.663-.1882071.2489939-.4818806.3958306-.794.397z" fill="#f29c1f"/><path id="Shape" d="m34 37h16c1.1045695 0 2 .8954305 2 2v1c0 .5522847-.4477153 1-1 1h-18c-.5522847 0-1-.4477153-1-1v-1c0-1.1045695.8954305-2 2-2z" fill="#e64c3c"/><path id="Shape" d="m41 33h2c1.1045695 0 2 .8954305 2 2v2h-6v-2c0-1.1045695.8954305-2 2-2z" fill="#f3d55b"/><path id="Rectangle-path" d="m38 37h8v4h-8z" fill="#f0c419"/></g></g></svg>